<?xml version="1.0" encoding="utf-8" ?>
<svg xmlns="http://www.w3.org/2000/svg" xmlns:ev="http://www.w3.org/2001/xml-events" xmlns:xlink="http://www.w3.org/1999/xlink" baseProfile="full" height="500" version="1.1" viewBox="0,0,93.0909090909091,45.45454545454545" width="1024">
    <defs/>
    <rect fill="white" height="45.45454545454545" stroke="black" stroke-width="0.1" width="93.0909090909091" x="0" y="0"/>
    <linearGradient gradientUnits="objectBoundingBox" id="id1" x1="1.0" x2="0.0" y1="0.0" y2="1.0">
        <stop offset="0%" stop-color="#47a8cd"/>
        <stop offset="100%" stop-color="#008fb5"/>
    </linearGradient>
    <rect fill="url(#id1) none" height="17.799999999999997" stroke="#b5a739" stroke-width="0.1" width="14.9" x="14.82272727272727" y="10.377272727272727"/>
    <rect fill="#b5a739" height="0.1" width="1.6" x="14.77272727272727" y="24.677272727272726"/>
    <rect fill="#b5a739" height="3.45" width="0.1" x="16.37272727272727" y="24.677272727272726"/>
    <rect fill="#fff" height="3.55" width="1.7" x="14.67272727272727" y="24.777272727272724"/>
    <rect fill="#b5a739" height="0.1" width="1.6" x="28.07272727272727" y="24.677272727272726"/>
    <rect fill="#b5a739" height="3.45" width="0.1" x="28.07272727272727" y="24.677272727272726"/>
    <rect fill="#fff" height="3.55" width="1.7" x="28.172727272727272" y="24.777272727272724"/>
    <linearGradient gradientUnits="objectBoundingBox" id="id2" x1="1.0" x2="0.0" y1="0.0" y2="1.0">
        <stop offset="0%" stop-color="whitesmoke"/>
        <stop offset="100%" stop-color="#999"/>
    </linearGradient>
    <rect fill="url(#id2) none" height="8.0" rx="0.5" ry="0.5" width="14.4" x="15.07272727272727" y="16.327272727272728"/>
    <rect fill="#e5b472" height="2.5" id="r_pins_horz.pin1.pad" rx="0.2" ry="0.2" width="1.0" x="17.77272727272727" y="25.377272727272725"/>
    <rect fill="#e5b472" height="2.5" id="r_pins_horz.pin2.pad" rx="0.2" ry="0.2" width="1.0" x="19.77272727272727" y="25.377272727272725"/>
    <rect fill="#e5b472" height="2.5" id="r_pins_horz.pin3.pad" rx="0.2" ry="0.2" width="1.0" x="21.77272727272727" y="25.377272727272725"/>
    <rect fill="#e5b472" height="2.5" id="r_pins_horz.pin4.pad" rx="0.2" ry="0.2" width="1.0" x="23.77272727272727" y="25.377272727272725"/>
    <rect fill="#e5b472" height="2.5" id="r_pins_horz.pin5.pad" rx="0.2" ry="0.2" width="1.0" x="25.77272727272727" y="25.377272727272725"/>
    <rect fill="#4e4c4c" height="2.0" width="0.2" x="18.17272727272727" y="28.427272727272722"/>
    <rect fill="#4e4c4c" height="0.2" width="0.2" x="17.97272727272727" y="30.227272727272727"/>
    <rect height="0.0" id="tuya2.front.pins.label1.anchor" width="0.0" x="33.245454545454535" y="40.654545454545456"/>
    <rect fill="#4e4c4c" height="4.0" width="0.2" x="20.172727272727272" y="28.427272727272722"/>
    <rect fill="#4e4c4c" height="0.2" width="2.2" x="17.97272727272727" y="32.22727272727273"/>
    <rect height="0.0" id="tuya2.front.pins.label2.anchor" width="0.0" x="33.245454545454535" y="42.654545454545456"/>
    <rect fill="#4e4c4c" height="6.0" width="0.2" x="22.172727272727272" y="28.427272727272722"/>
    <rect fill="#4e4c4c" height="0.2" width="4.2" x="17.97272727272727" y="34.22727272727273"/>
    <rect height="0.0" id="tuya2.front.pins.label3.anchor" width="0.0" x="33.245454545454535" y="44.654545454545456"/>
    <rect fill="#4e4c4c" height="6.0" width="0.2" x="24.172727272727272" y="28.427272727272722"/>
    <rect fill="#4e4c4c" height="0.2" width="4.2" x="24.27272727272727" y="34.22727272727273"/>
    <rect height="0.0" id="tuya2.front.pins.label4.anchor" width="0.0" x="42.745454545454535" y="44.654545454545456"/>
    <rect fill="#4e4c4c" height="4.0" width="0.2" x="26.172727272727272" y="28.427272727272722"/>
    <rect fill="#4e4c4c" height="0.2" width="2.2" x="26.27272727272727" y="32.22727272727273"/>
    <rect height="0.0" id="tuya2.front.pins.label5.anchor" width="0.0" x="42.745454545454535" y="42.654545454545456"/>
    <text fill="#fff" font-family="Consolas" font-size="1.0" x="21.77272727272727" y="15.327272727272726">CB2S</text>
    <rect fill="#58839b" height="4.688524590163935" width="0.46875" x="15.80397727272727" y="11.048584202682562"/>
    <rect fill="#58839b" height="0.45081967213114754" width="4.3125" x="15.80397727272727" y="11.048584202682562"/>
    <rect fill="#58839b" height="4.688524590163935" width="0.46875" x="17.86647727272727" y="11.048584202682562"/>
    <rect fill="#58839b" height="2.7049180327868854" width="0.46875" x="19.64772727272727" y="11.048584202682562"/>
    <rect fill="#58839b" height="0.45081967213114754" width="2.8125" x="19.64772727272727" y="13.3026825633383"/>
    <rect fill="#58839b" height="2.7049180327868854" width="0.46875" x="21.99147727272727" y="11.048584202682562"/>
    <rect fill="#58839b" height="0.45081967213114754" width="2.53125" x="21.99147727272727" y="11.048584202682562"/>
    <rect fill="#58839b" height="2.7049180327868854" width="0.46875" x="24.05397727272727" y="11.048584202682562"/>
    <rect fill="#58839b" height="0.45081967213114754" width="2.8125" x="24.05397727272727" y="13.3026825633383"/>
    <rect fill="#58839b" height="2.7049180327868854" width="0.46875" x="26.39772727272727" y="11.048584202682562"/>
    <rect fill="#58839b" height="0.45081967213114754" width="2.34375" x="26.39772727272727" y="11.048584202682562"/>
    <rect fill="#58839b" height="3.9672131147540988" width="0.46875" x="28.27272727272727" y="11.048584202682562"/>
    <rect fill="#4e4c4c" height="0.2" width="2.6" x="28.47272727272727" y="32.22727272727273"/>
    <g transform="translate(31.88708662667217,31.527272727272727)">
        <rect fill="#4e4c4c" height="1.6" rx="0.3" ry="0.3" transform="skewX(-15)" width="1.8" x="0" y="0"/>
    </g>
    <text dominant-baseline="central" fill="white" font-family="Consolas" font-size="1.2" text-anchor="middle" x="32.57272727272727" y="32.32727272727273">2</text>
    <g transform="translate(33.88708662667217,31.527272727272727)">
        <rect fill="#800000" height="1.6" rx="0.3" ry="0.3" transform="skewX(-15)" width="3.4" x="0" y="0"/>
    </g>
    <text dominant-baseline="central" fill="white" font-family="Consolas" font-size="1.2" text-anchor="middle" x="35.372727272727275" y="32.32727272727273">P6</text>
    <g transform="translate(37.48708662667217,31.527272727272727)">
        <rect fill="#afa35e" height="1.6" rx="0.3" ry="0.3" transform="skewX(-15)" width="3.4" x="0" y="0"/>
    </g>
    <text dominant-baseline="central" fill="#423F42" font-family="Consolas" font-size="1.2" text-anchor="middle" x="38.972727272727276" y="32.32727272727273">PWM0</text>
    <rect fill="#4e4c4c" height="0.2" width="2.6" x="28.47272727272727" y="34.22727272727273"/>
    <g transform="translate(31.88708662667217,33.52727272727273)">
        <rect fill="#4e4c4c" height="1.6" rx="0.3" ry="0.3" transform="skewX(-15)" width="1.8" x="0" y="0"/>
    </g>
    <text dominant-baseline="central" fill="white" font-family="Consolas" font-size="1.2" text-anchor="middle" x="32.57272727272727" y="34.32727272727273">4</text>
    <g transform="translate(33.88708662667217,33.52727272727273)">
        <rect fill="#800000" height="1.6" rx="0.3" ry="0.3" transform="skewX(-15)" width="3.4" x="0" y="0"/>
    </g>
    <text dominant-baseline="central" fill="white" font-family="Consolas" font-size="1.2" text-anchor="middle" x="35.372727272727275" y="34.32727272727273">P7</text>
    <g transform="translate(37.48708662667217,33.52727272727273)">
        <rect fill="#afa35e" height="1.6" rx="0.3" ry="0.3" transform="skewX(-15)" width="3.4" x="0" y="0"/>
    </g>
    <text dominant-baseline="central" fill="#423F42" font-family="Consolas" font-size="1.2" text-anchor="middle" x="38.972727272727276" y="34.32727272727273">PWM1</text>
    <rect fill="#4e4c4c" height="0.2" width="2.6" x="15.37272727272727" y="34.22727272727273"/>
    <g transform="translate(13.187086626672167,33.52727272727273)">
        <rect fill="#4e4c4c" height="1.6" rx="0.3" ry="0.3" transform="skewX(-15)" width="1.8" x="0" y="0"/>
    </g>
    <text dominant-baseline="central" fill="white" font-family="Consolas" font-size="1.2" text-anchor="middle" x="13.87272727272727" y="34.32727272727273">6</text>
    <g transform="translate(9.587086626672168,33.52727272727273)">
        <rect fill="#800000" height="1.6" rx="0.3" ry="0.3" transform="skewX(-15)" width="3.4" x="0" y="0"/>
    </g>
    <text dominant-baseline="central" fill="white" font-family="Consolas" font-size="1.2" text-anchor="middle" x="11.072727272727269" y="34.32727272727273">P8</text>
    <g transform="translate(5.987086626672168,33.52727272727273)">
        <rect fill="#afa35e" height="1.6" rx="0.3" ry="0.3" transform="skewX(-15)" width="3.4" x="0" y="0"/>
    </g>
    <text dominant-baseline="central" fill="#423F42" font-family="Consolas" font-size="1.2" text-anchor="middle" x="7.47272727272727" y="34.32727272727273">PWM2</text>
    <rect fill="#4e4c4c" height="0.2" width="2.6" x="15.37272727272727" y="32.22727272727273"/>
    <g transform="translate(13.187086626672167,31.527272727272727)">
        <rect fill="#4e4c4c" height="1.6" rx="0.3" ry="0.3" transform="skewX(-15)" width="1.8" x="0" y="0"/>
    </g>
    <text dominant-baseline="central" fill="white" font-family="Consolas" font-size="1.2" text-anchor="middle" x="13.87272727272727" y="32.32727272727273">8</text>
    <g transform="translate(9.587086626672168,31.527272727272727)">
        <rect fill="#800000" height="1.6" rx="0.3" ry="0.3" transform="skewX(-15)" width="3.4" x="0" y="0"/>
    </g>
    <text dominant-baseline="central" fill="white" font-family="Consolas" font-size="1.2" text-anchor="middle" x="11.072727272727269" y="32.32727272727273">P23</text>
    <g transform="translate(5.987086626672168,31.527272727272727)">
        <rect fill="#8ad039" height="1.6" rx="0.3" ry="0.3" transform="skewX(-15)" width="3.4" x="0" y="0"/>
    </g>
    <text dominant-baseline="central" fill="#423F42" font-family="Consolas" font-size="1.2" text-anchor="middle" x="7.47272727272727" y="32.32727272727273">ADC3</text>
    <rect fill="#4e4c4c" height="0.2" width="2.6" x="15.37272727272727" y="30.227272727272727"/>
    <g transform="translate(13.187086626672167,29.527272727272727)">
        <rect fill="#4e4c4c" height="1.6" rx="0.3" ry="0.3" transform="skewX(-15)" width="1.8" x="0" y="0"/>
    </g>
    <text dominant-baseline="central" fill="white" font-family="Consolas" font-size="1.2" text-anchor="middle" x="13.87272727272727" y="30.327272727272728">10</text>
    <g transform="translate(9.587086626672168,29.527272727272727)">
        <rect fill="#ed602e" height="1.6" rx="0.3" ry="0.3" transform="skewX(-15)" width="3.4" x="0" y="0"/>
    </g>
    <text dominant-baseline="central" fill="#423F42" font-family="Consolas" font-size="1.2" text-anchor="middle" x="11.072727272727269" y="30.327272727272728">CEN</text>
    <linearGradient gradientUnits="objectBoundingBox" id="id3" x1="1.0" x2="0.0" y1="0.0" y2="1.0">
        <stop offset="0%" stop-color="#47a8cd"/>
        <stop offset="100%" stop-color="#008fb5"/>
    </linearGradient>
    <rect fill="url(#id3) none" height="17.799999999999997" stroke="#b5a739" stroke-width="0.1" width="14.9" x="60.56818181818182" y="10.377272727272727"/>
    <rect fill="#b5a739" height="0.1" width="1.6" x="60.51818181818182" y="24.677272727272726"/>
    <rect fill="#b5a739" height="3.45" width="0.1" x="62.118181818181824" y="24.677272727272726"/>
    <rect fill="#fff" height="3.55" width="1.7" x="60.41818181818182" y="24.777272727272724"/>
    <rect fill="#b5a739" height="0.1" width="1.6" x="73.81818181818183" y="24.677272727272726"/>
    <rect fill="#b5a739" height="3.45" width="0.1" x="73.81818181818183" y="24.677272727272726"/>
    <rect fill="#fff" height="3.55" width="1.7" x="73.91818181818182" y="24.777272727272724"/>
    <rect fill="#e5b472" height="2.5" id="r_pins_horz.pin1.pad" rx="0.2" ry="0.2" width="1.0" x="62.51818181818182" y="25.377272727272725"/>
    <rect fill="#e5b472" height="2.5" id="r_pins_horz.pin2.pad" rx="0.2" ry="0.2" width="1.0" x="64.51818181818183" y="25.377272727272725"/>
    <rect fill="#e5b472" height="2.5" id="r_pins_horz.pin3.pad" rx="0.2" ry="0.2" width="1.0" x="66.51818181818183" y="25.377272727272725"/>
    <rect fill="#e5b472" height="2.5" id="r_pins_horz.pin4.pad" rx="0.2" ry="0.2" width="1.0" x="68.51818181818183" y="25.377272727272725"/>
    <rect fill="#e5b472" height="2.5" id="r_pins_horz.pin5.pad" rx="0.2" ry="0.2" width="1.0" x="70.51818181818183" y="25.377272727272725"/>
    <rect fill="#e5b472" height="2.5" id="r_pins_horz.pin6.pad" rx="0.2" ry="0.2" width="1.0" x="72.51818181818183" y="25.377272727272725"/>
    <rect fill="#4e4c4c" height="2.0" width="0.2" x="62.91818181818182" y="28.427272727272722"/>
    <rect fill="#4e4c4c" height="0.2" width="0.2" x="62.718181818181826" y="30.227272727272727"/>
    <rect height="0.0" id="tuya2.back.pins.label1.anchor" width="0.0" x="123.73636363636365" y="40.654545454545456"/>
    <rect fill="#4e4c4c" height="4.0" width="0.2" x="64.91818181818182" y="28.427272727272722"/>
    <rect fill="#4e4c4c" height="0.2" width="2.2" x="62.718181818181826" y="32.22727272727273"/>
    <rect height="0.0" id="tuya2.back.pins.label2.anchor" width="0.0" x="123.73636363636365" y="42.654545454545456"/>
    <rect fill="#4e4c4c" height="6.0" width="0.2" x="66.91818181818182" y="28.427272727272722"/>
    <rect fill="#4e4c4c" height="0.2" width="4.2" x="62.718181818181826" y="34.22727272727273"/>
    <rect height="0.0" id="tuya2.back.pins.label3.anchor" width="0.0" x="123.73636363636365" y="44.654545454545456"/>
    <rect fill="#4e4c4c" height="6.0" width="0.2" x="68.91818181818182" y="28.427272727272722"/>
    <rect fill="#4e4c4c" height="0.2" width="4.2" x="69.01818181818183" y="34.22727272727273"/>
    <rect height="0.0" id="tuya2.back.pins.label4.anchor" width="0.0" x="133.23636363636365" y="44.654545454545456"/>
    <rect fill="#4e4c4c" height="4.0" width="0.2" x="70.91818181818182" y="28.427272727272722"/>
    <rect fill="#4e4c4c" height="0.2" width="2.2" x="71.01818181818183" y="32.22727272727273"/>
    <rect height="0.0" id="tuya2.back.pins.label5.anchor" width="0.0" x="133.23636363636365" y="42.654545454545456"/>
    <rect fill="#4e4c4c" height="2.0" width="0.2" x="72.91818181818182" y="28.427272727272722"/>
    <rect fill="#4e4c4c" height="0.2" width="0.2" x="73.01818181818183" y="30.227272727272727"/>
    <rect height="0.0" id="tuya2.back.pins.label6.anchor" width="0.0" x="133.23636363636365" y="40.654545454545456"/>
    <rect fill="#e5b472" height="2.9" width="2.9" x="66.51818181818183" y="19.227272727272727"/>
    <rect fill="#4e4c4c" height="0.0" width="0.2" x="67.11818181818182" y="16.227272727272727"/>
    <rect fill="#4e4c4c" height="0.2" width="2.7" x="64.41818181818182" y="16.227272727272727"/>
    <rect height="0.0" id="cb2s.back.u2_txd.anchor" width="0.0" x="125.43636363636364" y="26.654545454545456"/>
    <circle cx="68.01818181818183" cy="16.327272727272728" fill="#e5b472" r="0.5"/>
    <rect fill="#4e4c4c" height="0.0" width="0.2" x="66.61818181818182" y="18.227272727272727"/>
    <rect fill="#4e4c4c" height="0.2" width="2.2" x="64.41818181818182" y="18.227272727272727"/>
    <rect height="0.0" id="cb2s.back.u2_rxd.anchor" width="0.0" x="125.43636363636364" y="28.654545454545456"/>
    <circle cx="67.51818181818183" cy="18.327272727272728" fill="#e5b472" r="0.5"/>
    <rect fill="#4e4c4c" height="0.0" width="0.2" x="64.61818181818182" y="21.227272727272727"/>
    <rect fill="#4e4c4c" height="0.2" width="0.2" x="64.41818181818182" y="21.227272727272727"/>
    <rect height="0.0" id="cb2s.back.csn.anchor" width="0.0" x="125.43636363636364" y="31.654545454545456"/>
    <circle cx="65.51818181818183" cy="21.327272727272728" fill="#e5b472" r="0.5"/>
    <rect fill="#4e4c4c" height="0.2" width="2.6" x="60.118181818181824" y="30.227272727272727"/>
    <g transform="translate(57.932541172126726,29.527272727272727)">
        <rect fill="#4e4c4c" height="1.6" rx="0.3" ry="0.3" transform="skewX(-15)" width="1.8" x="0" y="0"/>
    </g>
    <text dominant-baseline="central" fill="white" font-family="Consolas" font-size="1.2" text-anchor="middle" x="58.618181818181824" y="30.327272727272728">1</text>
    <g transform="translate(54.332541172126724,29.527272727272727)">
        <rect fill="#cd3c24" height="1.6" rx="0.3" ry="0.3" transform="skewX(-15)" width="3.4" x="0" y="0"/>
    </g>
    <text dominant-baseline="central" fill="white" font-family="Consolas" font-size="1.2" text-anchor="middle" x="55.81818181818183" y="30.327272727272728">3V3</text>
    <rect fill="#4e4c4c" height="0.2" width="2.6" x="60.118181818181824" y="32.22727272727273"/>
    <g transform="translate(57.932541172126726,31.527272727272727)">
        <rect fill="#4e4c4c" height="1.6" rx="0.3" ry="0.3" transform="skewX(-15)" width="1.8" x="0" y="0"/>
    </g>
    <text dominant-baseline="central" fill="white" font-family="Consolas" font-size="1.2" text-anchor="middle" x="58.618181818181824" y="32.32727272727273">3</text>
    <g transform="translate(54.332541172126724,31.527272727272727)">
        <rect fill="#000" height="1.6" rx="0.3" ry="0.3" transform="skewX(-15)" width="3.4" x="0" y="0"/>
    </g>
    <text dominant-baseline="central" fill="white" font-family="Consolas" font-size="1.2" text-anchor="middle" x="55.81818181818183" y="32.32727272727273">GND</text>
    <rect fill="#4e4c4c" height="0.2" width="2.6" x="60.118181818181824" y="34.22727272727273"/>
    <g transform="translate(57.932541172126726,33.52727272727273)">
        <rect fill="#4e4c4c" height="1.6" rx="0.3" ry="0.3" transform="skewX(-15)" width="1.8" x="0" y="0"/>
    </g>
    <text dominant-baseline="central" fill="white" font-family="Consolas" font-size="1.2" text-anchor="middle" x="58.618181818181824" y="34.32727272727273">5</text>
    <g transform="translate(54.332541172126724,33.52727272727273)">
        <rect fill="#800000" height="1.6" rx="0.3" ry="0.3" transform="skewX(-15)" width="3.4" x="0" y="0"/>
    </g>
    <text dominant-baseline="central" fill="white" font-family="Consolas" font-size="1.2" text-anchor="middle" x="55.81818181818183" y="34.32727272727273">P10</text>
    <g transform="translate(50.73254117212672,33.52727272727273)">
        <rect fill="#dcd4ee" height="1.6" rx="0.3" ry="0.3" transform="skewX(-15)" width="3.4" x="0" y="0"/>
    </g>
    <text dominant-baseline="central" fill="#423F42" font-family="Consolas" font-size="1.2" text-anchor="middle" x="52.218181818181826" y="34.32727272727273">RX1</text>
    <rect fill="#4e4c4c" height="0.2" width="2.6" x="73.21818181818182" y="34.22727272727273"/>
    <g transform="translate(76.63254117212672,33.52727272727273)">
        <rect fill="#4e4c4c" height="1.6" rx="0.3" ry="0.3" transform="skewX(-15)" width="1.8" x="0" y="0"/>
    </g>
    <text dominant-baseline="central" fill="white" font-family="Consolas" font-size="1.2" text-anchor="middle" x="77.31818181818183" y="34.32727272727273">7</text>
    <g transform="translate(78.63254117212671,33.52727272727273)">
        <rect fill="#800000" height="1.6" rx="0.3" ry="0.3" transform="skewX(-15)" width="3.4" x="0" y="0"/>
    </g>
    <text dominant-baseline="central" fill="white" font-family="Consolas" font-size="1.2" text-anchor="middle" x="80.11818181818181" y="34.32727272727273">P11</text>
    <g transform="translate(82.23254117212672,33.52727272727273)">
        <rect fill="#dcd4ee" height="1.6" rx="0.3" ry="0.3" transform="skewX(-15)" width="3.4" x="0" y="0"/>
    </g>
    <text dominant-baseline="central" fill="#423F42" font-family="Consolas" font-size="1.2" text-anchor="middle" x="83.71818181818182" y="34.32727272727273">TX1</text>
    <rect fill="#4e4c4c" height="0.2" width="2.6" x="73.21818181818182" y="32.22727272727273"/>
    <g transform="translate(76.63254117212672,31.527272727272727)">
        <rect fill="#4e4c4c" height="1.6" rx="0.3" ry="0.3" transform="skewX(-15)" width="1.8" x="0" y="0"/>
    </g>
    <text dominant-baseline="central" fill="white" font-family="Consolas" font-size="1.2" text-anchor="middle" x="77.31818181818183" y="32.32727272727273">9</text>
    <g transform="translate(78.63254117212671,31.527272727272727)">
        <rect fill="#800000" height="1.6" rx="0.3" ry="0.3" transform="skewX(-15)" width="3.4" x="0" y="0"/>
    </g>
    <text dominant-baseline="central" fill="white" font-family="Consolas" font-size="1.2" text-anchor="middle" x="80.11818181818181" y="32.32727272727273">P24</text>
    <g transform="translate(82.23254117212672,31.527272727272727)">
        <rect fill="#afa35e" height="1.6" rx="0.3" ry="0.3" transform="skewX(-15)" width="3.4" x="0" y="0"/>
    </g>
    <text dominant-baseline="central" fill="#423F42" font-family="Consolas" font-size="1.2" text-anchor="middle" x="83.71818181818182" y="32.32727272727273">PWM4</text>
    <rect fill="#4e4c4c" height="0.2" width="2.6" x="73.21818181818182" y="30.227272727272727"/>
    <g transform="translate(76.63254117212672,29.527272727272727)">
        <rect fill="#4e4c4c" height="1.6" rx="0.3" ry="0.3" transform="skewX(-15)" width="1.8" x="0" y="0"/>
    </g>
    <text dominant-baseline="central" fill="white" font-family="Consolas" font-size="1.2" text-anchor="middle" x="77.31818181818183" y="30.327272727272728">11</text>
    <g transform="translate(78.63254117212671,29.527272727272727)">
        <rect fill="#800000" height="1.6" rx="0.3" ry="0.3" transform="skewX(-15)" width="3.4" x="0" y="0"/>
    </g>
    <text dominant-baseline="central" fill="white" font-family="Consolas" font-size="1.2" text-anchor="middle" x="80.11818181818181" y="30.327272727272728">P26</text>
    <g transform="translate(82.23254117212672,29.527272727272727)">
        <rect fill="#aeafc1" height="1.6" rx="0.3" ry="0.3" transform="skewX(-15)" width="3.4" x="0" y="0"/>
    </g>
    <text dominant-baseline="central" fill="#423F42" font-family="Consolas" font-size="1.2" text-anchor="middle" x="83.71818181818182" y="30.327272727272728">IRDA</text>
    <g transform="translate(85.83254117212672,29.527272727272727)">
        <rect fill="#afa35e" height="1.6" rx="0.3" ry="0.3" transform="skewX(-15)" width="3.4" x="0" y="0"/>
    </g>
    <text dominant-baseline="central" fill="#423F42" font-family="Consolas" font-size="1.2" text-anchor="middle" x="87.31818181818183" y="30.327272727272728">PWM5</text>
    <rect fill="#4e4c4c" height="0.2" width="2.6" x="61.81818181818182" y="18.227272727272727"/>
    <g transform="translate(58.03254117212672,17.527272727272727)">
        <rect fill="#800000" height="1.6" rx="0.3" ry="0.3" transform="skewX(-15)" width="3.4" x="0" y="0"/>
    </g>
    <text dominant-baseline="central" fill="white" font-family="Consolas" font-size="1.2" text-anchor="middle" x="59.51818181818182" y="18.327272727272728">P1</text>
    <g transform="translate(54.432541172126726,17.527272727272727)">
        <rect fill="#dcd4ee" height="1.6" rx="0.3" ry="0.3" transform="skewX(-15)" width="3.4" x="0" y="0"/>
    </g>
    <text dominant-baseline="central" fill="#423F42" font-family="Consolas" font-size="1.2" text-anchor="middle" x="55.91818181818183" y="18.327272727272728">RX2</text>
    <g transform="translate(50.832541172126724,17.527272727272727)">
        <rect fill="#f95" height="1.6" rx="0.3" ry="0.3" transform="skewX(-15)" width="3.4" x="0" y="0"/>
    </g>
    <text dominant-baseline="central" fill="#423F42" font-family="Consolas" font-size="1.2" text-anchor="middle" x="52.31818181818183" y="18.327272727272728">SDA2</text>
    <rect fill="#4e4c4c" height="0.2" width="2.6" x="61.81818181818182" y="16.227272727272727"/>
    <g transform="translate(58.03254117212672,15.527272727272727)">
        <rect fill="#800000" height="1.6" rx="0.3" ry="0.3" transform="skewX(-15)" width="3.4" x="0" y="0"/>
    </g>
    <text dominant-baseline="central" fill="white" font-family="Consolas" font-size="1.2" text-anchor="middle" x="59.51818181818182" y="16.327272727272728">P0</text>
    <g transform="translate(54.432541172126726,15.527272727272727)">
        <rect fill="#dcd4ee" height="1.6" rx="0.3" ry="0.3" transform="skewX(-15)" width="3.4" x="0" y="0"/>
    </g>
    <text dominant-baseline="central" fill="#423F42" font-family="Consolas" font-size="1.2" text-anchor="middle" x="55.91818181818183" y="16.327272727272728">TX2</text>
    <g transform="translate(50.832541172126724,15.527272727272727)">
        <rect fill="#f95" height="1.6" rx="0.3" ry="0.3" transform="skewX(-15)" width="3.4" x="0" y="0"/>
    </g>
    <text dominant-baseline="central" fill="#423F42" font-family="Consolas" font-size="1.2" text-anchor="middle" x="52.31818181818183" y="16.327272727272728">SCL2</text>
    <rect fill="#4e4c4c" height="0.2" width="2.6" x="61.81818181818182" y="21.227272727272727"/>
    <g transform="translate(58.03254117212672,20.527272727272727)">
        <rect fill="#800000" height="1.6" rx="0.3" ry="0.3" transform="skewX(-15)" width="3.4" x="0" y="0"/>
    </g>
    <text dominant-baseline="central" fill="white" font-family="Consolas" font-size="1.2" text-anchor="middle" x="59.51818181818182" y="21.327272727272728">P21</text>
    <g transform="translate(54.432541172126726,20.527272727272727)">
        <rect fill="#f95" height="1.6" rx="0.3" ry="0.3" transform="skewX(-15)" width="3.4" x="0" y="0"/>
    </g>
    <text dominant-baseline="central" fill="#423F42" font-family="Consolas" font-size="1.2" text-anchor="middle" x="55.91818181818183" y="21.327272727272728">SDA1</text>
</svg>
