<?xml version="1.0" encoding="utf-8" ?>
<svg xmlns="http://www.w3.org/2000/svg" xmlns:ev="http://www.w3.org/2001/xml-events" xmlns:xlink="http://www.w3.org/1999/xlink" baseProfile="full" height="500" version="1.1" viewBox="0,0,85.33333333333333,41.666666666666664" width="1024">
    <defs/>
    <rect fill="white" height="41.666666666666664" stroke="black" stroke-width="0.1" width="85.33333333333333" x="0" y="0"/>
    <linearGradient gradientUnits="objectBoundingBox" id="id1" x1="1.0" x2="0.0" y1="0.0" y2="1.0">
        <stop offset="0%" stop-color="#47a8cd"/>
        <stop offset="100%" stop-color="#008fb5"/>
    </linearGradient>
    <rect fill="url(#id1) none" height="23.9" stroke="#b5a739" stroke-width="0.1" width="15.9" x="36.31666666666666" y="5.433333333333331"/>
    <linearGradient gradientUnits="objectBoundingBox" id="id2" x1="1.0" x2="0.0" y1="0.0" y2="1.0">
        <stop offset="0%" stop-color="whitesmoke"/>
        <stop offset="100%" stop-color="#999"/>
    </linearGradient>
    <rect fill="url(#id2) none" height="15.8" rx="0.5" ry="0.5" width="13.6" x="37.46666666666667" y="12.333333333333332"/>
    <rect fill="#e5b472" height="1.2" id="esp12e-22.front.left.pin1.trace" width="0.7" x="36.266666666666666" y="13.283333333333331"/>
    <circle cx="36.266666666666666" cy="13.883333333333331" fill="#fff" id="esp12e-22.front.left.pin1.cast" r="0.35"/>
    <rect fill="#e5b472" height="1.2" id="esp12e-22.front.left.pin2.trace" width="0.7" x="36.266666666666666" y="15.283333333333331"/>
    <circle cx="36.266666666666666" cy="15.883333333333331" fill="#fff" id="esp12e-22.front.left.pin2.cast" r="0.35"/>
    <rect fill="#e5b472" height="1.2" id="esp12e-22.front.left.pin3.trace" width="0.7" x="36.266666666666666" y="17.28333333333333"/>
    <circle cx="36.266666666666666" cy="17.883333333333333" fill="#fff" id="esp12e-22.front.left.pin3.cast" r="0.35"/>
    <rect fill="#e5b472" height="1.2" id="esp12e-22.front.left.pin4.trace" width="0.7" x="36.266666666666666" y="19.28333333333333"/>
    <circle cx="36.266666666666666" cy="19.883333333333333" fill="#fff" id="esp12e-22.front.left.pin4.cast" r="0.35"/>
    <rect fill="#e5b472" height="1.2" id="esp12e-22.front.left.pin5.trace" width="0.7" x="36.266666666666666" y="21.28333333333333"/>
    <circle cx="36.266666666666666" cy="21.883333333333333" fill="#fff" id="esp12e-22.front.left.pin5.cast" r="0.35"/>
    <rect fill="#e5b472" height="1.2" id="esp12e-22.front.left.pin6.trace" width="0.7" x="36.266666666666666" y="23.28333333333333"/>
    <circle cx="36.266666666666666" cy="23.883333333333333" fill="#fff" id="esp12e-22.front.left.pin6.cast" r="0.35"/>
    <rect fill="#e5b472" height="1.2" id="esp12e-22.front.left.pin7.trace" width="0.7" x="36.266666666666666" y="25.28333333333333"/>
    <circle cx="36.266666666666666" cy="25.883333333333333" fill="#fff" id="esp12e-22.front.left.pin7.cast" r="0.35"/>
    <rect fill="#e5b472" height="1.2" id="esp12e-22.front.left.pin8.trace" width="0.7" x="36.266666666666666" y="27.28333333333333"/>
    <circle cx="36.266666666666666" cy="27.883333333333333" fill="#fff" id="esp12e-22.front.left.pin8.cast" r="0.35"/>
    <rect fill="#e5b472" height="1.2" id="esp12e-22.front.right.pin1.trace" width="0.7" x="51.56666666666666" y="13.283333333333331"/>
    <circle cx="52.266666666666666" cy="13.883333333333331" fill="#fff" id="esp12e-22.front.right.pin1.cast" r="0.35"/>
    <rect fill="#e5b472" height="1.2" id="esp12e-22.front.right.pin2.trace" width="0.7" x="51.56666666666666" y="15.283333333333331"/>
    <circle cx="52.266666666666666" cy="15.883333333333331" fill="#fff" id="esp12e-22.front.right.pin2.cast" r="0.35"/>
    <rect fill="#e5b472" height="1.2" id="esp12e-22.front.right.pin3.trace" width="0.7" x="51.56666666666666" y="17.28333333333333"/>
    <circle cx="52.266666666666666" cy="17.883333333333333" fill="#fff" id="esp12e-22.front.right.pin3.cast" r="0.35"/>
    <rect fill="#e5b472" height="1.2" id="esp12e-22.front.right.pin4.trace" width="0.7" x="51.56666666666666" y="19.28333333333333"/>
    <circle cx="52.266666666666666" cy="19.883333333333333" fill="#fff" id="esp12e-22.front.right.pin4.cast" r="0.35"/>
    <rect fill="#e5b472" height="1.2" id="esp12e-22.front.right.pin5.trace" width="0.7" x="51.56666666666666" y="21.28333333333333"/>
    <circle cx="52.266666666666666" cy="21.883333333333333" fill="#fff" id="esp12e-22.front.right.pin5.cast" r="0.35"/>
    <rect fill="#e5b472" height="1.2" id="esp12e-22.front.right.pin6.trace" width="0.7" x="51.56666666666666" y="23.28333333333333"/>
    <circle cx="52.266666666666666" cy="23.883333333333333" fill="#fff" id="esp12e-22.front.right.pin6.cast" r="0.35"/>
    <rect fill="#e5b472" height="1.2" id="esp12e-22.front.right.pin7.trace" width="0.7" x="51.56666666666666" y="25.28333333333333"/>
    <circle cx="52.266666666666666" cy="25.883333333333333" fill="#fff" id="esp12e-22.front.right.pin7.cast" r="0.35"/>
    <rect fill="#e5b472" height="1.2" id="esp12e-22.front.right.pin8.trace" width="0.7" x="51.56666666666666" y="27.28333333333333"/>
    <circle cx="52.266666666666666" cy="27.883333333333333" fill="#fff" id="esp12e-22.front.right.pin8.cast" r="0.35"/>
    <rect fill="#e5b472" height="0.7" id="r_pins_horz.pin1.trace" width="1.2" x="38.666666666666664" y="28.68333333333333"/>
    <circle cx="39.266666666666666" cy="29.383333333333333" fill="#fff" id="r_pins_horz.pin1.cast" r="0.35"/>
    <rect fill="#e5b472" height="0.7" id="r_pins_horz.pin2.trace" width="1.2" x="40.666666666666664" y="28.68333333333333"/>
    <circle cx="41.266666666666666" cy="29.383333333333333" fill="#fff" id="r_pins_horz.pin2.cast" r="0.35"/>
    <rect fill="#e5b472" height="0.7" id="r_pins_horz.pin3.trace" width="1.2" x="42.666666666666664" y="28.68333333333333"/>
    <circle cx="43.266666666666666" cy="29.383333333333333" fill="#fff" id="r_pins_horz.pin3.cast" r="0.35"/>
    <rect fill="#e5b472" height="0.7" id="r_pins_horz.pin4.trace" width="1.2" x="44.666666666666664" y="28.68333333333333"/>
    <circle cx="45.266666666666666" cy="29.383333333333333" fill="#fff" id="r_pins_horz.pin4.cast" r="0.35"/>
    <rect fill="#e5b472" height="0.7" id="r_pins_horz.pin5.trace" width="1.2" x="46.666666666666664" y="28.68333333333333"/>
    <circle cx="47.266666666666666" cy="29.383333333333333" fill="#fff" id="r_pins_horz.pin5.cast" r="0.35"/>
    <rect fill="#e5b472" height="0.7" id="r_pins_horz.pin6.trace" width="1.2" x="48.666666666666664" y="28.68333333333333"/>
    <circle cx="49.266666666666666" cy="29.383333333333333" fill="#fff" id="r_pins_horz.pin6.cast" r="0.35"/>
    <rect fill="#4e4c4c" height="2.0" width="0.2" x="39.166666666666664" y="29.58333333333333"/>
    <rect fill="#4e4c4c" height="0.2" width="0.2" x="38.96666666666667" y="31.383333333333333"/>
    <rect height="0.0" id="esp12e-22.front.down.label1.anchor" width="0.0" x="75.73333333333333" y="36.86666666666667"/>
    <rect fill="#4e4c4c" height="4.0" width="0.2" x="41.166666666666664" y="29.58333333333333"/>
    <rect fill="#4e4c4c" height="0.2" width="2.2" x="38.96666666666667" y="33.38333333333333"/>
    <rect height="0.0" id="esp12e-22.front.down.label2.anchor" width="0.0" x="75.73333333333333" y="38.86666666666667"/>
    <rect fill="#4e4c4c" height="6.0" width="0.2" x="43.166666666666664" y="29.58333333333333"/>
    <rect fill="#4e4c4c" height="0.2" width="4.2" x="38.96666666666667" y="35.38333333333333"/>
    <rect height="0.0" id="esp12e-22.front.down.label3.anchor" width="0.0" x="75.73333333333333" y="40.86666666666667"/>
    <rect fill="#4e4c4c" height="6.0" width="0.2" x="45.166666666666664" y="29.58333333333333"/>
    <rect fill="#4e4c4c" height="0.2" width="4.2" x="45.266666666666666" y="35.38333333333333"/>
    <rect height="0.0" id="esp12e-22.front.down.label4.anchor" width="0.0" x="85.23333333333333" y="40.86666666666667"/>
    <rect fill="#4e4c4c" height="4.0" width="0.2" x="47.166666666666664" y="29.58333333333333"/>
    <rect fill="#4e4c4c" height="0.2" width="2.2" x="47.266666666666666" y="33.38333333333333"/>
    <rect height="0.0" id="esp12e-22.front.down.label5.anchor" width="0.0" x="85.23333333333333" y="38.86666666666667"/>
    <rect fill="#4e4c4c" height="2.0" width="0.2" x="49.166666666666664" y="29.58333333333333"/>
    <rect fill="#4e4c4c" height="0.2" width="0.2" x="49.266666666666666" y="31.383333333333333"/>
    <rect height="0.0" id="esp12e-22.front.down.label6.anchor" width="0.0" x="85.23333333333333" y="36.86666666666667"/>
    <rect fill="#fff" height="0.15" width="15.0" x="36.766666666666666" y="11.583333333333332"/>
    <text fill="#fff" font-family="Consolas" font-size="1.0" x="43.266666666666666" y="10.883333333333331">WB3S</text>
    <rect fill="#58839b" height="5.2" width="0.5" x="37.36666666666667" y="6.183333333333331"/>
    <rect fill="#58839b" height="0.5" width="4.6" x="37.36666666666667" y="6.183333333333331"/>
    <rect fill="#58839b" height="5.2" width="0.5" x="39.56666666666666" y="6.183333333333331"/>
    <rect fill="#58839b" height="3.0" width="0.5" x="41.46666666666667" y="6.183333333333331"/>
    <rect fill="#58839b" height="0.5" width="3.0" x="41.46666666666667" y="8.68333333333333"/>
    <rect fill="#58839b" height="3.0" width="0.5" x="43.96666666666667" y="6.183333333333331"/>
    <rect fill="#58839b" height="0.5" width="2.7" x="43.96666666666667" y="6.183333333333331"/>
    <rect fill="#58839b" height="3.0" width="0.5" x="46.166666666666664" y="6.183333333333331"/>
    <rect fill="#58839b" height="0.5" width="3.0" x="46.166666666666664" y="8.68333333333333"/>
    <rect fill="#58839b" height="3.0" width="0.5" x="48.666666666666664" y="6.183333333333331"/>
    <rect fill="#58839b" height="0.5" width="2.5" x="48.666666666666664" y="6.183333333333331"/>
    <rect fill="#58839b" height="4.4" width="0.5" x="50.666666666666664" y="6.183333333333331"/>
    <rect fill="#4e4c4c" height="0.2" width="2.6" x="33.166666666666664" y="13.783333333333331"/>
    <g transform="translate(30.981026020611562,13.08333333333333)">
        <rect fill="#4e4c4c" height="1.6" rx="0.3" ry="0.3" transform="skewX(-15)" width="1.8" x="0" y="0"/>
    </g>
    <text dominant-baseline="central" fill="white" font-family="Consolas" font-size="1.2" text-anchor="middle" x="31.666666666666664" y="13.883333333333331">1</text>
    <g transform="translate(27.38102602061156,13.08333333333333)">
        <rect fill="#ed602e" height="1.6" rx="0.3" ry="0.3" transform="skewX(-15)" width="3.4" x="0" y="0"/>
    </g>
    <text dominant-baseline="central" fill="#423F42" font-family="Consolas" font-size="1.2" text-anchor="middle" x="28.866666666666664" y="13.883333333333331">CEN</text>
    <rect fill="#4e4c4c" height="0.2" width="2.6" x="33.166666666666664" y="15.783333333333331"/>
    <g transform="translate(30.981026020611562,15.08333333333333)">
        <rect fill="#4e4c4c" height="1.6" rx="0.3" ry="0.3" transform="skewX(-15)" width="1.8" x="0" y="0"/>
    </g>
    <text dominant-baseline="central" fill="white" font-family="Consolas" font-size="1.2" text-anchor="middle" x="31.666666666666664" y="15.883333333333331">2</text>
    <g transform="translate(27.38102602061156,15.08333333333333)">
        <rect fill="#800000" height="1.6" rx="0.3" ry="0.3" transform="skewX(-15)" width="3.4" x="0" y="0"/>
    </g>
    <text dominant-baseline="central" fill="white" font-family="Consolas" font-size="1.2" text-anchor="middle" x="28.866666666666664" y="15.883333333333331">P23</text>
    <g transform="translate(23.781026020611563,15.08333333333333)">
        <rect fill="#8ad039" height="1.6" rx="0.3" ry="0.3" transform="skewX(-15)" width="3.4" x="0" y="0"/>
    </g>
    <text dominant-baseline="central" fill="#423F42" font-family="Consolas" font-size="1.2" text-anchor="middle" x="25.266666666666666" y="15.883333333333331">ADC3</text>
    <g transform="translate(20.181026020611565,15.08333333333333)">
        <rect fill="#ffe680" height="1.6" rx="0.3" ry="0.3" transform="skewX(-15)" width="3.4" x="0" y="0"/>
    </g>
    <text dominant-baseline="central" fill="#423F42" font-family="Consolas" font-size="1.2" text-anchor="middle" x="21.666666666666668" y="15.883333333333331">TDO</text>
    <g transform="translate(16.581026020611564,15.08333333333333)">
        <rect fill="#f68a1e" height="1.6" rx="0.3" ry="0.3" transform="skewX(-15)" width="3.4" x="0" y="0"/>
    </g>
    <text dominant-baseline="central" fill="#423F42" font-family="Consolas" font-size="1.2" text-anchor="middle" x="18.066666666666666" y="15.883333333333331">FSO</text>
    <rect fill="#4e4c4c" height="0.2" width="2.6" x="33.166666666666664" y="17.78333333333333"/>
    <g transform="translate(30.981026020611562,17.083333333333332)">
        <rect fill="#4e4c4c" height="1.6" rx="0.3" ry="0.3" transform="skewX(-15)" width="1.8" x="0" y="0"/>
    </g>
    <text dominant-baseline="central" fill="white" font-family="Consolas" font-size="1.2" text-anchor="middle" x="31.666666666666664" y="17.883333333333333">3</text>
    <rect fill="#4e4c4c" height="0.2" width="2.6" x="33.166666666666664" y="19.78333333333333"/>
    <g transform="translate(30.981026020611562,19.083333333333332)">
        <rect fill="#4e4c4c" height="1.6" rx="0.3" ry="0.3" transform="skewX(-15)" width="1.8" x="0" y="0"/>
    </g>
    <text dominant-baseline="central" fill="white" font-family="Consolas" font-size="1.2" text-anchor="middle" x="31.666666666666664" y="19.883333333333333">4</text>
    <g transform="translate(27.38102602061156,19.083333333333332)">
        <rect fill="#800000" height="1.6" rx="0.3" ry="0.3" transform="skewX(-15)" width="3.4" x="0" y="0"/>
    </g>
    <text dominant-baseline="central" fill="white" font-family="Consolas" font-size="1.2" text-anchor="middle" x="28.866666666666664" y="19.883333333333333">P14</text>
    <rect fill="#4e4c4c" height="0.2" width="2.6" x="33.166666666666664" y="21.78333333333333"/>
    <g transform="translate(30.981026020611562,21.083333333333332)">
        <rect fill="#4e4c4c" height="1.6" rx="0.3" ry="0.3" transform="skewX(-15)" width="1.8" x="0" y="0"/>
    </g>
    <text dominant-baseline="central" fill="white" font-family="Consolas" font-size="1.2" text-anchor="middle" x="31.666666666666664" y="21.883333333333333">5</text>
    <g transform="translate(27.38102602061156,21.083333333333332)">
        <rect fill="#800000" height="1.6" rx="0.3" ry="0.3" transform="skewX(-15)" width="3.4" x="0" y="0"/>
    </g>
    <text dominant-baseline="central" fill="white" font-family="Consolas" font-size="1.2" text-anchor="middle" x="28.866666666666664" y="21.883333333333333">P26</text>
    <g transform="translate(23.781026020611563,21.083333333333332)">
        <rect fill="#aeafc1" height="1.6" rx="0.3" ry="0.3" transform="skewX(-15)" width="3.4" x="0" y="0"/>
    </g>
    <text dominant-baseline="central" fill="#423F42" font-family="Consolas" font-size="1.2" text-anchor="middle" x="25.266666666666666" y="21.883333333333333">IRDA</text>
    <g transform="translate(20.181026020611565,21.083333333333332)">
        <rect fill="#afa35e" height="1.6" rx="0.3" ry="0.3" transform="skewX(-15)" width="3.4" x="0" y="0"/>
    </g>
    <text dominant-baseline="central" fill="#423F42" font-family="Consolas" font-size="1.2" text-anchor="middle" x="21.666666666666668" y="21.883333333333333">PWM5</text>
    <rect fill="#4e4c4c" height="0.2" width="2.6" x="33.166666666666664" y="23.78333333333333"/>
    <g transform="translate(30.981026020611562,23.083333333333332)">
        <rect fill="#4e4c4c" height="1.6" rx="0.3" ry="0.3" transform="skewX(-15)" width="1.8" x="0" y="0"/>
    </g>
    <text dominant-baseline="central" fill="white" font-family="Consolas" font-size="1.2" text-anchor="middle" x="31.666666666666664" y="23.883333333333333">6</text>
    <g transform="translate(27.38102602061156,23.083333333333332)">
        <rect fill="#800000" height="1.6" rx="0.3" ry="0.3" transform="skewX(-15)" width="3.4" x="0" y="0"/>
    </g>
    <text dominant-baseline="central" fill="white" font-family="Consolas" font-size="1.2" text-anchor="middle" x="28.866666666666664" y="23.883333333333333">P24</text>
    <g transform="translate(23.781026020611563,23.083333333333332)">
        <rect fill="#afa35e" height="1.6" rx="0.3" ry="0.3" transform="skewX(-15)" width="3.4" x="0" y="0"/>
    </g>
    <text dominant-baseline="central" fill="#423F42" font-family="Consolas" font-size="1.2" text-anchor="middle" x="25.266666666666666" y="23.883333333333333">PWM4</text>
    <rect fill="#4e4c4c" height="0.2" width="2.6" x="33.166666666666664" y="25.78333333333333"/>
    <g transform="translate(30.981026020611562,25.083333333333332)">
        <rect fill="#4e4c4c" height="1.6" rx="0.3" ry="0.3" transform="skewX(-15)" width="1.8" x="0" y="0"/>
    </g>
    <text dominant-baseline="central" fill="white" font-family="Consolas" font-size="1.2" text-anchor="middle" x="31.666666666666664" y="25.883333333333333">7</text>
    <g transform="translate(27.38102602061156,25.083333333333332)">
        <rect fill="#800000" height="1.6" rx="0.3" ry="0.3" transform="skewX(-15)" width="3.4" x="0" y="0"/>
    </g>
    <text dominant-baseline="central" fill="white" font-family="Consolas" font-size="1.2" text-anchor="middle" x="28.866666666666664" y="25.883333333333333">P6</text>
    <g transform="translate(23.781026020611563,25.083333333333332)">
        <rect fill="#afa35e" height="1.6" rx="0.3" ry="0.3" transform="skewX(-15)" width="3.4" x="0" y="0"/>
    </g>
    <text dominant-baseline="central" fill="#423F42" font-family="Consolas" font-size="1.2" text-anchor="middle" x="25.266666666666666" y="25.883333333333333">PWM0</text>
    <rect fill="#4e4c4c" height="0.2" width="2.6" x="33.166666666666664" y="27.78333333333333"/>
    <g transform="translate(30.981026020611562,27.083333333333332)">
        <rect fill="#4e4c4c" height="1.6" rx="0.3" ry="0.3" transform="skewX(-15)" width="1.8" x="0" y="0"/>
    </g>
    <text dominant-baseline="central" fill="white" font-family="Consolas" font-size="1.2" text-anchor="middle" x="31.666666666666664" y="27.883333333333333">8</text>
    <g transform="translate(27.38102602061156,27.083333333333332)">
        <rect fill="#cd3c24" height="1.6" rx="0.3" ry="0.3" transform="skewX(-15)" width="3.4" x="0" y="0"/>
    </g>
    <text dominant-baseline="central" fill="white" font-family="Consolas" font-size="1.2" text-anchor="middle" x="28.866666666666664" y="27.883333333333333">3V3</text>
    <rect fill="#4e4c4c" height="0.2" width="2.6" x="52.766666666666666" y="27.78333333333333"/>
    <g transform="translate(56.18102602061157,27.083333333333332)">
        <rect fill="#4e4c4c" height="1.6" rx="0.3" ry="0.3" transform="skewX(-15)" width="1.8" x="0" y="0"/>
    </g>
    <text dominant-baseline="central" fill="white" font-family="Consolas" font-size="1.2" text-anchor="middle" x="56.86666666666667" y="27.883333333333333">9</text>
    <g transform="translate(58.18102602061157,27.083333333333332)">
        <rect fill="#000" height="1.6" rx="0.3" ry="0.3" transform="skewX(-15)" width="3.4" x="0" y="0"/>
    </g>
    <text dominant-baseline="central" fill="white" font-family="Consolas" font-size="1.2" text-anchor="middle" x="59.66666666666667" y="27.883333333333333">GND</text>
    <rect fill="#4e4c4c" height="0.2" width="2.6" x="52.766666666666666" y="25.78333333333333"/>
    <g transform="translate(56.18102602061157,25.083333333333332)">
        <rect fill="#4e4c4c" height="1.6" rx="0.3" ry="0.3" transform="skewX(-15)" width="1.8" x="0" y="0"/>
    </g>
    <text dominant-baseline="central" fill="white" font-family="Consolas" font-size="1.2" text-anchor="middle" x="56.86666666666667" y="25.883333333333333">10</text>
    <g transform="translate(58.18102602061157,25.083333333333332)">
        <rect fill="#800000" height="1.6" rx="0.3" ry="0.3" transform="skewX(-15)" width="3.4" x="0" y="0"/>
    </g>
    <text dominant-baseline="central" fill="white" font-family="Consolas" font-size="1.2" text-anchor="middle" x="59.66666666666667" y="25.883333333333333">P7</text>
    <g transform="translate(61.78102602061157,25.083333333333332)">
        <rect fill="#afa35e" height="1.6" rx="0.3" ry="0.3" transform="skewX(-15)" width="3.4" x="0" y="0"/>
    </g>
    <text dominant-baseline="central" fill="#423F42" font-family="Consolas" font-size="1.2" text-anchor="middle" x="63.26666666666667" y="25.883333333333333">PWM1</text>
    <rect fill="#4e4c4c" height="0.2" width="2.6" x="52.766666666666666" y="23.78333333333333"/>
    <g transform="translate(56.18102602061157,23.083333333333332)">
        <rect fill="#4e4c4c" height="1.6" rx="0.3" ry="0.3" transform="skewX(-15)" width="1.8" x="0" y="0"/>
    </g>
    <text dominant-baseline="central" fill="white" font-family="Consolas" font-size="1.2" text-anchor="middle" x="56.86666666666667" y="23.883333333333333">11</text>
    <g transform="translate(58.18102602061157,23.083333333333332)">
        <rect fill="#800000" height="1.6" rx="0.3" ry="0.3" transform="skewX(-15)" width="3.4" x="0" y="0"/>
    </g>
    <text dominant-baseline="central" fill="white" font-family="Consolas" font-size="1.2" text-anchor="middle" x="59.66666666666667" y="23.883333333333333">P0</text>
    <g transform="translate(61.78102602061157,23.083333333333332)">
        <rect fill="#dcd4ee" height="1.6" rx="0.3" ry="0.3" transform="skewX(-15)" width="3.4" x="0" y="0"/>
    </g>
    <text dominant-baseline="central" fill="#423F42" font-family="Consolas" font-size="1.2" text-anchor="middle" x="63.26666666666667" y="23.883333333333333">TX2</text>
    <g transform="translate(65.38102602061156,23.083333333333332)">
        <rect fill="#f95" height="1.6" rx="0.3" ry="0.3" transform="skewX(-15)" width="3.4" x="0" y="0"/>
    </g>
    <text dominant-baseline="central" fill="#423F42" font-family="Consolas" font-size="1.2" text-anchor="middle" x="66.86666666666666" y="23.883333333333333">SCL2</text>
    <rect fill="#4e4c4c" height="0.2" width="2.6" x="52.766666666666666" y="21.78333333333333"/>
    <g transform="translate(56.18102602061157,21.083333333333332)">
        <rect fill="#4e4c4c" height="1.6" rx="0.3" ry="0.3" transform="skewX(-15)" width="1.8" x="0" y="0"/>
    </g>
    <text dominant-baseline="central" fill="white" font-family="Consolas" font-size="1.2" text-anchor="middle" x="56.86666666666667" y="21.883333333333333">12</text>
    <g transform="translate(58.18102602061157,21.083333333333332)">
        <rect fill="#800000" height="1.6" rx="0.3" ry="0.3" transform="skewX(-15)" width="3.4" x="0" y="0"/>
    </g>
    <text dominant-baseline="central" fill="white" font-family="Consolas" font-size="1.2" text-anchor="middle" x="59.66666666666667" y="21.883333333333333">P1</text>
    <g transform="translate(61.78102602061157,21.083333333333332)">
        <rect fill="#dcd4ee" height="1.6" rx="0.3" ry="0.3" transform="skewX(-15)" width="3.4" x="0" y="0"/>
    </g>
    <text dominant-baseline="central" fill="#423F42" font-family="Consolas" font-size="1.2" text-anchor="middle" x="63.26666666666667" y="21.883333333333333">RX2</text>
    <g transform="translate(65.38102602061156,21.083333333333332)">
        <rect fill="#f95" height="1.6" rx="0.3" ry="0.3" transform="skewX(-15)" width="3.4" x="0" y="0"/>
    </g>
    <text dominant-baseline="central" fill="#423F42" font-family="Consolas" font-size="1.2" text-anchor="middle" x="66.86666666666666" y="21.883333333333333">SDA2</text>
    <rect fill="#4e4c4c" height="0.2" width="2.6" x="52.766666666666666" y="19.78333333333333"/>
    <g transform="translate(56.18102602061157,19.083333333333332)">
        <rect fill="#4e4c4c" height="1.6" rx="0.3" ry="0.3" transform="skewX(-15)" width="1.8" x="0" y="0"/>
    </g>
    <text dominant-baseline="central" fill="white" font-family="Consolas" font-size="1.2" text-anchor="middle" x="56.86666666666667" y="19.883333333333333">13</text>
    <g transform="translate(58.18102602061157,19.083333333333332)">
        <rect fill="#800000" height="1.6" rx="0.3" ry="0.3" transform="skewX(-15)" width="3.4" x="0" y="0"/>
    </g>
    <text dominant-baseline="central" fill="white" font-family="Consolas" font-size="1.2" text-anchor="middle" x="59.66666666666667" y="19.883333333333333">P9</text>
    <g transform="translate(61.78102602061157,19.083333333333332)">
        <rect fill="#afa35e" height="1.6" rx="0.3" ry="0.3" transform="skewX(-15)" width="3.4" x="0" y="0"/>
    </g>
    <text dominant-baseline="central" fill="#423F42" font-family="Consolas" font-size="1.2" text-anchor="middle" x="63.26666666666667" y="19.883333333333333">PWM3</text>
    <rect fill="#4e4c4c" height="0.2" width="2.6" x="52.766666666666666" y="17.78333333333333"/>
    <g transform="translate(56.18102602061157,17.083333333333332)">
        <rect fill="#4e4c4c" height="1.6" rx="0.3" ry="0.3" transform="skewX(-15)" width="1.8" x="0" y="0"/>
    </g>
    <text dominant-baseline="central" fill="white" font-family="Consolas" font-size="1.2" text-anchor="middle" x="56.86666666666667" y="17.883333333333333">14</text>
    <g transform="translate(58.18102602061157,17.083333333333332)">
        <rect fill="#800000" height="1.6" rx="0.3" ry="0.3" transform="skewX(-15)" width="3.4" x="0" y="0"/>
    </g>
    <text dominant-baseline="central" fill="white" font-family="Consolas" font-size="1.2" text-anchor="middle" x="59.66666666666667" y="17.883333333333333">P8</text>
    <g transform="translate(61.78102602061157,17.083333333333332)">
        <rect fill="#afa35e" height="1.6" rx="0.3" ry="0.3" transform="skewX(-15)" width="3.4" x="0" y="0"/>
    </g>
    <text dominant-baseline="central" fill="#423F42" font-family="Consolas" font-size="1.2" text-anchor="middle" x="63.26666666666667" y="17.883333333333333">PWM2</text>
    <rect fill="#4e4c4c" height="0.2" width="2.6" x="52.766666666666666" y="15.783333333333331"/>
    <g transform="translate(56.18102602061157,15.08333333333333)">
        <rect fill="#4e4c4c" height="1.6" rx="0.3" ry="0.3" transform="skewX(-15)" width="1.8" x="0" y="0"/>
    </g>
    <text dominant-baseline="central" fill="white" font-family="Consolas" font-size="1.2" text-anchor="middle" x="56.86666666666667" y="15.883333333333331">15</text>
    <g transform="translate(58.18102602061157,15.08333333333333)">
        <rect fill="#800000" height="1.6" rx="0.3" ry="0.3" transform="skewX(-15)" width="3.4" x="0" y="0"/>
    </g>
    <text dominant-baseline="central" fill="white" font-family="Consolas" font-size="1.2" text-anchor="middle" x="59.66666666666667" y="15.883333333333331">P10</text>
    <g transform="translate(61.78102602061157,15.08333333333333)">
        <rect fill="#dcd4ee" height="1.6" rx="0.3" ry="0.3" transform="skewX(-15)" width="3.4" x="0" y="0"/>
    </g>
    <text dominant-baseline="central" fill="#423F42" font-family="Consolas" font-size="1.2" text-anchor="middle" x="63.26666666666667" y="15.883333333333331">RX1</text>
    <rect fill="#4e4c4c" height="0.2" width="2.6" x="52.766666666666666" y="13.783333333333331"/>
    <g transform="translate(56.18102602061157,13.08333333333333)">
        <rect fill="#4e4c4c" height="1.6" rx="0.3" ry="0.3" transform="skewX(-15)" width="1.8" x="0" y="0"/>
    </g>
    <text dominant-baseline="central" fill="white" font-family="Consolas" font-size="1.2" text-anchor="middle" x="56.86666666666667" y="13.883333333333331">16</text>
    <g transform="translate(58.18102602061157,13.08333333333333)">
        <rect fill="#800000" height="1.6" rx="0.3" ry="0.3" transform="skewX(-15)" width="3.4" x="0" y="0"/>
    </g>
    <text dominant-baseline="central" fill="white" font-family="Consolas" font-size="1.2" text-anchor="middle" x="59.66666666666667" y="13.883333333333331">P11</text>
    <g transform="translate(61.78102602061157,13.08333333333333)">
        <rect fill="#dcd4ee" height="1.6" rx="0.3" ry="0.3" transform="skewX(-15)" width="3.4" x="0" y="0"/>
    </g>
    <text dominant-baseline="central" fill="#423F42" font-family="Consolas" font-size="1.2" text-anchor="middle" x="63.26666666666667" y="13.883333333333331">TX1</text>
    <rect fill="#4e4c4c" height="0.2" width="2.6" x="36.36666666666667" y="31.383333333333333"/>
    <g transform="translate(34.18102602061157,30.683333333333334)">
        <rect fill="#4e4c4c" height="1.6" rx="0.3" ry="0.3" transform="skewX(-15)" width="1.8" x="0" y="0"/>
    </g>
    <text dominant-baseline="central" fill="white" font-family="Consolas" font-size="1.2" text-anchor="middle" x="34.86666666666667" y="31.483333333333334">17</text>
    <g transform="translate(30.581026020611564,30.683333333333334)">
        <rect fill="#800000" height="1.6" rx="0.3" ry="0.3" transform="skewX(-15)" width="3.4" x="0" y="0"/>
    </g>
    <text dominant-baseline="central" fill="white" font-family="Consolas" font-size="1.2" text-anchor="middle" x="32.06666666666667" y="31.483333333333334">P23</text>
    <g transform="translate(26.981026020611562,30.683333333333334)">
        <rect fill="#8ad039" height="1.6" rx="0.3" ry="0.3" transform="skewX(-15)" width="3.4" x="0" y="0"/>
    </g>
    <text dominant-baseline="central" fill="#423F42" font-family="Consolas" font-size="1.2" text-anchor="middle" x="28.466666666666665" y="31.483333333333334">ADC3</text>
    <g transform="translate(23.38102602061156,30.683333333333334)">
        <rect fill="#ffe680" height="1.6" rx="0.3" ry="0.3" transform="skewX(-15)" width="3.4" x="0" y="0"/>
    </g>
    <text dominant-baseline="central" fill="#423F42" font-family="Consolas" font-size="1.2" text-anchor="middle" x="24.866666666666664" y="31.483333333333334">TDO</text>
    <g transform="translate(19.781026020611563,30.683333333333334)">
        <rect fill="#f68a1e" height="1.6" rx="0.3" ry="0.3" transform="skewX(-15)" width="3.4" x="0" y="0"/>
    </g>
    <text dominant-baseline="central" fill="#423F42" font-family="Consolas" font-size="1.2" text-anchor="middle" x="21.266666666666666" y="31.483333333333334">FSO</text>
    <rect fill="#4e4c4c" height="0.2" width="2.6" x="36.36666666666667" y="33.38333333333333"/>
    <g transform="translate(34.18102602061157,32.68333333333334)">
        <rect fill="#4e4c4c" height="1.6" rx="0.3" ry="0.3" transform="skewX(-15)" width="1.8" x="0" y="0"/>
    </g>
    <text dominant-baseline="central" fill="white" font-family="Consolas" font-size="1.2" text-anchor="middle" x="34.86666666666667" y="33.483333333333334">18</text>
    <g transform="translate(30.581026020611564,32.68333333333334)">
        <rect fill="#800000" height="1.6" rx="0.3" ry="0.3" transform="skewX(-15)" width="3.4" x="0" y="0"/>
    </g>
    <text dominant-baseline="central" fill="white" font-family="Consolas" font-size="1.2" text-anchor="middle" x="32.06666666666667" y="33.483333333333334">P22</text>
    <g transform="translate(26.981026020611562,32.68333333333334)">
        <rect fill="#ffe680" height="1.6" rx="0.3" ry="0.3" transform="skewX(-15)" width="3.4" x="0" y="0"/>
    </g>
    <text dominant-baseline="central" fill="#423F42" font-family="Consolas" font-size="1.2" text-anchor="middle" x="28.466666666666665" y="33.483333333333334">TDI</text>
    <g transform="translate(23.38102602061156,32.68333333333334)">
        <rect fill="#f68a1e" height="1.6" rx="0.3" ry="0.3" transform="skewX(-15)" width="3.4" x="0" y="0"/>
    </g>
    <text dominant-baseline="central" fill="#423F42" font-family="Consolas" font-size="1.2" text-anchor="middle" x="24.866666666666664" y="33.483333333333334">FSI</text>
    <rect fill="#4e4c4c" height="0.2" width="2.6" x="36.36666666666667" y="35.38333333333333"/>
    <g transform="translate(34.18102602061157,34.68333333333334)">
        <rect fill="#4e4c4c" height="1.6" rx="0.3" ry="0.3" transform="skewX(-15)" width="1.8" x="0" y="0"/>
    </g>
    <text dominant-baseline="central" fill="white" font-family="Consolas" font-size="1.2" text-anchor="middle" x="34.86666666666667" y="35.483333333333334">19</text>
    <g transform="translate(30.581026020611564,34.68333333333334)">
        <rect fill="#800000" height="1.6" rx="0.3" ry="0.3" transform="skewX(-15)" width="3.4" x="0" y="0"/>
    </g>
    <text dominant-baseline="central" fill="white" font-family="Consolas" font-size="1.2" text-anchor="middle" x="32.06666666666667" y="35.483333333333334">P21</text>
    <g transform="translate(26.981026020611562,34.68333333333334)">
        <rect fill="#f95" height="1.6" rx="0.3" ry="0.3" transform="skewX(-15)" width="3.4" x="0" y="0"/>
    </g>
    <text dominant-baseline="central" fill="#423F42" font-family="Consolas" font-size="1.2" text-anchor="middle" x="28.466666666666665" y="35.483333333333334">SDA1</text>
    <g transform="translate(23.38102602061156,34.68333333333334)">
        <rect fill="#ffe680" height="1.6" rx="0.3" ry="0.3" transform="skewX(-15)" width="3.4" x="0" y="0"/>
    </g>
    <text dominant-baseline="central" fill="#423F42" font-family="Consolas" font-size="1.2" text-anchor="middle" x="24.866666666666664" y="35.483333333333334">TMS</text>
    <g transform="translate(19.781026020611563,34.68333333333334)">
        <rect fill="#f68a1e" height="1.6" rx="0.3" ry="0.3" transform="skewX(-15)" width="3.4" x="0" y="0"/>
    </g>
    <text dominant-baseline="middle" fill="#423F42" font-family="Consolas" font-size="1.2" text-anchor="middle" x="21.266666666666666" y="34.47083333333334">___</text>
    <text dominant-baseline="central" fill="#423F42" font-family="Consolas" font-size="1.2" text-anchor="middle" x="21.266666666666666" y="35.58958333333334">FCS</text>
    <rect fill="#4e4c4c" height="0.2" width="2.6" x="49.46666666666667" y="35.38333333333333"/>
    <g transform="translate(52.881026020611564,34.68333333333334)">
        <rect fill="#4e4c4c" height="1.6" rx="0.3" ry="0.3" transform="skewX(-15)" width="1.8" x="0" y="0"/>
    </g>
    <text dominant-baseline="central" fill="white" font-family="Consolas" font-size="1.2" text-anchor="middle" x="53.56666666666666" y="35.483333333333334">20</text>
    <g transform="translate(54.881026020611564,34.68333333333334)">
        <rect fill="#800000" height="1.6" rx="0.3" ry="0.3" transform="skewX(-15)" width="3.4" x="0" y="0"/>
    </g>
    <text dominant-baseline="central" fill="white" font-family="Consolas" font-size="1.2" text-anchor="middle" x="56.36666666666667" y="35.483333333333334">P20</text>
    <g transform="translate(58.48102602061157,34.68333333333334)">
        <rect fill="#f95" height="1.6" rx="0.3" ry="0.3" transform="skewX(-15)" width="3.4" x="0" y="0"/>
    </g>
    <text dominant-baseline="central" fill="#423F42" font-family="Consolas" font-size="1.2" text-anchor="middle" x="59.966666666666676" y="35.483333333333334">SCL1</text>
    <g transform="translate(62.08102602061157,34.68333333333334)">
        <rect fill="#ffe680" height="1.6" rx="0.3" ry="0.3" transform="skewX(-15)" width="3.4" x="0" y="0"/>
    </g>
    <text dominant-baseline="central" fill="#423F42" font-family="Consolas" font-size="1.2" text-anchor="middle" x="63.56666666666667" y="35.483333333333334">TCK</text>
    <g transform="translate(65.68102602061157,34.68333333333334)">
        <rect fill="#f68a1e" height="1.6" rx="0.3" ry="0.3" transform="skewX(-15)" width="3.4" x="0" y="0"/>
    </g>
    <text dominant-baseline="central" fill="#423F42" font-family="Consolas" font-size="1.2" text-anchor="middle" x="67.16666666666667" y="35.483333333333334">FSCK</text>
    <rect fill="#4e4c4c" height="0.2" width="2.6" x="49.46666666666667" y="33.38333333333333"/>
    <g transform="translate(52.881026020611564,32.68333333333334)">
        <rect fill="#4e4c4c" height="1.6" rx="0.3" ry="0.3" transform="skewX(-15)" width="1.8" x="0" y="0"/>
    </g>
    <text dominant-baseline="central" fill="white" font-family="Consolas" font-size="1.2" text-anchor="middle" x="53.56666666666666" y="33.483333333333334">21</text>
    <rect fill="#4e4c4c" height="0.2" width="2.6" x="49.46666666666667" y="31.383333333333333"/>
    <g transform="translate(52.881026020611564,30.683333333333334)">
        <rect fill="#4e4c4c" height="1.6" rx="0.3" ry="0.3" transform="skewX(-15)" width="1.8" x="0" y="0"/>
    </g>
    <text dominant-baseline="central" fill="white" font-family="Consolas" font-size="1.2" text-anchor="middle" x="53.56666666666666" y="31.483333333333334">22</text>
</svg>
