<?xml version="1.0" encoding="utf-8" ?>
<svg xmlns="http://www.w3.org/2000/svg" xmlns:ev="http://www.w3.org/2001/xml-events" xmlns:xlink="http://www.w3.org/1999/xlink" baseProfile="full" height="500" version="1.1" viewBox="0,0,97.52380952380952,47.61904761904762" width="1024">
    <defs/>
    <rect fill="white" height="47.61904761904762" stroke="black" stroke-width="0.1" width="97.52380952380952" x="0" y="0"/>
    <linearGradient gradientUnits="objectBoundingBox" id="id1" x1="1.0" x2="0.0" y1="0.0" y2="1.0">
        <stop offset="0%" stop-color="#47a8cd"/>
        <stop offset="100%" stop-color="#008fb5"/>
    </linearGradient>
    <rect fill="url(#id1) none" height="17.799999999999997" stroke="#b5a739" stroke-width="0.1" width="14.9" x="19.530952380952378" y="11.45952380952381"/>
    <rect fill="#b5a739" height="0.1" width="1.6" x="19.480952380952377" y="25.75952380952381"/>
    <rect fill="#b5a739" height="3.45" width="0.1" x="21.08095238095238" y="25.75952380952381"/>
    <rect fill="#fff" height="3.55" width="1.7" x="19.380952380952376" y="25.859523809523807"/>
    <rect fill="#b5a739" height="0.1" width="1.6" x="32.78095238095238" y="25.75952380952381"/>
    <rect fill="#b5a739" height="3.45" width="0.1" x="32.78095238095238" y="25.75952380952381"/>
    <rect fill="#fff" height="3.55" width="1.7" x="32.88095238095238" y="25.859523809523807"/>
    <linearGradient gradientUnits="objectBoundingBox" id="id2" x1="1.0" x2="0.0" y1="0.0" y2="1.0">
        <stop offset="0%" stop-color="whitesmoke"/>
        <stop offset="100%" stop-color="#999"/>
    </linearGradient>
    <rect fill="url(#id2) none" height="8.0" rx="0.5" ry="0.5" width="14.4" x="19.780952380952378" y="17.40952380952381"/>
    <rect fill="#e5b472" height="2.5" id="r_pins_horz.pin1.pad" rx="0.2" ry="0.2" width="1.0" x="22.480952380952377" y="26.45952380952381"/>
    <rect fill="#e5b472" height="2.5" id="r_pins_horz.pin2.pad" rx="0.2" ry="0.2" width="1.0" x="24.480952380952377" y="26.45952380952381"/>
    <rect fill="#e5b472" height="2.5" id="r_pins_horz.pin3.pad" rx="0.2" ry="0.2" width="1.0" x="26.480952380952377" y="26.45952380952381"/>
    <rect fill="#e5b472" height="2.5" id="r_pins_horz.pin4.pad" rx="0.2" ry="0.2" width="1.0" x="28.480952380952377" y="26.45952380952381"/>
    <rect fill="#e5b472" height="2.5" id="r_pins_horz.pin5.pad" rx="0.2" ry="0.2" width="1.0" x="30.480952380952377" y="26.45952380952381"/>
    <rect fill="#4e4c4c" height="2.0" width="0.2" x="22.880952380952376" y="29.509523809523806"/>
    <rect fill="#4e4c4c" height="0.2" width="0.2" x="22.680952380952377" y="31.30952380952381"/>
    <rect height="0.0" id="tuya2.front.pins.label1.anchor" width="0.0" x="42.66190476190475" y="42.81904761904762"/>
    <rect fill="#4e4c4c" height="4.0" width="0.2" x="24.88095238095238" y="29.509523809523806"/>
    <rect fill="#4e4c4c" height="0.2" width="2.2" x="22.680952380952377" y="33.30952380952381"/>
    <rect height="0.0" id="tuya2.front.pins.label2.anchor" width="0.0" x="42.66190476190475" y="44.81904761904762"/>
    <rect fill="#4e4c4c" height="6.0" width="0.2" x="26.88095238095238" y="29.509523809523806"/>
    <rect fill="#4e4c4c" height="0.2" width="4.2" x="22.680952380952377" y="35.30952380952381"/>
    <rect height="0.0" id="tuya2.front.pins.label3.anchor" width="0.0" x="42.66190476190475" y="46.81904761904762"/>
    <rect fill="#4e4c4c" height="6.0" width="0.2" x="28.88095238095238" y="29.509523809523806"/>
    <rect fill="#4e4c4c" height="0.2" width="4.2" x="28.980952380952377" y="35.30952380952381"/>
    <rect height="0.0" id="tuya2.front.pins.label4.anchor" width="0.0" x="52.16190476190475" y="46.81904761904762"/>
    <rect fill="#4e4c4c" height="4.0" width="0.2" x="30.88095238095238" y="29.509523809523806"/>
    <rect fill="#4e4c4c" height="0.2" width="2.2" x="30.980952380952377" y="33.30952380952381"/>
    <rect height="0.0" id="tuya2.front.pins.label5.anchor" width="0.0" x="52.16190476190475" y="44.81904761904762"/>
    <text fill="#fff" font-family="Consolas" font-size="1.0" x="26.480952380952377" y="16.40952380952381">WA2</text>
    <rect fill="#58839b" height="4.688524590163935" width="0.46875" x="20.512202380952377" y="12.130835284933646"/>
    <rect fill="#58839b" height="0.45081967213114754" width="4.3125" x="20.512202380952377" y="12.130835284933646"/>
    <rect fill="#58839b" height="4.688524590163935" width="0.46875" x="22.574702380952377" y="12.130835284933646"/>
    <rect fill="#58839b" height="2.7049180327868854" width="0.46875" x="24.355952380952377" y="12.130835284933646"/>
    <rect fill="#58839b" height="0.45081967213114754" width="2.8125" x="24.355952380952377" y="14.384933645589383"/>
    <rect fill="#58839b" height="2.7049180327868854" width="0.46875" x="26.699702380952377" y="12.130835284933646"/>
    <rect fill="#58839b" height="0.45081967213114754" width="2.53125" x="26.699702380952377" y="12.130835284933646"/>
    <rect fill="#58839b" height="2.7049180327868854" width="0.46875" x="28.762202380952377" y="12.130835284933646"/>
    <rect fill="#58839b" height="0.45081967213114754" width="2.8125" x="28.762202380952377" y="14.384933645589383"/>
    <rect fill="#58839b" height="2.7049180327868854" width="0.46875" x="31.105952380952377" y="12.130835284933646"/>
    <rect fill="#58839b" height="0.45081967213114754" width="2.34375" x="31.105952380952377" y="12.130835284933646"/>
    <rect fill="#58839b" height="3.9672131147540988" width="0.46875" x="32.980952380952374" y="12.130835284933646"/>
    <rect fill="#4e4c4c" height="0.2" width="2.6" x="33.18095238095238" y="33.30952380952381"/>
    <g transform="translate(36.59531173489728,32.609523809523814)">
        <rect fill="#4e4c4c" height="1.6" rx="0.3" ry="0.3" transform="skewX(-15)" width="1.8" x="0" y="0"/>
    </g>
    <text dominant-baseline="central" fill="white" font-family="Consolas" font-size="1.2" text-anchor="middle" x="37.28095238095238" y="33.40952380952381">2</text>
    <g transform="translate(38.59531173489728,32.609523809523814)">
        <rect fill="#800000" height="1.6" rx="0.3" ry="0.3" transform="skewX(-15)" width="3.4" x="0" y="0"/>
    </g>
    <text dominant-baseline="central" fill="white" font-family="Consolas" font-size="1.2" text-anchor="middle" x="40.08095238095238" y="33.40952380952381">P8</text>
    <g transform="translate(42.19531173489728,32.609523809523814)">
        <rect fill="#afa35e" height="1.6" rx="0.3" ry="0.3" transform="skewX(-15)" width="3.4" x="0" y="0"/>
    </g>
    <text dominant-baseline="central" fill="#423F42" font-family="Consolas" font-size="1.2" text-anchor="middle" x="43.680952380952384" y="33.40952380952381">PWM2</text>
    <rect fill="#4e4c4c" height="0.2" width="2.6" x="33.18095238095238" y="35.30952380952381"/>
    <g transform="translate(36.59531173489728,34.609523809523814)">
        <rect fill="#4e4c4c" height="1.6" rx="0.3" ry="0.3" transform="skewX(-15)" width="1.8" x="0" y="0"/>
    </g>
    <text dominant-baseline="central" fill="white" font-family="Consolas" font-size="1.2" text-anchor="middle" x="37.28095238095238" y="35.40952380952381">4</text>
    <g transform="translate(38.59531173489728,34.609523809523814)">
        <rect fill="#800000" height="1.6" rx="0.3" ry="0.3" transform="skewX(-15)" width="3.4" x="0" y="0"/>
    </g>
    <text dominant-baseline="central" fill="white" font-family="Consolas" font-size="1.2" text-anchor="middle" x="40.08095238095238" y="35.40952380952381">P7</text>
    <g transform="translate(42.19531173489728,34.609523809523814)">
        <rect fill="#afa35e" height="1.6" rx="0.3" ry="0.3" transform="skewX(-15)" width="3.4" x="0" y="0"/>
    </g>
    <text dominant-baseline="central" fill="#423F42" font-family="Consolas" font-size="1.2" text-anchor="middle" x="43.680952380952384" y="35.40952380952381">PWM1</text>
    <rect fill="#4e4c4c" height="0.2" width="2.6" x="20.080952380952375" y="35.30952380952381"/>
    <g transform="translate(17.895311734897277,34.609523809523814)">
        <rect fill="#4e4c4c" height="1.6" rx="0.3" ry="0.3" transform="skewX(-15)" width="1.8" x="0" y="0"/>
    </g>
    <text dominant-baseline="central" fill="white" font-family="Consolas" font-size="1.2" text-anchor="middle" x="18.58095238095238" y="35.40952380952381">6</text>
    <g transform="translate(14.295311734897277,34.609523809523814)">
        <rect fill="#800000" height="1.6" rx="0.3" ry="0.3" transform="skewX(-15)" width="3.4" x="0" y="0"/>
    </g>
    <text dominant-baseline="central" fill="white" font-family="Consolas" font-size="1.2" text-anchor="middle" x="15.780952380952378" y="35.40952380952381">P6</text>
    <g transform="translate(10.695311734897276,34.609523809523814)">
        <rect fill="#afa35e" height="1.6" rx="0.3" ry="0.3" transform="skewX(-15)" width="3.4" x="0" y="0"/>
    </g>
    <text dominant-baseline="central" fill="#423F42" font-family="Consolas" font-size="1.2" text-anchor="middle" x="12.180952380952377" y="35.40952380952381">PWM0</text>
    <rect fill="#4e4c4c" height="0.2" width="2.6" x="20.080952380952375" y="33.30952380952381"/>
    <g transform="translate(17.895311734897277,32.609523809523814)">
        <rect fill="#4e4c4c" height="1.6" rx="0.3" ry="0.3" transform="skewX(-15)" width="1.8" x="0" y="0"/>
    </g>
    <text dominant-baseline="central" fill="white" font-family="Consolas" font-size="1.2" text-anchor="middle" x="18.58095238095238" y="33.40952380952381">8</text>
    <g transform="translate(14.295311734897277,32.609523809523814)">
        <rect fill="#800000" height="1.6" rx="0.3" ry="0.3" transform="skewX(-15)" width="3.4" x="0" y="0"/>
    </g>
    <text dominant-baseline="central" fill="white" font-family="Consolas" font-size="1.2" text-anchor="middle" x="15.780952380952378" y="33.40952380952381">P23</text>
    <g transform="translate(10.695311734897276,32.609523809523814)">
        <rect fill="#8ad039" height="1.6" rx="0.3" ry="0.3" transform="skewX(-15)" width="3.4" x="0" y="0"/>
    </g>
    <text dominant-baseline="central" fill="#423F42" font-family="Consolas" font-size="1.2" text-anchor="middle" x="12.180952380952377" y="33.40952380952381">ADC3</text>
    <g transform="translate(7.095311734897276,32.609523809523814)">
        <rect fill="#ffe680" height="1.6" rx="0.3" ry="0.3" transform="skewX(-15)" width="3.4" x="0" y="0"/>
    </g>
    <text dominant-baseline="central" fill="#423F42" font-family="Consolas" font-size="1.2" text-anchor="middle" x="8.580952380952377" y="33.40952380952381">TDO</text>
    <g transform="translate(3.4953117348972764,32.609523809523814)">
        <rect fill="#f68a1e" height="1.6" rx="0.3" ry="0.3" transform="skewX(-15)" width="3.4" x="0" y="0"/>
    </g>
    <text dominant-baseline="central" fill="#423F42" font-family="Consolas" font-size="1.2" text-anchor="middle" x="4.980952380952378" y="33.40952380952381">FSO</text>
    <rect fill="#4e4c4c" height="0.2" width="2.6" x="20.080952380952375" y="31.30952380952381"/>
    <g transform="translate(17.895311734897277,30.60952380952381)">
        <rect fill="#4e4c4c" height="1.6" rx="0.3" ry="0.3" transform="skewX(-15)" width="1.8" x="0" y="0"/>
    </g>
    <text dominant-baseline="central" fill="white" font-family="Consolas" font-size="1.2" text-anchor="middle" x="18.58095238095238" y="31.40952380952381">10</text>
    <g transform="translate(14.295311734897277,30.60952380952381)">
        <rect fill="#ed602e" height="1.6" rx="0.3" ry="0.3" transform="skewX(-15)" width="3.4" x="0" y="0"/>
    </g>
    <text dominant-baseline="central" fill="#423F42" font-family="Consolas" font-size="1.2" text-anchor="middle" x="15.780952380952378" y="31.40952380952381">CEN</text>
    <linearGradient gradientUnits="objectBoundingBox" id="id3" x1="1.0" x2="0.0" y1="0.0" y2="1.0">
        <stop offset="0%" stop-color="#47a8cd"/>
        <stop offset="100%" stop-color="#008fb5"/>
    </linearGradient>
    <rect fill="url(#id3) none" height="17.799999999999997" stroke="#b5a739" stroke-width="0.1" width="14.9" x="68.89285714285714" y="11.45952380952381"/>
    <rect fill="#b5a739" height="0.1" width="1.6" x="68.84285714285714" y="25.75952380952381"/>
    <rect fill="#b5a739" height="3.45" width="0.1" x="70.44285714285714" y="25.75952380952381"/>
    <rect fill="#fff" height="3.55" width="1.7" x="68.74285714285715" y="25.859523809523807"/>
    <rect fill="#b5a739" height="0.1" width="1.6" x="82.14285714285714" y="25.75952380952381"/>
    <rect fill="#b5a739" height="3.45" width="0.1" x="82.14285714285714" y="25.75952380952381"/>
    <rect fill="#fff" height="3.55" width="1.7" x="82.24285714285715" y="25.859523809523807"/>
    <rect fill="#e5b472" height="2.5" id="r_pins_horz.pin1.pad" rx="0.2" ry="0.2" width="1.0" x="70.84285714285714" y="26.45952380952381"/>
    <rect fill="#e5b472" height="2.5" id="r_pins_horz.pin2.pad" rx="0.2" ry="0.2" width="1.0" x="72.84285714285714" y="26.45952380952381"/>
    <rect fill="#e5b472" height="2.5" id="r_pins_horz.pin3.pad" rx="0.2" ry="0.2" width="1.0" x="74.84285714285714" y="26.45952380952381"/>
    <rect fill="#e5b472" height="2.5" id="r_pins_horz.pin4.pad" rx="0.2" ry="0.2" width="1.0" x="76.84285714285714" y="26.45952380952381"/>
    <rect fill="#e5b472" height="2.5" id="r_pins_horz.pin5.pad" rx="0.2" ry="0.2" width="1.0" x="78.84285714285714" y="26.45952380952381"/>
    <rect fill="#e5b472" height="2.5" id="r_pins_horz.pin6.pad" rx="0.2" ry="0.2" width="1.0" x="80.84285714285714" y="26.45952380952381"/>
    <rect fill="#4e4c4c" height="2.0" width="0.2" x="71.24285714285715" y="29.509523809523806"/>
    <rect fill="#4e4c4c" height="0.2" width="0.2" x="71.04285714285714" y="31.30952380952381"/>
    <rect height="0.0" id="tuya2.back.pins.label1.anchor" width="0.0" x="140.3857142857143" y="42.81904761904762"/>
    <rect fill="#4e4c4c" height="4.0" width="0.2" x="73.24285714285715" y="29.509523809523806"/>
    <rect fill="#4e4c4c" height="0.2" width="2.2" x="71.04285714285714" y="33.30952380952381"/>
    <rect height="0.0" id="tuya2.back.pins.label2.anchor" width="0.0" x="140.3857142857143" y="44.81904761904762"/>
    <rect fill="#4e4c4c" height="6.0" width="0.2" x="75.24285714285715" y="29.509523809523806"/>
    <rect fill="#4e4c4c" height="0.2" width="4.2" x="71.04285714285714" y="35.30952380952381"/>
    <rect height="0.0" id="tuya2.back.pins.label3.anchor" width="0.0" x="140.3857142857143" y="46.81904761904762"/>
    <rect fill="#4e4c4c" height="6.0" width="0.2" x="77.24285714285715" y="29.509523809523806"/>
    <rect fill="#4e4c4c" height="0.2" width="4.2" x="77.34285714285714" y="35.30952380952381"/>
    <rect height="0.0" id="tuya2.back.pins.label4.anchor" width="0.0" x="149.8857142857143" y="46.81904761904762"/>
    <rect fill="#4e4c4c" height="4.0" width="0.2" x="79.24285714285715" y="29.509523809523806"/>
    <rect fill="#4e4c4c" height="0.2" width="2.2" x="79.34285714285714" y="33.30952380952381"/>
    <rect height="0.0" id="tuya2.back.pins.label5.anchor" width="0.0" x="149.8857142857143" y="44.81904761904762"/>
    <rect fill="#4e4c4c" height="2.0" width="0.2" x="81.24285714285715" y="29.509523809523806"/>
    <rect fill="#4e4c4c" height="0.2" width="0.2" x="81.34285714285714" y="31.30952380952381"/>
    <rect height="0.0" id="tuya2.back.pins.label6.anchor" width="0.0" x="149.8857142857143" y="42.81904761904762"/>
    <circle cx="71.44285714285714" cy="17.60952380952381" fill="#e5b472" r="0.5"/>
    <rect fill="#4e4c4c" height="2.0" width="0.2" x="71.34285714285714" y="14.609523809523811"/>
    <rect fill="#4e4c4c" height="0.2" width="1.5" x="69.84285714285714" y="14.609523809523811"/>
    <rect height="0.0" id="wa2.back.sck.anchor" width="0.0" x="139.18571428571428" y="26.11904761904762"/>
    <circle cx="73.44285714285714" cy="17.60952380952381" fill="#e5b472" r="0.5"/>
    <rect fill="#4e4c4c" height="4.0" width="0.2" x="73.34285714285714" y="12.609523809523811"/>
    <rect fill="#4e4c4c" height="0.2" width="3.5" x="69.84285714285714" y="12.609523809523811"/>
    <rect height="0.0" id="wa2.back.so.anchor" width="0.0" x="139.18571428571428" y="24.11904761904762"/>
    <circle cx="75.84285714285714" cy="17.60952380952381" fill="#e5b472" r="0.5"/>
    <rect fill="#4e4c4c" height="4.0" width="0.2" x="75.74285714285715" y="12.609523809523811"/>
    <rect fill="#4e4c4c" height="0.2" width="0.2" x="75.84285714285714" y="12.609523809523811"/>
    <rect height="0.0" id="wa2.back.p4.anchor" width="0.0" x="144.3857142857143" y="24.11904761904762"/>
    <circle cx="71.84285714285714" cy="19.70952380952381" fill="#e5b472" r="0.5"/>
    <rect fill="#4e4c4c" height="0.0" width="0.2" x="70.94285714285714" y="19.60952380952381"/>
    <rect fill="#4e4c4c" height="0.2" width="1.1" x="69.84285714285714" y="19.60952380952381"/>
    <rect height="0.0" id="wa2.back.csn.anchor" width="0.0" x="139.18571428571428" y="31.11904761904762"/>
    <circle cx="74.04285714285714" cy="20.20952380952381" fill="#e5b472" r="0.5"/>
    <rect fill="#4e4c4c" height="0.0" width="0.2" x="74.74285714285715" y="20.10952380952381"/>
    <rect fill="#4e4c4c" height="0.2" width="1.2" x="74.84285714285714" y="20.10952380952381"/>
    <rect height="0.0" id="wa2.back.si.anchor" width="0.0" x="144.3857142857143" y="31.61904761904762"/>
    <circle cx="70.94285714285714" cy="23.00952380952381" fill="#e5b472" r="0.5"/>
    <rect fill="#4e4c4c" height="0.0" width="0.2" x="70.04285714285714" y="22.90952380952381"/>
    <rect fill="#4e4c4c" height="0.2" width="0.2" x="69.84285714285714" y="22.90952380952381"/>
    <rect height="0.0" id="wa2.back.2tx.anchor" width="0.0" x="139.18571428571428" y="34.41904761904762"/>
    <circle cx="73.14285714285714" cy="23.00952380952381" fill="#e5b472" r="0.5"/>
    <rect fill="#4e4c4c" height="0.0" width="0.2" x="73.84285714285714" y="22.90952380952381"/>
    <rect fill="#4e4c4c" height="0.2" width="2.1" x="73.94285714285714" y="22.90952380952381"/>
    <rect height="0.0" id="wa2.back.test.anchor" width="0.0" x="144.3857142857143" y="34.41904761904762"/>
    <circle cx="71.34285714285714" cy="25.90952380952381" fill="#e5b472" r="0.5"/>
    <rect fill="#4e4c4c" height="0.0" width="0.2" x="70.44285714285714" y="25.80952380952381"/>
    <rect fill="#4e4c4c" height="0.2" width="0.6000000000000001" x="69.84285714285714" y="25.80952380952381"/>
    <rect height="0.0" id="wa2.back.vbat.anchor" width="0.0" x="139.18571428571428" y="37.31904761904762"/>
    <circle cx="73.64285714285714" cy="25.90952380952381" fill="#e5b472" r="0.5"/>
    <rect fill="#4e4c4c" height="0.0" width="0.2" x="74.34285714285714" y="25.80952380952381"/>
    <rect fill="#4e4c4c" height="0.2" width="1.5999999999999999" x="74.44285714285714" y="25.80952380952381"/>
    <rect height="0.0" id="wa2.back.gnd.anchor" width="0.0" x="144.3857142857143" y="37.31904761904762"/>
    <rect fill="#4e4c4c" height="0.2" width="2.6" x="68.44285714285715" y="31.30952380952381"/>
    <g transform="translate(66.25721649680203,30.60952380952381)">
        <rect fill="#4e4c4c" height="1.6" rx="0.3" ry="0.3" transform="skewX(-15)" width="1.8" x="0" y="0"/>
    </g>
    <text dominant-baseline="central" fill="white" font-family="Consolas" font-size="1.2" text-anchor="middle" x="66.94285714285714" y="31.40952380952381">1</text>
    <g transform="translate(62.657216496802036,30.60952380952381)">
        <rect fill="#cd3c24" height="1.6" rx="0.3" ry="0.3" transform="skewX(-15)" width="3.4" x="0" y="0"/>
    </g>
    <text dominant-baseline="central" fill="white" font-family="Consolas" font-size="1.2" text-anchor="middle" x="64.14285714285714" y="31.40952380952381">3V3</text>
    <rect fill="#4e4c4c" height="0.2" width="2.6" x="68.44285714285715" y="33.30952380952381"/>
    <g transform="translate(66.25721649680203,32.609523809523814)">
        <rect fill="#4e4c4c" height="1.6" rx="0.3" ry="0.3" transform="skewX(-15)" width="1.8" x="0" y="0"/>
    </g>
    <text dominant-baseline="central" fill="white" font-family="Consolas" font-size="1.2" text-anchor="middle" x="66.94285714285714" y="33.40952380952381">3</text>
    <g transform="translate(62.657216496802036,32.609523809523814)">
        <rect fill="#000" height="1.6" rx="0.3" ry="0.3" transform="skewX(-15)" width="3.4" x="0" y="0"/>
    </g>
    <text dominant-baseline="central" fill="white" font-family="Consolas" font-size="1.2" text-anchor="middle" x="64.14285714285714" y="33.40952380952381">GND</text>
    <rect fill="#4e4c4c" height="0.2" width="2.6" x="68.44285714285715" y="35.30952380952381"/>
    <g transform="translate(66.25721649680203,34.609523809523814)">
        <rect fill="#4e4c4c" height="1.6" rx="0.3" ry="0.3" transform="skewX(-15)" width="1.8" x="0" y="0"/>
    </g>
    <text dominant-baseline="central" fill="white" font-family="Consolas" font-size="1.2" text-anchor="middle" x="66.94285714285714" y="35.40952380952381">5</text>
    <g transform="translate(62.657216496802036,34.609523809523814)">
        <rect fill="#800000" height="1.6" rx="0.3" ry="0.3" transform="skewX(-15)" width="3.4" x="0" y="0"/>
    </g>
    <text dominant-baseline="central" fill="white" font-family="Consolas" font-size="1.2" text-anchor="middle" x="64.14285714285714" y="35.40952380952381">P10</text>
    <g transform="translate(59.05721649680204,34.609523809523814)">
        <rect fill="#dcd4ee" height="1.6" rx="0.3" ry="0.3" transform="skewX(-15)" width="3.4" x="0" y="0"/>
    </g>
    <text dominant-baseline="central" fill="#423F42" font-family="Consolas" font-size="1.2" text-anchor="middle" x="60.542857142857144" y="35.40952380952381">RX1</text>
    <rect fill="#4e4c4c" height="0.2" width="2.6" x="81.54285714285714" y="35.30952380952381"/>
    <g transform="translate(84.95721649680203,34.609523809523814)">
        <rect fill="#4e4c4c" height="1.6" rx="0.3" ry="0.3" transform="skewX(-15)" width="1.8" x="0" y="0"/>
    </g>
    <text dominant-baseline="central" fill="white" font-family="Consolas" font-size="1.2" text-anchor="middle" x="85.64285714285714" y="35.40952380952381">7</text>
    <g transform="translate(86.95721649680203,34.609523809523814)">
        <rect fill="#800000" height="1.6" rx="0.3" ry="0.3" transform="skewX(-15)" width="3.4" x="0" y="0"/>
    </g>
    <text dominant-baseline="central" fill="white" font-family="Consolas" font-size="1.2" text-anchor="middle" x="88.44285714285714" y="35.40952380952381">P11</text>
    <g transform="translate(90.55721649680203,34.609523809523814)">
        <rect fill="#dcd4ee" height="1.6" rx="0.3" ry="0.3" transform="skewX(-15)" width="3.4" x="0" y="0"/>
    </g>
    <text dominant-baseline="central" fill="#423F42" font-family="Consolas" font-size="1.2" text-anchor="middle" x="92.04285714285713" y="35.40952380952381">TX1</text>
    <rect fill="#4e4c4c" height="0.2" width="2.6" x="81.54285714285714" y="33.30952380952381"/>
    <g transform="translate(84.95721649680203,32.609523809523814)">
        <rect fill="#4e4c4c" height="1.6" rx="0.3" ry="0.3" transform="skewX(-15)" width="1.8" x="0" y="0"/>
    </g>
    <text dominant-baseline="central" fill="white" font-family="Consolas" font-size="1.2" text-anchor="middle" x="85.64285714285714" y="33.40952380952381">9</text>
    <g transform="translate(86.95721649680203,32.609523809523814)">
        <rect fill="#800000" height="1.6" rx="0.3" ry="0.3" transform="skewX(-15)" width="3.4" x="0" y="0"/>
    </g>
    <text dominant-baseline="central" fill="white" font-family="Consolas" font-size="1.2" text-anchor="middle" x="88.44285714285714" y="33.40952380952381">P18</text>
    <g transform="translate(90.55721649680203,32.609523809523814)">
        <rect fill="#afa35e" height="1.6" rx="0.3" ry="0.3" transform="skewX(-15)" width="3.4" x="0" y="0"/>
    </g>
    <text dominant-baseline="central" fill="#423F42" font-family="Consolas" font-size="1.2" text-anchor="middle" x="92.04285714285713" y="33.40952380952381">PWM4</text>
    <rect fill="#4e4c4c" height="0.2" width="2.6" x="81.54285714285714" y="31.30952380952381"/>
    <g transform="translate(84.95721649680203,30.60952380952381)">
        <rect fill="#4e4c4c" height="1.6" rx="0.3" ry="0.3" transform="skewX(-15)" width="1.8" x="0" y="0"/>
    </g>
    <text dominant-baseline="central" fill="white" font-family="Consolas" font-size="1.2" text-anchor="middle" x="85.64285714285714" y="31.40952380952381">11</text>
    <g transform="translate(86.95721649680203,30.60952380952381)">
        <rect fill="#800000" height="1.6" rx="0.3" ry="0.3" transform="skewX(-15)" width="3.4" x="0" y="0"/>
    </g>
    <text dominant-baseline="central" fill="white" font-family="Consolas" font-size="1.2" text-anchor="middle" x="88.44285714285714" y="31.40952380952381">P19</text>
    <g transform="translate(90.55721649680203,30.60952380952381)">
        <rect fill="#afa35e" height="1.6" rx="0.3" ry="0.3" transform="skewX(-15)" width="3.4" x="0" y="0"/>
    </g>
    <text dominant-baseline="central" fill="#423F42" font-family="Consolas" font-size="1.2" text-anchor="middle" x="92.04285714285713" y="31.40952380952381">PWM5</text>
    <rect fill="#4e4c4c" height="0.2" width="2.6" x="67.24285714285715" y="14.609523809523811"/>
    <g transform="translate(63.45721649680205,13.90952380952381)">
        <rect fill="#800000" height="1.6" rx="0.3" ry="0.3" transform="skewX(-15)" width="3.4" x="0" y="0"/>
    </g>
    <text dominant-baseline="central" fill="white" font-family="Consolas" font-size="1.2" text-anchor="middle" x="64.94285714285715" y="14.70952380952381">P20</text>
    <g transform="translate(59.85721649680204,13.90952380952381)">
        <rect fill="#f95" height="1.6" rx="0.3" ry="0.3" transform="skewX(-15)" width="3.4" x="0" y="0"/>
    </g>
    <text dominant-baseline="central" fill="#423F42" font-family="Consolas" font-size="1.2" text-anchor="middle" x="61.34285714285714" y="14.70952380952381">SCL1</text>
    <g transform="translate(56.257216496802045,13.90952380952381)">
        <rect fill="#ffe680" height="1.6" rx="0.3" ry="0.3" transform="skewX(-15)" width="3.4" x="0" y="0"/>
    </g>
    <text dominant-baseline="central" fill="#423F42" font-family="Consolas" font-size="1.2" text-anchor="middle" x="57.74285714285715" y="14.70952380952381">TCK</text>
    <g transform="translate(52.65721649680204,13.90952380952381)">
        <rect fill="#f68a1e" height="1.6" rx="0.3" ry="0.3" transform="skewX(-15)" width="3.4" x="0" y="0"/>
    </g>
    <text dominant-baseline="central" fill="#423F42" font-family="Consolas" font-size="1.2" text-anchor="middle" x="54.142857142857146" y="14.70952380952381">FSCK</text>
    <rect fill="#4e4c4c" height="0.2" width="2.6" x="76.04285714285714" y="12.609523809523811"/>
    <g transform="translate(79.45721649680203,11.90952380952381)">
        <rect fill="#800000" height="1.6" rx="0.3" ry="0.3" transform="skewX(-15)" width="3.4" x="0" y="0"/>
    </g>
    <text dominant-baseline="central" fill="white" font-family="Consolas" font-size="1.2" text-anchor="middle" x="80.94285714285714" y="12.70952380952381">P4</text>
    <g transform="translate(83.05721649680204,11.90952380952381)">
        <rect fill="#8ad039" height="1.6" rx="0.3" ry="0.3" transform="skewX(-15)" width="3.4" x="0" y="0"/>
    </g>
    <text dominant-baseline="central" fill="#423F42" font-family="Consolas" font-size="1.2" text-anchor="middle" x="84.54285714285714" y="12.70952380952381">ADC1</text>
    <rect fill="#4e4c4c" height="0.2" width="2.6" x="76.04285714285714" y="22.909523809523808"/>
    <g transform="translate(79.45721649680203,22.20952380952381)">
        <rect fill="#ed602e" height="1.6" rx="0.3" ry="0.3" transform="skewX(-15)" width="3.4" x="0" y="0"/>
    </g>
    <text dominant-baseline="central" fill="#423F42" font-family="Consolas" font-size="1.2" text-anchor="middle" x="80.94285714285714" y="23.00952380952381">TEST</text>
    <rect fill="#4e4c4c" height="0.2" width="2.6" x="67.24285714285715" y="22.909523809523808"/>
    <g transform="translate(63.45721649680205,22.20952380952381)">
        <rect fill="#800000" height="1.6" rx="0.3" ry="0.3" transform="skewX(-15)" width="3.4" x="0" y="0"/>
    </g>
    <text dominant-baseline="central" fill="white" font-family="Consolas" font-size="1.2" text-anchor="middle" x="64.94285714285715" y="23.00952380952381">P0</text>
    <g transform="translate(59.85721649680204,22.20952380952381)">
        <rect fill="#dcd4ee" height="1.6" rx="0.3" ry="0.3" transform="skewX(-15)" width="3.4" x="0" y="0"/>
    </g>
    <text dominant-baseline="central" fill="#423F42" font-family="Consolas" font-size="1.2" text-anchor="middle" x="61.34285714285714" y="23.00952380952381">TX2</text>
    <g transform="translate(56.257216496802045,22.20952380952381)">
        <rect fill="#f95" height="1.6" rx="0.3" ry="0.3" transform="skewX(-15)" width="3.4" x="0" y="0"/>
    </g>
    <text dominant-baseline="central" fill="#423F42" font-family="Consolas" font-size="1.2" text-anchor="middle" x="57.74285714285715" y="23.00952380952381">SCL2</text>
    <rect fill="#4e4c4c" height="0.2" width="2.6" x="67.24285714285715" y="19.609523809523807"/>
    <g transform="translate(63.45721649680205,18.909523809523808)">
        <rect fill="#800000" height="1.6" rx="0.3" ry="0.3" transform="skewX(-15)" width="3.4" x="0" y="0"/>
    </g>
    <text dominant-baseline="central" fill="white" font-family="Consolas" font-size="1.2" text-anchor="middle" x="64.94285714285715" y="19.70952380952381">P21</text>
    <g transform="translate(59.85721649680204,18.909523809523808)">
        <rect fill="#f95" height="1.6" rx="0.3" ry="0.3" transform="skewX(-15)" width="3.4" x="0" y="0"/>
    </g>
    <text dominant-baseline="central" fill="#423F42" font-family="Consolas" font-size="1.2" text-anchor="middle" x="61.34285714285714" y="19.70952380952381">SDA1</text>
    <g transform="translate(56.257216496802045,18.909523809523808)">
        <rect fill="#ffe680" height="1.6" rx="0.3" ry="0.3" transform="skewX(-15)" width="3.4" x="0" y="0"/>
    </g>
    <text dominant-baseline="central" fill="#423F42" font-family="Consolas" font-size="1.2" text-anchor="middle" x="57.74285714285715" y="19.70952380952381">TMS</text>
    <g transform="translate(52.65721649680204,18.909523809523808)">
        <rect fill="#f68a1e" height="1.6" rx="0.3" ry="0.3" transform="skewX(-15)" width="3.4" x="0" y="0"/>
    </g>
    <text dominant-baseline="middle" fill="#423F42" font-family="Consolas" font-size="1.2" text-anchor="middle" x="54.142857142857146" y="18.69702380952381">___</text>
    <text dominant-baseline="central" fill="#423F42" font-family="Consolas" font-size="1.2" text-anchor="middle" x="54.142857142857146" y="19.815773809523808">FCS</text>
    <rect fill="#4e4c4c" height="0.2" width="2.6" x="76.04285714285714" y="20.109523809523807"/>
    <g transform="translate(79.45721649680203,19.409523809523808)">
        <rect fill="#800000" height="1.6" rx="0.3" ry="0.3" transform="skewX(-15)" width="3.4" x="0" y="0"/>
    </g>
    <text dominant-baseline="central" fill="white" font-family="Consolas" font-size="1.2" text-anchor="middle" x="80.94285714285714" y="20.20952380952381">P22</text>
    <g transform="translate(83.05721649680204,19.409523809523808)">
        <rect fill="#ffe680" height="1.6" rx="0.3" ry="0.3" transform="skewX(-15)" width="3.4" x="0" y="0"/>
    </g>
    <text dominant-baseline="central" fill="#423F42" font-family="Consolas" font-size="1.2" text-anchor="middle" x="84.54285714285714" y="20.20952380952381">TDI</text>
    <g transform="translate(86.65721649680204,19.409523809523808)">
        <rect fill="#f68a1e" height="1.6" rx="0.3" ry="0.3" transform="skewX(-15)" width="3.4" x="0" y="0"/>
    </g>
    <text dominant-baseline="central" fill="#423F42" font-family="Consolas" font-size="1.2" text-anchor="middle" x="88.14285714285714" y="20.20952380952381">FSI</text>
    <rect fill="#4e4c4c" height="0.2" width="2.6" x="67.24285714285715" y="12.609523809523811"/>
    <g transform="translate(63.45721649680205,11.90952380952381)">
        <rect fill="#800000" height="1.6" rx="0.3" ry="0.3" transform="skewX(-15)" width="3.4" x="0" y="0"/>
    </g>
    <text dominant-baseline="central" fill="white" font-family="Consolas" font-size="1.2" text-anchor="middle" x="64.94285714285715" y="12.70952380952381">P23</text>
    <g transform="translate(59.85721649680204,11.90952380952381)">
        <rect fill="#8ad039" height="1.6" rx="0.3" ry="0.3" transform="skewX(-15)" width="3.4" x="0" y="0"/>
    </g>
    <text dominant-baseline="central" fill="#423F42" font-family="Consolas" font-size="1.2" text-anchor="middle" x="61.34285714285714" y="12.70952380952381">ADC3</text>
    <g transform="translate(56.257216496802045,11.90952380952381)">
        <rect fill="#ffe680" height="1.6" rx="0.3" ry="0.3" transform="skewX(-15)" width="3.4" x="0" y="0"/>
    </g>
    <text dominant-baseline="central" fill="#423F42" font-family="Consolas" font-size="1.2" text-anchor="middle" x="57.74285714285715" y="12.70952380952381">TDO</text>
    <g transform="translate(52.65721649680204,11.90952380952381)">
        <rect fill="#f68a1e" height="1.6" rx="0.3" ry="0.3" transform="skewX(-15)" width="3.4" x="0" y="0"/>
    </g>
    <text dominant-baseline="central" fill="#423F42" font-family="Consolas" font-size="1.2" text-anchor="middle" x="54.142857142857146" y="12.70952380952381">FSO</text>
    <rect fill="#4e4c4c" height="0.2" width="2.6" x="67.24285714285715" y="25.80952380952381"/>
    <g transform="translate(63.45721649680205,25.10952380952381)">
        <rect fill="#cd3c24" height="1.6" rx="0.3" ry="0.3" transform="skewX(-15)" width="3.4" x="0" y="0"/>
    </g>
    <text dominant-baseline="central" fill="white" font-family="Consolas" font-size="1.2" text-anchor="middle" x="64.94285714285715" y="25.90952380952381">3V3</text>
    <rect fill="#4e4c4c" height="0.2" width="2.6" x="76.04285714285714" y="25.80952380952381"/>
    <g transform="translate(79.45721649680203,25.10952380952381)">
        <rect fill="#000" height="1.6" rx="0.3" ry="0.3" transform="skewX(-15)" width="3.4" x="0" y="0"/>
    </g>
    <text dominant-baseline="central" fill="white" font-family="Consolas" font-size="1.2" text-anchor="middle" x="80.94285714285714" y="25.90952380952381">GND</text>
</svg>
