<?xml version="1.0" encoding="utf-8" ?>
<svg xmlns="http://www.w3.org/2000/svg" xmlns:ev="http://www.w3.org/2001/xml-events" xmlns:xlink="http://www.w3.org/1999/xlink" baseProfile="full" height="500" version="1.1" viewBox="0,0,97.52380952380952,47.61904761904762" width="1024">
    <defs/>
    <rect fill="white" height="47.61904761904762" stroke="black" stroke-width="0.1" width="97.52380952380952" x="0" y="0"/>
    <linearGradient gradientUnits="objectBoundingBox" id="id1" x1="1.0" x2="0.0" y1="0.0" y2="1.0">
        <stop offset="0%" stop-color="#47a8cd"/>
        <stop offset="100%" stop-color="#008fb5"/>
    </linearGradient>
    <rect fill="url(#id1) none" height="17.799999999999997" stroke="#b5a739" stroke-width="0.1" width="14.9" x="15.930952380952377" y="11.45952380952381"/>
    <rect fill="#b5a739" height="0.1" width="1.6" x="15.880952380952376" y="25.75952380952381"/>
    <rect fill="#b5a739" height="3.45" width="0.1" x="17.480952380952377" y="25.75952380952381"/>
    <rect fill="#fff" height="3.55" width="1.7" x="15.780952380952376" y="25.859523809523807"/>
    <rect fill="#b5a739" height="0.1" width="1.6" x="29.180952380952377" y="25.75952380952381"/>
    <rect fill="#b5a739" height="3.45" width="0.1" x="29.180952380952377" y="25.75952380952381"/>
    <rect fill="#fff" height="3.55" width="1.7" x="29.280952380952378" y="25.859523809523807"/>
    <linearGradient gradientUnits="objectBoundingBox" id="id2" x1="1.0" x2="0.0" y1="0.0" y2="1.0">
        <stop offset="0%" stop-color="whitesmoke"/>
        <stop offset="100%" stop-color="#999"/>
    </linearGradient>
    <rect fill="url(#id2) none" height="8.0" rx="0.5" ry="0.5" width="14.4" x="16.180952380952377" y="17.40952380952381"/>
    <rect fill="#e5b472" height="2.5" id="r_pins_horz.pin1.pad" rx="0.2" ry="0.2" width="1.0" x="18.880952380952376" y="26.45952380952381"/>
    <rect fill="#e5b472" height="2.5" id="r_pins_horz.pin2.pad" rx="0.2" ry="0.2" width="1.0" x="20.880952380952376" y="26.45952380952381"/>
    <rect fill="#e5b472" height="2.5" id="r_pins_horz.pin3.pad" rx="0.2" ry="0.2" width="1.0" x="22.880952380952376" y="26.45952380952381"/>
    <rect fill="#e5b472" height="2.5" id="r_pins_horz.pin4.pad" rx="0.2" ry="0.2" width="1.0" x="24.880952380952376" y="26.45952380952381"/>
    <rect fill="#e5b472" height="2.5" id="r_pins_horz.pin5.pad" rx="0.2" ry="0.2" width="1.0" x="26.880952380952376" y="26.45952380952381"/>
    <rect fill="#4e4c4c" height="2.0" width="0.2" x="19.280952380952375" y="29.509523809523806"/>
    <rect fill="#4e4c4c" height="0.2" width="0.2" x="19.080952380952375" y="31.30952380952381"/>
    <rect height="0.0" id="tuya2.front.pins.label1.anchor" width="0.0" x="35.46190476190475" y="42.81904761904762"/>
    <rect fill="#4e4c4c" height="4.0" width="0.2" x="21.280952380952378" y="29.509523809523806"/>
    <rect fill="#4e4c4c" height="0.2" width="2.2" x="19.080952380952375" y="33.30952380952381"/>
    <rect height="0.0" id="tuya2.front.pins.label2.anchor" width="0.0" x="35.46190476190475" y="44.81904761904762"/>
    <rect fill="#4e4c4c" height="6.0" width="0.2" x="23.280952380952378" y="29.509523809523806"/>
    <rect fill="#4e4c4c" height="0.2" width="4.2" x="19.080952380952375" y="35.30952380952381"/>
    <rect height="0.0" id="tuya2.front.pins.label3.anchor" width="0.0" x="35.46190476190475" y="46.81904761904762"/>
    <rect fill="#4e4c4c" height="6.0" width="0.2" x="25.280952380952378" y="29.509523809523806"/>
    <rect fill="#4e4c4c" height="0.2" width="4.2" x="25.380952380952376" y="35.30952380952381"/>
    <rect height="0.0" id="tuya2.front.pins.label4.anchor" width="0.0" x="44.96190476190475" y="46.81904761904762"/>
    <rect fill="#4e4c4c" height="4.0" width="0.2" x="27.280952380952378" y="29.509523809523806"/>
    <rect fill="#4e4c4c" height="0.2" width="2.2" x="27.380952380952376" y="33.30952380952381"/>
    <rect height="0.0" id="tuya2.front.pins.label5.anchor" width="0.0" x="44.96190476190475" y="44.81904761904762"/>
    <text fill="#fff" font-family="Consolas" font-size="1.0" x="22.880952380952376" y="16.40952380952381">WR2E</text>
    <rect fill="#58839b" height="4.688524590163935" width="0.46875" x="16.912202380952376" y="12.130835284933646"/>
    <rect fill="#58839b" height="0.45081967213114754" width="4.3125" x="16.912202380952376" y="12.130835284933646"/>
    <rect fill="#58839b" height="4.688524590163935" width="0.46875" x="18.974702380952376" y="12.130835284933646"/>
    <rect fill="#58839b" height="2.7049180327868854" width="0.46875" x="20.755952380952376" y="12.130835284933646"/>
    <rect fill="#58839b" height="0.45081967213114754" width="2.8125" x="20.755952380952376" y="14.384933645589383"/>
    <rect fill="#58839b" height="2.7049180327868854" width="0.46875" x="23.099702380952376" y="12.130835284933646"/>
    <rect fill="#58839b" height="0.45081967213114754" width="2.53125" x="23.099702380952376" y="12.130835284933646"/>
    <rect fill="#58839b" height="2.7049180327868854" width="0.46875" x="25.162202380952376" y="12.130835284933646"/>
    <rect fill="#58839b" height="0.45081967213114754" width="2.8125" x="25.162202380952376" y="14.384933645589383"/>
    <rect fill="#58839b" height="2.7049180327868854" width="0.46875" x="27.505952380952376" y="12.130835284933646"/>
    <rect fill="#58839b" height="0.45081967213114754" width="2.34375" x="27.505952380952376" y="12.130835284933646"/>
    <rect fill="#58839b" height="3.9672131147540988" width="0.46875" x="29.380952380952376" y="12.130835284933646"/>
    <rect fill="#4e4c4c" height="0.2" width="2.6" x="29.580952380952375" y="33.30952380952381"/>
    <g transform="translate(32.99531173489728,32.609523809523814)">
        <rect fill="#4e4c4c" height="1.6" rx="0.3" ry="0.3" transform="skewX(-15)" width="1.8" x="0" y="0"/>
    </g>
    <text dominant-baseline="central" fill="white" font-family="Consolas" font-size="1.2" text-anchor="middle" x="33.68095238095238" y="33.40952380952381">2</text>
    <g transform="translate(34.99531173489728,32.609523809523814)">
        <rect fill="#800000" height="1.6" rx="0.3" ry="0.3" transform="skewX(-15)" width="3.4" x="0" y="0"/>
    </g>
    <text dominant-baseline="central" fill="white" font-family="Consolas" font-size="1.2" text-anchor="middle" x="36.48095238095238" y="33.40952380952381">PA12</text>
    <g transform="translate(38.59531173489728,32.609523809523814)">
        <rect fill="#afa35e" height="1.6" rx="0.3" ry="0.3" transform="skewX(-15)" width="3.4" x="0" y="0"/>
    </g>
    <text dominant-baseline="central" fill="#423F42" font-family="Consolas" font-size="1.2" text-anchor="middle" x="40.08095238095238" y="33.40952380952381">PWM3</text>
    <rect fill="#4e4c4c" height="0.2" width="2.6" x="29.580952380952375" y="35.30952380952381"/>
    <g transform="translate(32.99531173489728,34.609523809523814)">
        <rect fill="#4e4c4c" height="1.6" rx="0.3" ry="0.3" transform="skewX(-15)" width="1.8" x="0" y="0"/>
    </g>
    <text dominant-baseline="central" fill="white" font-family="Consolas" font-size="1.2" text-anchor="middle" x="33.68095238095238" y="35.40952380952381">4</text>
    <g transform="translate(34.99531173489728,34.609523809523814)">
        <rect fill="#800000" height="1.6" rx="0.3" ry="0.3" transform="skewX(-15)" width="3.4" x="0" y="0"/>
    </g>
    <text dominant-baseline="central" fill="white" font-family="Consolas" font-size="1.2" text-anchor="middle" x="36.48095238095238" y="35.40952380952381">PA19</text>
    <g transform="translate(38.59531173489728,34.609523809523814)">
        <rect fill="#8ad039" height="1.6" rx="0.3" ry="0.3" transform="skewX(-15)" width="3.4" x="0" y="0"/>
    </g>
    <text dominant-baseline="central" fill="#423F42" font-family="Consolas" font-size="1.2" text-anchor="middle" x="40.08095238095238" y="35.40952380952381">ADC1</text>
    <rect fill="#4e4c4c" height="0.2" width="2.6" x="16.480952380952374" y="35.30952380952381"/>
    <g transform="translate(14.295311734897274,34.609523809523814)">
        <rect fill="#4e4c4c" height="1.6" rx="0.3" ry="0.3" transform="skewX(-15)" width="1.8" x="0" y="0"/>
    </g>
    <text dominant-baseline="central" fill="white" font-family="Consolas" font-size="1.2" text-anchor="middle" x="14.980952380952376" y="35.40952380952381">6</text>
    <g transform="translate(10.695311734897274,34.609523809523814)">
        <rect fill="#800000" height="1.6" rx="0.3" ry="0.3" transform="skewX(-15)" width="3.4" x="0" y="0"/>
    </g>
    <text dominant-baseline="central" fill="white" font-family="Consolas" font-size="1.2" text-anchor="middle" x="12.180952380952375" y="35.40952380952381">PA05</text>
    <g transform="translate(7.095311734897274,34.609523809523814)">
        <rect fill="#afa35e" height="1.6" rx="0.3" ry="0.3" transform="skewX(-15)" width="3.4" x="0" y="0"/>
    </g>
    <text dominant-baseline="central" fill="#423F42" font-family="Consolas" font-size="1.2" text-anchor="middle" x="8.580952380952375" y="35.40952380952381">PWM4</text>
    <rect fill="#4e4c4c" height="0.2" width="2.6" x="16.480952380952374" y="33.30952380952381"/>
    <g transform="translate(14.295311734897274,32.609523809523814)">
        <rect fill="#4e4c4c" height="1.6" rx="0.3" ry="0.3" transform="skewX(-15)" width="1.8" x="0" y="0"/>
    </g>
    <text dominant-baseline="central" fill="white" font-family="Consolas" font-size="1.2" text-anchor="middle" x="14.980952380952376" y="33.40952380952381">8</text>
    <g transform="translate(10.695311734897274,32.609523809523814)">
        <rect fill="#8ad039" height="1.6" rx="0.3" ry="0.3" transform="skewX(-15)" width="3.4" x="0" y="0"/>
    </g>
    <text dominant-baseline="central" fill="#423F42" font-family="Consolas" font-size="1.2" text-anchor="middle" x="12.180952380952375" y="33.40952380952381">ADC2</text>
    <rect fill="#4e4c4c" height="0.2" width="2.6" x="16.480952380952374" y="31.30952380952381"/>
    <g transform="translate(14.295311734897274,30.60952380952381)">
        <rect fill="#4e4c4c" height="1.6" rx="0.3" ry="0.3" transform="skewX(-15)" width="1.8" x="0" y="0"/>
    </g>
    <text dominant-baseline="central" fill="white" font-family="Consolas" font-size="1.2" text-anchor="middle" x="14.980952380952376" y="31.40952380952381">10</text>
    <g transform="translate(10.695311734897274,30.60952380952381)">
        <rect fill="#ed602e" height="1.6" rx="0.3" ry="0.3" transform="skewX(-15)" width="3.4" x="0" y="0"/>
    </g>
    <text dominant-baseline="central" fill="#423F42" font-family="Consolas" font-size="1.2" text-anchor="middle" x="12.180952380952375" y="31.40952380952381">CEN</text>
    <linearGradient gradientUnits="objectBoundingBox" id="id3" x1="1.0" x2="0.0" y1="0.0" y2="1.0">
        <stop offset="0%" stop-color="#47a8cd"/>
        <stop offset="100%" stop-color="#008fb5"/>
    </linearGradient>
    <rect fill="url(#id3) none" height="17.799999999999997" stroke="#b5a739" stroke-width="0.1" width="14.9" x="64.69285714285714" y="11.45952380952381"/>
    <rect fill="#b5a739" height="0.1" width="1.6" x="64.64285714285714" y="25.75952380952381"/>
    <rect fill="#b5a739" height="3.45" width="0.1" x="66.24285714285713" y="25.75952380952381"/>
    <rect fill="#fff" height="3.55" width="1.7" x="64.54285714285714" y="25.859523809523807"/>
    <rect fill="#b5a739" height="0.1" width="1.6" x="77.94285714285714" y="25.75952380952381"/>
    <rect fill="#b5a739" height="3.45" width="0.1" x="77.94285714285714" y="25.75952380952381"/>
    <rect fill="#fff" height="3.55" width="1.7" x="78.04285714285714" y="25.859523809523807"/>
    <rect fill="#e5b472" height="2.5" id="r_pins_horz.pin1.pad" rx="0.2" ry="0.2" width="1.0" x="66.64285714285714" y="26.45952380952381"/>
    <rect fill="#e5b472" height="2.5" id="r_pins_horz.pin2.pad" rx="0.2" ry="0.2" width="1.0" x="68.64285714285714" y="26.45952380952381"/>
    <rect fill="#e5b472" height="2.5" id="r_pins_horz.pin3.pad" rx="0.2" ry="0.2" width="1.0" x="70.64285714285714" y="26.45952380952381"/>
    <rect fill="#e5b472" height="2.5" id="r_pins_horz.pin4.pad" rx="0.2" ry="0.2" width="1.0" x="72.64285714285714" y="26.45952380952381"/>
    <rect fill="#e5b472" height="2.5" id="r_pins_horz.pin5.pad" rx="0.2" ry="0.2" width="1.0" x="74.64285714285714" y="26.45952380952381"/>
    <rect fill="#e5b472" height="2.5" id="r_pins_horz.pin6.pad" rx="0.2" ry="0.2" width="1.0" x="76.64285714285714" y="26.45952380952381"/>
    <rect fill="#4e4c4c" height="2.0" width="0.2" x="67.04285714285714" y="29.509523809523806"/>
    <rect fill="#4e4c4c" height="0.2" width="0.2" x="66.84285714285714" y="31.30952380952381"/>
    <rect height="0.0" id="tuya2.back.pins.label1.anchor" width="0.0" x="131.98571428571427" y="42.81904761904762"/>
    <rect fill="#4e4c4c" height="4.0" width="0.2" x="69.04285714285714" y="29.509523809523806"/>
    <rect fill="#4e4c4c" height="0.2" width="2.2" x="66.84285714285714" y="33.30952380952381"/>
    <rect height="0.0" id="tuya2.back.pins.label2.anchor" width="0.0" x="131.98571428571427" y="44.81904761904762"/>
    <rect fill="#4e4c4c" height="6.0" width="0.2" x="71.04285714285714" y="29.509523809523806"/>
    <rect fill="#4e4c4c" height="0.2" width="4.2" x="66.84285714285714" y="35.30952380952381"/>
    <rect height="0.0" id="tuya2.back.pins.label3.anchor" width="0.0" x="131.98571428571427" y="46.81904761904762"/>
    <rect fill="#4e4c4c" height="6.0" width="0.2" x="73.04285714285714" y="29.509523809523806"/>
    <rect fill="#4e4c4c" height="0.2" width="4.2" x="73.14285714285714" y="35.30952380952381"/>
    <rect height="0.0" id="tuya2.back.pins.label4.anchor" width="0.0" x="141.48571428571427" y="46.81904761904762"/>
    <rect fill="#4e4c4c" height="4.0" width="0.2" x="75.04285714285714" y="29.509523809523806"/>
    <rect fill="#4e4c4c" height="0.2" width="2.2" x="75.14285714285714" y="33.30952380952381"/>
    <rect height="0.0" id="tuya2.back.pins.label5.anchor" width="0.0" x="141.48571428571427" y="44.81904761904762"/>
    <rect fill="#4e4c4c" height="2.0" width="0.2" x="77.04285714285714" y="29.509523809523806"/>
    <rect fill="#4e4c4c" height="0.2" width="0.2" x="77.14285714285714" y="31.30952380952381"/>
    <rect height="0.0" id="tuya2.back.pins.label6.anchor" width="0.0" x="141.48571428571427" y="42.81904761904762"/>
    <circle cx="70.04285714285714" cy="25.90952380952381" fill="#e5b472" r="0.5"/>
    <circle cx="70.04285714285714" cy="24.609523809523807" fill="#e5b472" r="0.5"/>
    <rect fill="#4e4c4c" height="0.0" width="0.2" x="69.14285714285714" y="25.80952380952381"/>
    <rect fill="#4e4c4c" height="0.2" width="2.3000000000000003" x="66.84285714285714" y="25.80952380952381"/>
    <rect height="0.0" id="wr2e.back.rxd.anchor" width="0.0" x="131.98571428571427" y="37.31904761904762"/>
    <rect fill="#4e4c4c" height="0.5" width="0.2" x="69.94285714285714" y="23.10952380952381"/>
    <rect fill="#4e4c4c" height="0.2" width="2.9000000000000004" x="67.04285714285714" y="23.10952380952381"/>
    <rect height="0.0" id="wr2e.back.txd.anchor" width="0.0" x="132.18571428571428" y="34.61904761904762"/>
    <rect fill="#4e4c4c" height="0.2" width="2.6" x="64.24285714285713" y="31.30952380952381"/>
    <g transform="translate(62.05721649680204,30.60952380952381)">
        <rect fill="#4e4c4c" height="1.6" rx="0.3" ry="0.3" transform="skewX(-15)" width="1.8" x="0" y="0"/>
    </g>
    <text dominant-baseline="central" fill="white" font-family="Consolas" font-size="1.2" text-anchor="middle" x="62.74285714285714" y="31.40952380952381">1</text>
    <g transform="translate(58.45721649680204,30.60952380952381)">
        <rect fill="#cd3c24" height="1.6" rx="0.3" ry="0.3" transform="skewX(-15)" width="3.4" x="0" y="0"/>
    </g>
    <text dominant-baseline="central" fill="white" font-family="Consolas" font-size="1.2" text-anchor="middle" x="59.94285714285714" y="31.40952380952381">3V3</text>
    <rect fill="#4e4c4c" height="0.2" width="2.6" x="64.24285714285713" y="33.30952380952381"/>
    <g transform="translate(62.05721649680204,32.609523809523814)">
        <rect fill="#4e4c4c" height="1.6" rx="0.3" ry="0.3" transform="skewX(-15)" width="1.8" x="0" y="0"/>
    </g>
    <text dominant-baseline="central" fill="white" font-family="Consolas" font-size="1.2" text-anchor="middle" x="62.74285714285714" y="33.40952380952381">3</text>
    <g transform="translate(58.45721649680204,32.609523809523814)">
        <rect fill="#000" height="1.6" rx="0.3" ry="0.3" transform="skewX(-15)" width="3.4" x="0" y="0"/>
    </g>
    <text dominant-baseline="central" fill="white" font-family="Consolas" font-size="1.2" text-anchor="middle" x="59.94285714285714" y="33.40952380952381">GND</text>
    <rect fill="#4e4c4c" height="0.2" width="2.6" x="64.24285714285713" y="35.30952380952381"/>
    <g transform="translate(62.05721649680204,34.609523809523814)">
        <rect fill="#4e4c4c" height="1.6" rx="0.3" ry="0.3" transform="skewX(-15)" width="1.8" x="0" y="0"/>
    </g>
    <text dominant-baseline="central" fill="white" font-family="Consolas" font-size="1.2" text-anchor="middle" x="62.74285714285714" y="35.40952380952381">5</text>
    <g transform="translate(58.45721649680204,34.609523809523814)">
        <rect fill="#800000" height="1.6" rx="0.3" ry="0.3" transform="skewX(-15)" width="3.4" x="0" y="0"/>
    </g>
    <text dominant-baseline="central" fill="white" font-family="Consolas" font-size="1.2" text-anchor="middle" x="59.94285714285714" y="35.40952380952381">PA18</text>
    <g transform="translate(54.85721649680204,34.609523809523814)">
        <rect fill="#dcd4ee" height="1.6" rx="0.3" ry="0.3" transform="skewX(-15)" width="3.4" x="0" y="0"/>
    </g>
    <text dominant-baseline="central" fill="#423F42" font-family="Consolas" font-size="1.2" text-anchor="middle" x="56.34285714285714" y="35.40952380952381">RX0</text>
    <g transform="translate(51.25721649680204,34.609523809523814)">
        <rect fill="#f95" height="1.6" rx="0.3" ry="0.3" transform="skewX(-15)" width="3.4" x="0" y="0"/>
    </g>
    <text dominant-baseline="central" fill="#423F42" font-family="Consolas" font-size="1.2" text-anchor="middle" x="52.74285714285714" y="35.40952380952381">SCL1</text>
    <rect fill="#4e4c4c" height="0.2" width="2.6" x="77.34285714285714" y="35.30952380952381"/>
    <g transform="translate(80.75721649680203,34.609523809523814)">
        <rect fill="#4e4c4c" height="1.6" rx="0.3" ry="0.3" transform="skewX(-15)" width="1.8" x="0" y="0"/>
    </g>
    <text dominant-baseline="central" fill="white" font-family="Consolas" font-size="1.2" text-anchor="middle" x="81.44285714285714" y="35.40952380952381">7</text>
    <g transform="translate(82.75721649680203,34.609523809523814)">
        <rect fill="#800000" height="1.6" rx="0.3" ry="0.3" transform="skewX(-15)" width="3.4" x="0" y="0"/>
    </g>
    <text dominant-baseline="central" fill="white" font-family="Consolas" font-size="1.2" text-anchor="middle" x="84.24285714285713" y="35.40952380952381">PA23</text>
    <g transform="translate(86.35721649680204,34.609523809523814)">
        <rect fill="#dcd4ee" height="1.6" rx="0.3" ry="0.3" transform="skewX(-15)" width="3.4" x="0" y="0"/>
    </g>
    <text dominant-baseline="central" fill="#423F42" font-family="Consolas" font-size="1.2" text-anchor="middle" x="87.84285714285714" y="35.40952380952381">TX0</text>
    <g transform="translate(89.95721649680203,34.609523809523814)">
        <rect fill="#f95" height="1.6" rx="0.3" ry="0.3" transform="skewX(-15)" width="3.4" x="0" y="0"/>
    </g>
    <text dominant-baseline="central" fill="#423F42" font-family="Consolas" font-size="1.2" text-anchor="middle" x="91.44285714285714" y="35.40952380952381">SDA1</text>
    <g transform="translate(93.55721649680203,34.609523809523814)">
        <rect fill="#afa35e" height="1.6" rx="0.3" ry="0.3" transform="skewX(-15)" width="3.4" x="0" y="0"/>
    </g>
    <text dominant-baseline="central" fill="#423F42" font-family="Consolas" font-size="1.2" text-anchor="middle" x="95.04285714285713" y="35.40952380952381">PWM0</text>
    <rect fill="#4e4c4c" height="0.2" width="2.6" x="77.34285714285714" y="33.30952380952381"/>
    <g transform="translate(80.75721649680203,32.609523809523814)">
        <rect fill="#4e4c4c" height="1.6" rx="0.3" ry="0.3" transform="skewX(-15)" width="1.8" x="0" y="0"/>
    </g>
    <text dominant-baseline="central" fill="white" font-family="Consolas" font-size="1.2" text-anchor="middle" x="81.44285714285714" y="33.40952380952381">9</text>
    <g transform="translate(82.75721649680203,32.609523809523814)">
        <rect fill="#800000" height="1.6" rx="0.3" ry="0.3" transform="skewX(-15)" width="3.4" x="0" y="0"/>
    </g>
    <text dominant-baseline="central" fill="white" font-family="Consolas" font-size="1.2" text-anchor="middle" x="84.24285714285713" y="33.40952380952381">PA14</text>
    <g transform="translate(86.35721649680204,32.609523809523814)">
        <rect fill="#afa35e" height="1.6" rx="0.3" ry="0.3" transform="skewX(-15)" width="3.4" x="0" y="0"/>
    </g>
    <text dominant-baseline="central" fill="#423F42" font-family="Consolas" font-size="1.2" text-anchor="middle" x="87.84285714285714" y="33.40952380952381">PWM0</text>
    <g transform="translate(89.95721649680203,32.609523809523814)">
        <rect fill="#ffe680" height="1.6" rx="0.3" ry="0.3" transform="skewX(-15)" width="3.4" x="0" y="0"/>
    </g>
    <text dominant-baseline="central" fill="#423F42" font-family="Consolas" font-size="1.2" text-anchor="middle" x="91.44285714285714" y="33.40952380952381">SWCLK</text>
    <rect fill="#4e4c4c" height="0.2" width="2.6" x="77.34285714285714" y="31.30952380952381"/>
    <g transform="translate(80.75721649680203,30.60952380952381)">
        <rect fill="#4e4c4c" height="1.6" rx="0.3" ry="0.3" transform="skewX(-15)" width="1.8" x="0" y="0"/>
    </g>
    <text dominant-baseline="central" fill="white" font-family="Consolas" font-size="1.2" text-anchor="middle" x="81.44285714285714" y="31.40952380952381">11</text>
    <g transform="translate(82.75721649680203,30.60952380952381)">
        <rect fill="#800000" height="1.6" rx="0.3" ry="0.3" transform="skewX(-15)" width="3.4" x="0" y="0"/>
    </g>
    <text dominant-baseline="central" fill="white" font-family="Consolas" font-size="1.2" text-anchor="middle" x="84.24285714285713" y="31.40952380952381">PA15</text>
    <g transform="translate(86.35721649680204,30.60952380952381)">
        <rect fill="#afa35e" height="1.6" rx="0.3" ry="0.3" transform="skewX(-15)" width="3.4" x="0" y="0"/>
    </g>
    <text dominant-baseline="central" fill="#423F42" font-family="Consolas" font-size="1.2" text-anchor="middle" x="87.84285714285714" y="31.40952380952381">PWM1</text>
    <g transform="translate(89.95721649680203,30.60952380952381)">
        <rect fill="#ffe680" height="1.6" rx="0.3" ry="0.3" transform="skewX(-15)" width="3.4" x="0" y="0"/>
    </g>
    <text dominant-baseline="central" fill="#423F42" font-family="Consolas" font-size="1.2" text-anchor="middle" x="91.44285714285714" y="31.40952380952381">SWDIO</text>
    <rect fill="#4e4c4c" height="0.2" width="2.6" x="64.44285714285715" y="23.109523809523807"/>
    <g transform="translate(60.657216496802036,22.409523809523808)">
        <rect fill="#800000" height="1.6" rx="0.3" ry="0.3" transform="skewX(-15)" width="3.4" x="0" y="0"/>
    </g>
    <text dominant-baseline="central" fill="white" font-family="Consolas" font-size="1.2" text-anchor="middle" x="62.14285714285714" y="23.20952380952381">PA30</text>
    <g transform="translate(57.05721649680204,22.409523809523808)">
        <rect fill="#dcd4ee" height="1.6" rx="0.3" ry="0.3" transform="skewX(-15)" width="3.4" x="0" y="0"/>
    </g>
    <text dominant-baseline="central" fill="#423F42" font-family="Consolas" font-size="1.2" text-anchor="middle" x="58.542857142857144" y="23.20952380952381">TX2</text>
    <g transform="translate(53.45721649680204,22.409523809523808)">
        <rect fill="#afa35e" height="1.6" rx="0.3" ry="0.3" transform="skewX(-15)" width="3.4" x="0" y="0"/>
    </g>
    <text dominant-baseline="central" fill="#423F42" font-family="Consolas" font-size="1.2" text-anchor="middle" x="54.94285714285714" y="23.20952380952381">PWM4</text>
    <rect fill="#4e4c4c" height="0.2" width="2.6" x="64.24285714285713" y="25.80952380952381"/>
    <g transform="translate(60.45721649680204,25.10952380952381)">
        <rect fill="#800000" height="1.6" rx="0.3" ry="0.3" transform="skewX(-15)" width="3.4" x="0" y="0"/>
    </g>
    <text dominant-baseline="central" fill="white" font-family="Consolas" font-size="1.2" text-anchor="middle" x="61.94285714285714" y="25.90952380952381">PA29</text>
    <g transform="translate(56.85721649680204,25.10952380952381)">
        <rect fill="#dcd4ee" height="1.6" rx="0.3" ry="0.3" transform="skewX(-15)" width="3.4" x="0" y="0"/>
    </g>
    <text dominant-baseline="central" fill="#423F42" font-family="Consolas" font-size="1.2" text-anchor="middle" x="58.34285714285714" y="25.90952380952381">RX2</text>
    <g transform="translate(53.25721649680204,25.10952380952381)">
        <rect fill="#f95" height="1.6" rx="0.3" ry="0.3" transform="skewX(-15)" width="3.4" x="0" y="0"/>
    </g>
    <text dominant-baseline="central" fill="#423F42" font-family="Consolas" font-size="1.2" text-anchor="middle" x="54.74285714285714" y="25.90952380952381">SCL0</text>
    <g transform="translate(49.657216496802036,25.10952380952381)">
        <rect fill="#afa35e" height="1.6" rx="0.3" ry="0.3" transform="skewX(-15)" width="3.4" x="0" y="0"/>
    </g>
    <text dominant-baseline="central" fill="#423F42" font-family="Consolas" font-size="1.2" text-anchor="middle" x="51.14285714285714" y="25.90952380952381">PWM4</text>
</svg>
