<?xml version="1.0" encoding="utf-8" ?>
<svg xmlns="http://www.w3.org/2000/svg" xmlns:ev="http://www.w3.org/2001/xml-events" xmlns:xlink="http://www.w3.org/1999/xlink" baseProfile="full" height="500" version="1.1" viewBox="0,0,85.33333333333333,41.666666666666664" width="1024">
    <defs/>
    <rect fill="white" height="41.666666666666664" stroke="black" stroke-width="0.1" width="85.33333333333333" x="0" y="0"/>
    <linearGradient gradientUnits="objectBoundingBox" id="id1" x1="1.0" x2="0.0" y1="0.0" y2="1.0">
        <stop offset="0%" stop-color="#4d4d4d"/>
        <stop offset="100%" stop-color="#0f0f0f"/>
    </linearGradient>
    <rect fill="url(#id1) none" height="23.9" stroke="#b5a739" stroke-width="0.1" width="15.9" x="34.66666666666666" y="8.883333333333333"/>
    <linearGradient gradientUnits="objectBoundingBox" id="id2" x1="1.0" x2="0.0" y1="0.0" y2="1.0">
        <stop offset="0%" stop-color="whitesmoke"/>
        <stop offset="100%" stop-color="#999"/>
    </linearGradient>
    <rect fill="url(#id2) none" height="16.8" rx="0.5" ry="0.5" width="13.6" x="35.81666666666666" y="15.783333333333331"/>
    <rect fill="#e5b472" height="1.2" id="esp12s.front.left.pin1.trace" width="0.7" x="34.61666666666666" y="16.733333333333334"/>
    <circle cx="34.61666666666666" cy="17.333333333333332" fill="#fff" id="esp12s.front.left.pin1.cast" r="0.35"/>
    <rect fill="#e5b472" height="1.2" id="esp12s.front.left.pin2.trace" width="0.7" x="34.61666666666666" y="18.733333333333334"/>
    <circle cx="34.61666666666666" cy="19.333333333333332" fill="#fff" id="esp12s.front.left.pin2.cast" r="0.35"/>
    <rect fill="#e5b472" height="1.2" id="esp12s.front.left.pin3.trace" width="0.7" x="34.61666666666666" y="20.733333333333334"/>
    <circle cx="34.61666666666666" cy="21.333333333333332" fill="#fff" id="esp12s.front.left.pin3.cast" r="0.35"/>
    <rect fill="#e5b472" height="1.2" id="esp12s.front.left.pin4.trace" width="0.7" x="34.61666666666666" y="22.733333333333334"/>
    <circle cx="34.61666666666666" cy="23.333333333333332" fill="#fff" id="esp12s.front.left.pin4.cast" r="0.35"/>
    <rect fill="#e5b472" height="1.2" id="esp12s.front.left.pin5.trace" width="0.7" x="34.61666666666666" y="24.733333333333334"/>
    <circle cx="34.61666666666666" cy="25.333333333333332" fill="#fff" id="esp12s.front.left.pin5.cast" r="0.35"/>
    <rect fill="#e5b472" height="1.2" id="esp12s.front.left.pin6.trace" width="0.7" x="34.61666666666666" y="26.73333333333333"/>
    <circle cx="34.61666666666666" cy="27.333333333333332" fill="#fff" id="esp12s.front.left.pin6.cast" r="0.35"/>
    <rect fill="#e5b472" height="1.2" id="esp12s.front.left.pin7.trace" width="0.7" x="34.61666666666666" y="28.73333333333333"/>
    <circle cx="34.61666666666666" cy="29.333333333333332" fill="#fff" id="esp12s.front.left.pin7.cast" r="0.35"/>
    <rect fill="#e5b472" height="1.2" id="esp12s.front.left.pin8.trace" width="0.7" x="34.61666666666666" y="30.73333333333333"/>
    <circle cx="34.61666666666666" cy="31.333333333333332" fill="#fff" id="esp12s.front.left.pin8.cast" r="0.35"/>
    <rect fill="#e5b472" height="1.2" id="esp12s.front.right.pin1.trace" width="0.7" x="49.91666666666666" y="16.733333333333334"/>
    <circle cx="50.61666666666666" cy="17.333333333333332" fill="#fff" id="esp12s.front.right.pin1.cast" r="0.35"/>
    <rect fill="#e5b472" height="1.2" id="esp12s.front.right.pin2.trace" width="0.7" x="49.91666666666666" y="18.733333333333334"/>
    <circle cx="50.61666666666666" cy="19.333333333333332" fill="#fff" id="esp12s.front.right.pin2.cast" r="0.35"/>
    <rect fill="#e5b472" height="1.2" id="esp12s.front.right.pin3.trace" width="0.7" x="49.91666666666666" y="20.733333333333334"/>
    <circle cx="50.61666666666666" cy="21.333333333333332" fill="#fff" id="esp12s.front.right.pin3.cast" r="0.35"/>
    <rect fill="#e5b472" height="1.2" id="esp12s.front.right.pin4.trace" width="0.7" x="49.91666666666666" y="22.733333333333334"/>
    <circle cx="50.61666666666666" cy="23.333333333333332" fill="#fff" id="esp12s.front.right.pin4.cast" r="0.35"/>
    <rect fill="#e5b472" height="1.2" id="esp12s.front.right.pin5.trace" width="0.7" x="49.91666666666666" y="24.733333333333334"/>
    <circle cx="50.61666666666666" cy="25.333333333333332" fill="#fff" id="esp12s.front.right.pin5.cast" r="0.35"/>
    <rect fill="#e5b472" height="1.2" id="esp12s.front.right.pin6.trace" width="0.7" x="49.91666666666666" y="26.73333333333333"/>
    <circle cx="50.61666666666666" cy="27.333333333333332" fill="#fff" id="esp12s.front.right.pin6.cast" r="0.35"/>
    <rect fill="#e5b472" height="1.2" id="esp12s.front.right.pin7.trace" width="0.7" x="49.91666666666666" y="28.73333333333333"/>
    <circle cx="50.61666666666666" cy="29.333333333333332" fill="#fff" id="esp12s.front.right.pin7.cast" r="0.35"/>
    <rect fill="#e5b472" height="1.2" id="esp12s.front.right.pin8.trace" width="0.7" x="49.91666666666666" y="30.73333333333333"/>
    <circle cx="50.61666666666666" cy="31.333333333333332" fill="#fff" id="esp12s.front.right.pin8.cast" r="0.35"/>
    <rect fill="#505050" height="5.2" width="0.5" x="35.71666666666666" y="9.633333333333333"/>
    <rect fill="#505050" height="0.5" width="4.6" x="35.71666666666666" y="9.633333333333333"/>
    <rect fill="#505050" height="5.2" width="0.5" x="37.91666666666666" y="9.633333333333333"/>
    <rect fill="#505050" height="3.0" width="0.5" x="39.81666666666666" y="9.633333333333333"/>
    <rect fill="#505050" height="0.5" width="3.0" x="39.81666666666666" y="12.133333333333333"/>
    <rect fill="#505050" height="3.0" width="0.5" x="42.31666666666666" y="9.633333333333333"/>
    <rect fill="#505050" height="0.5" width="2.7" x="42.31666666666666" y="9.633333333333333"/>
    <rect fill="#505050" height="3.0" width="0.5" x="44.51666666666666" y="9.633333333333333"/>
    <rect fill="#505050" height="0.5" width="3.0" x="44.51666666666666" y="12.133333333333333"/>
    <rect fill="#505050" height="3.0" width="0.5" x="47.01666666666666" y="9.633333333333333"/>
    <rect fill="#505050" height="0.5" width="2.5" x="47.01666666666666" y="9.633333333333333"/>
    <rect fill="#505050" height="4.4" width="0.5" x="49.01666666666666" y="9.633333333333333"/>
    <rect fill="#4e4c4c" height="0.2" width="2.6" x="31.51666666666666" y="17.23333333333333"/>
    <g transform="translate(29.331026020611557,16.53333333333333)">
        <rect fill="#4e4c4c" height="1.6" rx="0.3" ry="0.3" transform="skewX(-15)" width="1.8" x="0" y="0"/>
    </g>
    <text dominant-baseline="central" fill="white" font-family="Consolas" font-size="1.2" text-anchor="middle" x="30.01666666666666" y="17.333333333333332">1</text>
    <g transform="translate(25.731026020611555,16.53333333333333)">
        <rect fill="#800000" height="1.6" rx="0.3" ry="0.3" transform="skewX(-15)" width="3.4" x="0" y="0"/>
    </g>
    <text dominant-baseline="central" fill="white" font-family="Consolas" font-size="1.2" text-anchor="middle" x="27.216666666666658" y="17.333333333333332">PA17</text>
    <g transform="translate(22.131026020611557,16.53333333333333)">
        <rect fill="#afa35e" height="1.6" rx="0.3" ry="0.3" transform="skewX(-15)" width="3.4" x="0" y="0"/>
    </g>
    <text dominant-baseline="central" fill="#423F42" font-family="Consolas" font-size="1.2" text-anchor="middle" x="23.61666666666666" y="17.333333333333332">PWM5</text>
    <rect fill="#4e4c4c" height="0.2" width="2.6" x="31.51666666666666" y="19.23333333333333"/>
    <g transform="translate(29.331026020611557,18.53333333333333)">
        <rect fill="#4e4c4c" height="1.6" rx="0.3" ry="0.3" transform="skewX(-15)" width="1.8" x="0" y="0"/>
    </g>
    <text dominant-baseline="central" fill="white" font-family="Consolas" font-size="1.2" text-anchor="middle" x="30.01666666666666" y="19.333333333333332">2</text>
    <g transform="translate(25.731026020611555,18.53333333333333)">
        <rect fill="#800000" height="1.6" rx="0.3" ry="0.3" transform="skewX(-15)" width="3.4" x="0" y="0"/>
    </g>
    <text dominant-baseline="central" fill="white" font-family="Consolas" font-size="1.2" text-anchor="middle" x="27.216666666666658" y="19.333333333333332">PA18</text>
    <g transform="translate(22.131026020611557,18.53333333333333)">
        <rect fill="#afa35e" height="1.6" rx="0.3" ry="0.3" transform="skewX(-15)" width="3.4" x="0" y="0"/>
    </g>
    <text dominant-baseline="central" fill="#423F42" font-family="Consolas" font-size="1.2" text-anchor="middle" x="23.61666666666666" y="19.333333333333332">PWM6</text>
    <rect fill="#4e4c4c" height="0.2" width="2.6" x="31.51666666666666" y="21.23333333333333"/>
    <g transform="translate(29.331026020611557,20.53333333333333)">
        <rect fill="#4e4c4c" height="1.6" rx="0.3" ry="0.3" transform="skewX(-15)" width="1.8" x="0" y="0"/>
    </g>
    <text dominant-baseline="central" fill="white" font-family="Consolas" font-size="1.2" text-anchor="middle" x="30.01666666666666" y="21.333333333333332">3</text>
    <g transform="translate(25.731026020611555,20.53333333333333)">
        <rect fill="#ed602e" height="1.6" rx="0.3" ry="0.3" transform="skewX(-15)" width="3.4" x="0" y="0"/>
    </g>
    <text dominant-baseline="central" fill="#423F42" font-family="Consolas" font-size="1.2" text-anchor="middle" x="27.216666666666658" y="21.333333333333332">CEN</text>
    <rect fill="#4e4c4c" height="0.2" width="2.6" x="31.51666666666666" y="23.23333333333333"/>
    <g transform="translate(29.331026020611557,22.53333333333333)">
        <rect fill="#4e4c4c" height="1.6" rx="0.3" ry="0.3" transform="skewX(-15)" width="1.8" x="0" y="0"/>
    </g>
    <text dominant-baseline="central" fill="white" font-family="Consolas" font-size="1.2" text-anchor="middle" x="30.01666666666666" y="23.333333333333332">4</text>
    <g transform="translate(25.731026020611555,22.53333333333333)">
        <rect fill="#800000" height="1.6" rx="0.3" ry="0.3" transform="skewX(-15)" width="3.4" x="0" y="0"/>
    </g>
    <text dominant-baseline="central" fill="white" font-family="Consolas" font-size="1.2" text-anchor="middle" x="27.216666666666658" y="23.333333333333332">PA02</text>
    <g transform="translate(22.131026020611557,22.53333333333333)">
        <rect fill="#dcd4ee" height="1.6" rx="0.3" ry="0.3" transform="skewX(-15)" width="3.4" x="0" y="0"/>
    </g>
    <text dominant-baseline="central" fill="#423F42" font-family="Consolas" font-size="1.2" text-anchor="middle" x="23.61666666666666" y="23.333333333333332">RX1</text>
    <g transform="translate(18.53102602061156,22.53333333333333)">
        <rect fill="#f95" height="1.6" rx="0.3" ry="0.3" transform="skewX(-15)" width="3.4" x="0" y="0"/>
    </g>
    <text dominant-baseline="central" fill="#423F42" font-family="Consolas" font-size="1.2" text-anchor="middle" x="20.016666666666662" y="23.333333333333332">SCL0</text>
    <g transform="translate(14.93102602061156,22.53333333333333)">
        <rect fill="#e9ba33" height="1.6" rx="0.3" ry="0.3" transform="skewX(-15)" width="3.4" x="0" y="0"/>
    </g>
    <text dominant-baseline="central" fill="#423F42" font-family="Consolas" font-size="1.2" text-anchor="middle" x="16.41666666666666" y="23.333333333333332">CS0</text>
    <g transform="translate(11.331026020611558,22.53333333333333)">
        <rect fill="#afa35e" height="1.6" rx="0.3" ry="0.3" transform="skewX(-15)" width="3.4" x="0" y="0"/>
    </g>
    <text dominant-baseline="central" fill="#423F42" font-family="Consolas" font-size="1.2" text-anchor="middle" x="12.81666666666666" y="23.333333333333332">PWM2</text>
    <g transform="translate(7.731026020611557,22.53333333333333)">
        <rect fill="#ffe680" height="1.6" rx="0.3" ry="0.3" transform="skewX(-15)" width="3.4" x="0" y="0"/>
    </g>
    <text dominant-baseline="central" fill="#423F42" font-family="Consolas" font-size="1.2" text-anchor="middle" x="9.216666666666658" y="23.333333333333332">TDO</text>
    <rect fill="#4e4c4c" height="0.2" width="2.6" x="31.51666666666666" y="25.23333333333333"/>
    <g transform="translate(29.331026020611557,24.53333333333333)">
        <rect fill="#4e4c4c" height="1.6" rx="0.3" ry="0.3" transform="skewX(-15)" width="1.8" x="0" y="0"/>
    </g>
    <text dominant-baseline="central" fill="white" font-family="Consolas" font-size="1.2" text-anchor="middle" x="30.01666666666666" y="25.333333333333332">5</text>
    <g transform="translate(25.731026020611555,24.53333333333333)">
        <rect fill="#800000" height="1.6" rx="0.3" ry="0.3" transform="skewX(-15)" width="3.4" x="0" y="0"/>
    </g>
    <text dominant-baseline="central" fill="white" font-family="Consolas" font-size="1.2" text-anchor="middle" x="27.216666666666658" y="25.333333333333332">PA15</text>
    <g transform="translate(22.131026020611557,24.53333333333333)">
        <rect fill="#dcd4ee" height="1.6" rx="0.3" ry="0.3" transform="skewX(-15)" width="3.4" x="0" y="0"/>
    </g>
    <text dominant-baseline="central" fill="#423F42" font-family="Consolas" font-size="1.2" text-anchor="middle" x="23.61666666666666" y="25.333333333333332">RX2</text>
    <g transform="translate(18.53102602061156,24.53333333333333)">
        <rect fill="#f95" height="1.6" rx="0.3" ry="0.3" transform="skewX(-15)" width="3.4" x="0" y="0"/>
    </g>
    <text dominant-baseline="central" fill="#423F42" font-family="Consolas" font-size="1.2" text-anchor="middle" x="20.016666666666662" y="25.333333333333332">SCL0</text>
    <g transform="translate(14.93102602061156,24.53333333333333)">
        <rect fill="#e9ba33" height="1.6" rx="0.3" ry="0.3" transform="skewX(-15)" width="3.4" x="0" y="0"/>
    </g>
    <text dominant-baseline="central" fill="#423F42" font-family="Consolas" font-size="1.2" text-anchor="middle" x="16.41666666666666" y="25.333333333333332">CS0</text>
    <g transform="translate(11.331026020611558,24.53333333333333)">
        <rect fill="#afa35e" height="1.6" rx="0.3" ry="0.3" transform="skewX(-15)" width="3.4" x="0" y="0"/>
    </g>
    <text dominant-baseline="central" fill="#423F42" font-family="Consolas" font-size="1.2" text-anchor="middle" x="12.81666666666666" y="25.333333333333332">PWM3</text>
    <rect fill="#4e4c4c" height="0.2" width="2.6" x="31.51666666666666" y="27.23333333333333"/>
    <g transform="translate(29.331026020611557,26.53333333333333)">
        <rect fill="#4e4c4c" height="1.6" rx="0.3" ry="0.3" transform="skewX(-15)" width="1.8" x="0" y="0"/>
    </g>
    <text dominant-baseline="central" fill="white" font-family="Consolas" font-size="1.2" text-anchor="middle" x="30.01666666666666" y="27.333333333333332">6</text>
    <g transform="translate(25.731026020611555,26.53333333333333)">
        <rect fill="#800000" height="1.6" rx="0.3" ry="0.3" transform="skewX(-15)" width="3.4" x="0" y="0"/>
    </g>
    <text dominant-baseline="central" fill="white" font-family="Consolas" font-size="1.2" text-anchor="middle" x="27.216666666666658" y="27.333333333333332">PA04</text>
    <g transform="translate(22.131026020611557,26.53333333333333)">
        <rect fill="#e9ba33" height="1.6" rx="0.3" ry="0.3" transform="skewX(-15)" width="3.4" x="0" y="0"/>
    </g>
    <text dominant-baseline="central" fill="#423F42" font-family="Consolas" font-size="1.2" text-anchor="middle" x="23.61666666666666" y="27.333333333333332">MOSI0</text>
    <g transform="translate(18.53102602061156,26.53333333333333)">
        <rect fill="#afa35e" height="1.6" rx="0.3" ry="0.3" transform="skewX(-15)" width="3.4" x="0" y="0"/>
    </g>
    <text dominant-baseline="central" fill="#423F42" font-family="Consolas" font-size="1.2" text-anchor="middle" x="20.016666666666662" y="27.333333333333332">PWM4</text>
    <g transform="translate(14.93102602061156,26.53333333333333)">
        <rect fill="#ffe680" height="1.6" rx="0.3" ry="0.3" transform="skewX(-15)" width="3.4" x="0" y="0"/>
    </g>
    <text dominant-baseline="central" fill="#423F42" font-family="Consolas" font-size="1.2" text-anchor="middle" x="16.41666666666666" y="27.333333333333332">tRST</text>
    <rect fill="#4e4c4c" height="0.2" width="2.6" x="31.51666666666666" y="29.23333333333333"/>
    <g transform="translate(29.331026020611557,28.53333333333333)">
        <rect fill="#4e4c4c" height="1.6" rx="0.3" ry="0.3" transform="skewX(-15)" width="1.8" x="0" y="0"/>
    </g>
    <text dominant-baseline="central" fill="white" font-family="Consolas" font-size="1.2" text-anchor="middle" x="30.01666666666666" y="29.333333333333332">7</text>
    <g transform="translate(25.731026020611555,28.53333333333333)">
        <rect fill="#800000" height="1.6" rx="0.3" ry="0.3" transform="skewX(-15)" width="3.4" x="0" y="0"/>
    </g>
    <text dominant-baseline="central" fill="white" font-family="Consolas" font-size="1.2" text-anchor="middle" x="27.216666666666658" y="29.333333333333332">PA19</text>
    <g transform="translate(22.131026020611557,28.53333333333333)">
        <rect fill="#f95" height="1.6" rx="0.3" ry="0.3" transform="skewX(-15)" width="3.4" x="0" y="0"/>
    </g>
    <text dominant-baseline="central" fill="#423F42" font-family="Consolas" font-size="1.2" text-anchor="middle" x="23.61666666666666" y="29.333333333333332">SCL0</text>
    <g transform="translate(18.53102602061156,28.53333333333333)">
        <rect fill="#e9ba33" height="1.6" rx="0.3" ry="0.3" transform="skewX(-15)" width="3.4" x="0" y="0"/>
    </g>
    <text dominant-baseline="central" fill="#423F42" font-family="Consolas" font-size="1.2" text-anchor="middle" x="20.016666666666662" y="29.333333333333332">MOSI0</text>
    <g transform="translate(14.93102602061156,28.53333333333333)">
        <rect fill="#afa35e" height="1.6" rx="0.3" ry="0.3" transform="skewX(-15)" width="3.4" x="0" y="0"/>
    </g>
    <text dominant-baseline="central" fill="#423F42" font-family="Consolas" font-size="1.2" text-anchor="middle" x="16.41666666666666" y="29.333333333333332">PWM7</text>
    <rect fill="#4e4c4c" height="0.2" width="2.6" x="31.51666666666666" y="31.23333333333333"/>
    <g transform="translate(29.331026020611557,30.53333333333333)">
        <rect fill="#4e4c4c" height="1.6" rx="0.3" ry="0.3" transform="skewX(-15)" width="1.8" x="0" y="0"/>
    </g>
    <text dominant-baseline="central" fill="white" font-family="Consolas" font-size="1.2" text-anchor="middle" x="30.01666666666666" y="31.333333333333332">8</text>
    <g transform="translate(25.731026020611555,30.53333333333333)">
        <rect fill="#cd3c24" height="1.6" rx="0.3" ry="0.3" transform="skewX(-15)" width="3.4" x="0" y="0"/>
    </g>
    <text dominant-baseline="central" fill="white" font-family="Consolas" font-size="1.2" text-anchor="middle" x="27.216666666666658" y="31.333333333333332">3V3</text>
    <rect fill="#4e4c4c" height="0.2" width="2.6" x="51.11666666666666" y="31.23333333333333"/>
    <g transform="translate(54.53102602061156,30.53333333333333)">
        <rect fill="#4e4c4c" height="1.6" rx="0.3" ry="0.3" transform="skewX(-15)" width="1.8" x="0" y="0"/>
    </g>
    <text dominant-baseline="central" fill="white" font-family="Consolas" font-size="1.2" text-anchor="middle" x="55.21666666666666" y="31.333333333333332">9</text>
    <g transform="translate(56.53102602061156,30.53333333333333)">
        <rect fill="#000" height="1.6" rx="0.3" ry="0.3" transform="skewX(-15)" width="3.4" x="0" y="0"/>
    </g>
    <text dominant-baseline="central" fill="white" font-family="Consolas" font-size="1.2" text-anchor="middle" x="58.016666666666666" y="31.333333333333332">GND</text>
    <rect fill="#4e4c4c" height="0.2" width="2.6" x="51.11666666666666" y="29.23333333333333"/>
    <g transform="translate(54.53102602061156,28.53333333333333)">
        <rect fill="#4e4c4c" height="1.6" rx="0.3" ry="0.3" transform="skewX(-15)" width="1.8" x="0" y="0"/>
    </g>
    <text dominant-baseline="central" fill="white" font-family="Consolas" font-size="1.2" text-anchor="middle" x="55.21666666666666" y="29.333333333333332">10</text>
    <g transform="translate(56.53102602061156,28.53333333333333)">
        <rect fill="#800000" height="1.6" rx="0.3" ry="0.3" transform="skewX(-15)" width="3.4" x="0" y="0"/>
    </g>
    <text dominant-baseline="central" fill="white" font-family="Consolas" font-size="1.2" text-anchor="middle" x="58.016666666666666" y="29.333333333333332">PA20</text>
    <g transform="translate(60.131026020611564,28.53333333333333)">
        <rect fill="#f95" height="1.6" rx="0.3" ry="0.3" transform="skewX(-15)" width="3.4" x="0" y="0"/>
    </g>
    <text dominant-baseline="central" fill="#423F42" font-family="Consolas" font-size="1.2" text-anchor="middle" x="61.61666666666667" y="29.333333333333332">SDA0</text>
    <g transform="translate(63.731026020611566,28.53333333333333)">
        <rect fill="#e9ba33" height="1.6" rx="0.3" ry="0.3" transform="skewX(-15)" width="3.4" x="0" y="0"/>
    </g>
    <text dominant-baseline="central" fill="#423F42" font-family="Consolas" font-size="1.2" text-anchor="middle" x="65.21666666666667" y="29.333333333333332">MISO0</text>
    <g transform="translate(67.33102602061156,28.53333333333333)">
        <rect fill="#afa35e" height="1.6" rx="0.3" ry="0.3" transform="skewX(-15)" width="3.4" x="0" y="0"/>
    </g>
    <text dominant-baseline="central" fill="#423F42" font-family="Consolas" font-size="1.2" text-anchor="middle" x="68.81666666666666" y="29.333333333333332">PWM0</text>
    <rect fill="#4e4c4c" height="0.2" width="2.6" x="51.11666666666666" y="27.23333333333333"/>
    <g transform="translate(54.53102602061156,26.53333333333333)">
        <rect fill="#4e4c4c" height="1.6" rx="0.3" ry="0.3" transform="skewX(-15)" width="1.8" x="0" y="0"/>
    </g>
    <text dominant-baseline="central" fill="white" font-family="Consolas" font-size="1.2" text-anchor="middle" x="55.21666666666666" y="27.333333333333332">11</text>
    <g transform="translate(56.53102602061156,26.53333333333333)">
        <rect fill="#800000" height="1.6" rx="0.3" ry="0.3" transform="skewX(-15)" width="3.4" x="0" y="0"/>
    </g>
    <text dominant-baseline="central" fill="white" font-family="Consolas" font-size="1.2" text-anchor="middle" x="58.016666666666666" y="27.333333333333332">PA16</text>
    <g transform="translate(60.131026020611564,26.53333333333333)">
        <rect fill="#dcd4ee" height="1.6" rx="0.3" ry="0.3" transform="skewX(-15)" width="3.4" x="0" y="0"/>
    </g>
    <text dominant-baseline="central" fill="#423F42" font-family="Consolas" font-size="1.2" text-anchor="middle" x="61.61666666666667" y="27.333333333333332">TX2</text>
    <g transform="translate(63.731026020611566,26.53333333333333)">
        <rect fill="#f95" height="1.6" rx="0.3" ry="0.3" transform="skewX(-15)" width="3.4" x="0" y="0"/>
    </g>
    <text dominant-baseline="central" fill="#423F42" font-family="Consolas" font-size="1.2" text-anchor="middle" x="65.21666666666667" y="27.333333333333332">SDA0</text>
    <g transform="translate(67.33102602061156,26.53333333333333)">
        <rect fill="#e9ba33" height="1.6" rx="0.3" ry="0.3" transform="skewX(-15)" width="3.4" x="0" y="0"/>
    </g>
    <text dominant-baseline="central" fill="#423F42" font-family="Consolas" font-size="1.2" text-anchor="middle" x="68.81666666666666" y="27.333333333333332">SCK0</text>
    <g transform="translate(70.93102602061157,26.53333333333333)">
        <rect fill="#afa35e" height="1.6" rx="0.3" ry="0.3" transform="skewX(-15)" width="3.4" x="0" y="0"/>
    </g>
    <text dominant-baseline="central" fill="#423F42" font-family="Consolas" font-size="1.2" text-anchor="middle" x="72.41666666666667" y="27.333333333333332">PWM4</text>
    <rect fill="#4e4c4c" height="0.2" width="2.6" x="51.11666666666666" y="25.23333333333333"/>
    <g transform="translate(54.53102602061156,24.53333333333333)">
        <rect fill="#4e4c4c" height="1.6" rx="0.3" ry="0.3" transform="skewX(-15)" width="1.8" x="0" y="0"/>
    </g>
    <text dominant-baseline="central" fill="white" font-family="Consolas" font-size="1.2" text-anchor="middle" x="55.21666666666666" y="25.333333333333332">12</text>
    <g transform="translate(56.53102602061156,24.53333333333333)">
        <rect fill="#800000" height="1.6" rx="0.3" ry="0.3" transform="skewX(-15)" width="3.4" x="0" y="0"/>
    </g>
    <text dominant-baseline="central" fill="white" font-family="Consolas" font-size="1.2" text-anchor="middle" x="58.016666666666666" y="25.333333333333332">PA00</text>
    <g transform="translate(60.131026020611564,24.53333333333333)">
        <rect fill="#dcd4ee" height="1.6" rx="0.3" ry="0.3" transform="skewX(-15)" width="3.4" x="0" y="0"/>
    </g>
    <text dominant-baseline="central" fill="#423F42" font-family="Consolas" font-size="1.2" text-anchor="middle" x="61.61666666666667" y="25.333333333333332">RX1</text>
    <g transform="translate(63.731026020611566,24.53333333333333)">
        <rect fill="#afa35e" height="1.6" rx="0.3" ry="0.3" transform="skewX(-15)" width="3.4" x="0" y="0"/>
    </g>
    <text dominant-baseline="central" fill="#423F42" font-family="Consolas" font-size="1.2" text-anchor="middle" x="65.21666666666667" y="25.333333333333332">PWM0</text>
    <g transform="translate(67.33102602061156,24.53333333333333)">
        <rect fill="#ffe680" height="1.6" rx="0.3" ry="0.3" transform="skewX(-15)" width="3.4" x="0" y="0"/>
    </g>
    <text dominant-baseline="central" fill="#423F42" font-family="Consolas" font-size="1.2" text-anchor="middle" x="68.81666666666666" y="25.333333333333332">TCK</text>
    <g transform="translate(70.93102602061157,24.53333333333333)">
        <rect fill="#ffe680" height="1.6" rx="0.3" ry="0.3" transform="skewX(-15)" width="3.4" x="0" y="0"/>
    </g>
    <text dominant-baseline="central" fill="#423F42" font-family="Consolas" font-size="1.2" text-anchor="middle" x="72.41666666666667" y="25.333333333333332">SWCLK</text>
    <rect fill="#4e4c4c" height="0.2" width="2.6" x="51.11666666666666" y="23.23333333333333"/>
    <g transform="translate(54.53102602061156,22.53333333333333)">
        <rect fill="#4e4c4c" height="1.6" rx="0.3" ry="0.3" transform="skewX(-15)" width="1.8" x="0" y="0"/>
    </g>
    <text dominant-baseline="central" fill="white" font-family="Consolas" font-size="1.2" text-anchor="middle" x="55.21666666666666" y="23.333333333333332">13</text>
    <g transform="translate(56.53102602061156,22.53333333333333)">
        <rect fill="#800000" height="1.6" rx="0.3" ry="0.3" transform="skewX(-15)" width="3.4" x="0" y="0"/>
    </g>
    <text dominant-baseline="central" fill="white" font-family="Consolas" font-size="1.2" text-anchor="middle" x="58.016666666666666" y="23.333333333333332">PA03</text>
    <g transform="translate(60.131026020611564,22.53333333333333)">
        <rect fill="#dcd4ee" height="1.6" rx="0.3" ry="0.3" transform="skewX(-15)" width="3.4" x="0" y="0"/>
    </g>
    <text dominant-baseline="central" fill="#423F42" font-family="Consolas" font-size="1.2" text-anchor="middle" x="61.61666666666667" y="23.333333333333332">TX1</text>
    <g transform="translate(63.731026020611566,22.53333333333333)">
        <rect fill="#f95" height="1.6" rx="0.3" ry="0.3" transform="skewX(-15)" width="3.4" x="0" y="0"/>
    </g>
    <text dominant-baseline="central" fill="#423F42" font-family="Consolas" font-size="1.2" text-anchor="middle" x="65.21666666666667" y="23.333333333333332">SDA0</text>
    <g transform="translate(67.33102602061156,22.53333333333333)">
        <rect fill="#e9ba33" height="1.6" rx="0.3" ry="0.3" transform="skewX(-15)" width="3.4" x="0" y="0"/>
    </g>
    <text dominant-baseline="central" fill="#423F42" font-family="Consolas" font-size="1.2" text-anchor="middle" x="68.81666666666666" y="23.333333333333332">SCK0</text>
    <g transform="translate(70.93102602061157,22.53333333333333)">
        <rect fill="#afa35e" height="1.6" rx="0.3" ry="0.3" transform="skewX(-15)" width="3.4" x="0" y="0"/>
    </g>
    <text dominant-baseline="central" fill="#423F42" font-family="Consolas" font-size="1.2" text-anchor="middle" x="72.41666666666667" y="23.333333333333332">PWM3</text>
    <g transform="translate(74.53102602061156,22.53333333333333)">
        <rect fill="#ffe680" height="1.6" rx="0.3" ry="0.3" transform="skewX(-15)" width="3.4" x="0" y="0"/>
    </g>
    <text dominant-baseline="central" fill="#423F42" font-family="Consolas" font-size="1.2" text-anchor="middle" x="76.01666666666667" y="23.333333333333332">TDI</text>
    <rect fill="#4e4c4c" height="0.2" width="2.6" x="51.11666666666666" y="21.23333333333333"/>
    <g transform="translate(54.53102602061156,20.53333333333333)">
        <rect fill="#4e4c4c" height="1.6" rx="0.3" ry="0.3" transform="skewX(-15)" width="1.8" x="0" y="0"/>
    </g>
    <text dominant-baseline="central" fill="white" font-family="Consolas" font-size="1.2" text-anchor="middle" x="55.21666666666666" y="21.333333333333332">14</text>
    <g transform="translate(56.53102602061156,20.53333333333333)">
        <rect fill="#800000" height="1.6" rx="0.3" ry="0.3" transform="skewX(-15)" width="3.4" x="0" y="0"/>
    </g>
    <text dominant-baseline="central" fill="white" font-family="Consolas" font-size="1.2" text-anchor="middle" x="58.016666666666666" y="21.333333333333332">PA01</text>
    <g transform="translate(60.131026020611564,20.53333333333333)">
        <rect fill="#dcd4ee" height="1.6" rx="0.3" ry="0.3" transform="skewX(-15)" width="3.4" x="0" y="0"/>
    </g>
    <text dominant-baseline="central" fill="#423F42" font-family="Consolas" font-size="1.2" text-anchor="middle" x="61.61666666666667" y="21.333333333333332">TX1</text>
    <g transform="translate(63.731026020611566,20.53333333333333)">
        <rect fill="#afa35e" height="1.6" rx="0.3" ry="0.3" transform="skewX(-15)" width="3.4" x="0" y="0"/>
    </g>
    <text dominant-baseline="central" fill="#423F42" font-family="Consolas" font-size="1.2" text-anchor="middle" x="65.21666666666667" y="21.333333333333332">PWM1</text>
    <g transform="translate(67.33102602061156,20.53333333333333)">
        <rect fill="#ffe680" height="1.6" rx="0.3" ry="0.3" transform="skewX(-15)" width="3.4" x="0" y="0"/>
    </g>
    <text dominant-baseline="central" fill="#423F42" font-family="Consolas" font-size="1.2" text-anchor="middle" x="68.81666666666666" y="21.333333333333332">TMS</text>
    <g transform="translate(70.93102602061157,20.53333333333333)">
        <rect fill="#ffe680" height="1.6" rx="0.3" ry="0.3" transform="skewX(-15)" width="3.4" x="0" y="0"/>
    </g>
    <text dominant-baseline="central" fill="#423F42" font-family="Consolas" font-size="1.2" text-anchor="middle" x="72.41666666666667" y="21.333333333333332">SWDIO</text>
    <rect fill="#4e4c4c" height="0.2" width="2.6" x="51.11666666666666" y="19.23333333333333"/>
    <g transform="translate(54.53102602061156,18.53333333333333)">
        <rect fill="#4e4c4c" height="1.6" rx="0.3" ry="0.3" transform="skewX(-15)" width="1.8" x="0" y="0"/>
    </g>
    <text dominant-baseline="central" fill="white" font-family="Consolas" font-size="1.2" text-anchor="middle" x="55.21666666666666" y="19.333333333333332">15</text>
    <g transform="translate(56.53102602061156,18.53333333333333)">
        <rect fill="#800000" height="1.6" rx="0.3" ry="0.3" transform="skewX(-15)" width="3.4" x="0" y="0"/>
    </g>
    <text dominant-baseline="central" fill="white" font-family="Consolas" font-size="1.2" text-anchor="middle" x="58.016666666666666" y="19.333333333333332">PA13</text>
    <g transform="translate(60.131026020611564,18.53333333333333)">
        <rect fill="#dcd4ee" height="1.6" rx="0.3" ry="0.3" transform="skewX(-15)" width="3.4" x="0" y="0"/>
    </g>
    <text dominant-baseline="central" fill="#423F42" font-family="Consolas" font-size="1.2" text-anchor="middle" x="61.61666666666667" y="19.333333333333332">RX0</text>
    <g transform="translate(63.731026020611566,18.53333333333333)">
        <rect fill="#afa35e" height="1.6" rx="0.3" ry="0.3" transform="skewX(-15)" width="3.4" x="0" y="0"/>
    </g>
    <text dominant-baseline="central" fill="#423F42" font-family="Consolas" font-size="1.2" text-anchor="middle" x="65.21666666666667" y="19.333333333333332">PWM7</text>
    <rect fill="#4e4c4c" height="0.2" width="2.6" x="51.11666666666666" y="17.23333333333333"/>
    <g transform="translate(54.53102602061156,16.53333333333333)">
        <rect fill="#4e4c4c" height="1.6" rx="0.3" ry="0.3" transform="skewX(-15)" width="1.8" x="0" y="0"/>
    </g>
    <text dominant-baseline="central" fill="white" font-family="Consolas" font-size="1.2" text-anchor="middle" x="55.21666666666666" y="17.333333333333332">16</text>
    <g transform="translate(56.53102602061156,16.53333333333333)">
        <rect fill="#800000" height="1.6" rx="0.3" ry="0.3" transform="skewX(-15)" width="3.4" x="0" y="0"/>
    </g>
    <text dominant-baseline="central" fill="white" font-family="Consolas" font-size="1.2" text-anchor="middle" x="58.016666666666666" y="17.333333333333332">PA14</text>
    <g transform="translate(60.131026020611564,16.53333333333333)">
        <rect fill="#dcd4ee" height="1.6" rx="0.3" ry="0.3" transform="skewX(-15)" width="3.4" x="0" y="0"/>
    </g>
    <text dominant-baseline="central" fill="#423F42" font-family="Consolas" font-size="1.2" text-anchor="middle" x="61.61666666666667" y="17.333333333333332">TX0</text>
    <g transform="translate(63.731026020611566,16.53333333333333)">
        <rect fill="#afa35e" height="1.6" rx="0.3" ry="0.3" transform="skewX(-15)" width="3.4" x="0" y="0"/>
    </g>
    <text dominant-baseline="central" fill="#423F42" font-family="Consolas" font-size="1.2" text-anchor="middle" x="65.21666666666667" y="17.333333333333332">PWM2</text>
</svg>
