<?xml version="1.0" encoding="utf-8" ?>
<svg xmlns="http://www.w3.org/2000/svg" xmlns:ev="http://www.w3.org/2001/xml-events" xmlns:xlink="http://www.w3.org/1999/xlink" baseProfile="full" height="500" version="1.1" viewBox="0,0,97.52380952380952,47.61904761904762" width="1024">
    <defs/>
    <rect fill="white" height="47.61904761904762" stroke="black" stroke-width="0.1" width="97.52380952380952" x="0" y="0"/>
    <linearGradient gradientUnits="objectBoundingBox" id="id1" x1="1.0" x2="0.0" y1="0.0" y2="1.0">
        <stop offset="0%" stop-color="#4d4d4d"/>
        <stop offset="100%" stop-color="#0f0f0f"/>
    </linearGradient>
    <rect fill="url(#id1) none" height="17.799999999999997" stroke="#b5a739" stroke-width="0.1" width="14.9" x="19.530952380952378" y="11.45952380952381"/>
    <rect fill="#b5a739" height="0.1" width="1.6" x="19.480952380952377" y="25.75952380952381"/>
    <rect fill="#b5a739" height="3.45" width="0.1" x="21.08095238095238" y="25.75952380952381"/>
    <rect fill="#fff" height="3.55" width="1.7" x="19.380952380952376" y="25.859523809523807"/>
    <rect fill="#b5a739" height="0.1" width="1.6" x="32.78095238095238" y="25.75952380952381"/>
    <rect fill="#b5a739" height="3.45" width="0.1" x="32.78095238095238" y="25.75952380952381"/>
    <rect fill="#fff" height="3.55" width="1.7" x="32.88095238095238" y="25.859523809523807"/>
    <linearGradient gradientUnits="objectBoundingBox" id="id2" x1="1.0" x2="0.0" y1="0.0" y2="1.0">
        <stop offset="0%" stop-color="whitesmoke"/>
        <stop offset="100%" stop-color="#999"/>
    </linearGradient>
    <rect fill="url(#id2) none" height="8.0" rx="0.5" ry="0.5" width="14.4" x="19.780952380952378" y="17.40952380952381"/>
    <rect fill="#e5b472" height="2.5" id="r_pins_horz.pin1.pad" rx="0.2" ry="0.2" width="1.0" x="22.480952380952377" y="26.45952380952381"/>
    <rect fill="#e5b472" height="2.5" id="r_pins_horz.pin2.pad" rx="0.2" ry="0.2" width="1.0" x="24.480952380952377" y="26.45952380952381"/>
    <rect fill="#e5b472" height="2.5" id="r_pins_horz.pin3.pad" rx="0.2" ry="0.2" width="1.0" x="26.480952380952377" y="26.45952380952381"/>
    <rect fill="#e5b472" height="2.5" id="r_pins_horz.pin4.pad" rx="0.2" ry="0.2" width="1.0" x="28.480952380952377" y="26.45952380952381"/>
    <rect fill="#e5b472" height="2.5" id="r_pins_horz.pin5.pad" rx="0.2" ry="0.2" width="1.0" x="30.480952380952377" y="26.45952380952381"/>
    <rect fill="#4e4c4c" height="2.0" width="0.2" x="22.880952380952376" y="29.509523809523806"/>
    <rect fill="#4e4c4c" height="0.2" width="0.2" x="22.680952380952377" y="31.30952380952381"/>
    <rect height="0.0" id="tuya2.front.pins.label1.anchor" width="0.0" x="42.66190476190475" y="42.81904761904762"/>
    <rect fill="#4e4c4c" height="4.0" width="0.2" x="24.88095238095238" y="29.509523809523806"/>
    <rect fill="#4e4c4c" height="0.2" width="2.2" x="22.680952380952377" y="33.30952380952381"/>
    <rect height="0.0" id="tuya2.front.pins.label2.anchor" width="0.0" x="42.66190476190475" y="44.81904761904762"/>
    <rect fill="#4e4c4c" height="6.0" width="0.2" x="26.88095238095238" y="29.509523809523806"/>
    <rect fill="#4e4c4c" height="0.2" width="4.2" x="22.680952380952377" y="35.30952380952381"/>
    <rect height="0.0" id="tuya2.front.pins.label3.anchor" width="0.0" x="42.66190476190475" y="46.81904761904762"/>
    <rect fill="#4e4c4c" height="6.0" width="0.2" x="28.88095238095238" y="29.509523809523806"/>
    <rect fill="#4e4c4c" height="0.2" width="4.2" x="28.980952380952377" y="35.30952380952381"/>
    <rect height="0.0" id="tuya2.front.pins.label4.anchor" width="0.0" x="52.16190476190475" y="46.81904761904762"/>
    <rect fill="#4e4c4c" height="4.0" width="0.2" x="30.88095238095238" y="29.509523809523806"/>
    <rect fill="#4e4c4c" height="0.2" width="2.2" x="30.980952380952377" y="33.30952380952381"/>
    <rect height="0.0" id="tuya2.front.pins.label5.anchor" width="0.0" x="52.16190476190475" y="44.81904761904762"/>
    <text fill="#fff" font-family="Consolas" font-size="1.0" x="26.480952380952377" y="16.40952380952381">T102_V1.1</text>
    <rect fill="#505050" height="4.688524590163935" width="0.46875" x="20.512202380952377" y="12.130835284933646"/>
    <rect fill="#505050" height="0.45081967213114754" width="4.3125" x="20.512202380952377" y="12.130835284933646"/>
    <rect fill="#505050" height="4.688524590163935" width="0.46875" x="22.574702380952377" y="12.130835284933646"/>
    <rect fill="#505050" height="2.7049180327868854" width="0.46875" x="24.355952380952377" y="12.130835284933646"/>
    <rect fill="#505050" height="0.45081967213114754" width="2.8125" x="24.355952380952377" y="14.384933645589383"/>
    <rect fill="#505050" height="2.7049180327868854" width="0.46875" x="26.699702380952377" y="12.130835284933646"/>
    <rect fill="#505050" height="0.45081967213114754" width="2.53125" x="26.699702380952377" y="12.130835284933646"/>
    <rect fill="#505050" height="2.7049180327868854" width="0.46875" x="28.762202380952377" y="12.130835284933646"/>
    <rect fill="#505050" height="0.45081967213114754" width="2.8125" x="28.762202380952377" y="14.384933645589383"/>
    <rect fill="#505050" height="2.7049180327868854" width="0.46875" x="31.105952380952377" y="12.130835284933646"/>
    <rect fill="#505050" height="0.45081967213114754" width="2.34375" x="31.105952380952377" y="12.130835284933646"/>
    <rect fill="#505050" height="3.9672131147540988" width="0.46875" x="32.980952380952374" y="12.130835284933646"/>
    <rect fill="#4e4c4c" height="0.2" width="2.6" x="33.18095238095238" y="33.30952380952381"/>
    <g transform="translate(36.59531173489728,32.609523809523814)">
        <rect fill="#4e4c4c" height="1.6" rx="0.3" ry="0.3" transform="skewX(-15)" width="1.8" x="0" y="0"/>
    </g>
    <text dominant-baseline="central" fill="white" font-family="Consolas" font-size="1.2" text-anchor="middle" x="37.28095238095238" y="33.40952380952381">2</text>
    <g transform="translate(38.59531173489728,32.609523809523814)">
        <rect fill="#800000" height="1.6" rx="0.3" ry="0.3" transform="skewX(-15)" width="3.4" x="0" y="0"/>
    </g>
    <text dominant-baseline="central" fill="white" font-family="Consolas" font-size="1.2" text-anchor="middle" x="40.08095238095238" y="33.40952380952381">PA12</text>
    <g transform="translate(42.19531173489728,32.609523809523814)">
        <rect fill="#afa35e" height="1.6" rx="0.3" ry="0.3" transform="skewX(-15)" width="3.4" x="0" y="0"/>
    </g>
    <text dominant-baseline="central" fill="#423F42" font-family="Consolas" font-size="1.2" text-anchor="middle" x="43.680952380952384" y="33.40952380952381">PWM3</text>
    <rect fill="#4e4c4c" height="0.2" width="2.6" x="33.18095238095238" y="35.30952380952381"/>
    <g transform="translate(36.59531173489728,34.609523809523814)">
        <rect fill="#4e4c4c" height="1.6" rx="0.3" ry="0.3" transform="skewX(-15)" width="1.8" x="0" y="0"/>
    </g>
    <text dominant-baseline="central" fill="white" font-family="Consolas" font-size="1.2" text-anchor="middle" x="37.28095238095238" y="35.40952380952381">4</text>
    <g transform="translate(38.59531173489728,34.609523809523814)">
        <rect fill="#800000" height="1.6" rx="0.3" ry="0.3" transform="skewX(-15)" width="3.4" x="0" y="0"/>
    </g>
    <text dominant-baseline="central" fill="white" font-family="Consolas" font-size="1.2" text-anchor="middle" x="40.08095238095238" y="35.40952380952381">PA00</text>
    <g transform="translate(42.19531173489728,34.609523809523814)">
        <rect fill="#afa35e" height="1.6" rx="0.3" ry="0.3" transform="skewX(-15)" width="3.4" x="0" y="0"/>
    </g>
    <text dominant-baseline="central" fill="#423F42" font-family="Consolas" font-size="1.2" text-anchor="middle" x="43.680952380952384" y="35.40952380952381">PWM2</text>
    <rect fill="#4e4c4c" height="0.2" width="2.6" x="20.080952380952375" y="35.30952380952381"/>
    <g transform="translate(17.895311734897277,34.609523809523814)">
        <rect fill="#4e4c4c" height="1.6" rx="0.3" ry="0.3" transform="skewX(-15)" width="1.8" x="0" y="0"/>
    </g>
    <text dominant-baseline="central" fill="white" font-family="Consolas" font-size="1.2" text-anchor="middle" x="18.58095238095238" y="35.40952380952381">6</text>
    <g transform="translate(14.295311734897277,34.609523809523814)">
        <rect fill="#800000" height="1.6" rx="0.3" ry="0.3" transform="skewX(-15)" width="3.4" x="0" y="0"/>
    </g>
    <text dominant-baseline="central" fill="white" font-family="Consolas" font-size="1.2" text-anchor="middle" x="15.780952380952378" y="35.40952380952381">PA05</text>
    <g transform="translate(10.695311734897276,34.609523809523814)">
        <rect fill="#afa35e" height="1.6" rx="0.3" ry="0.3" transform="skewX(-15)" width="3.4" x="0" y="0"/>
    </g>
    <text dominant-baseline="central" fill="#423F42" font-family="Consolas" font-size="1.2" text-anchor="middle" x="12.180952380952377" y="35.40952380952381">PWM4</text>
    <rect fill="#4e4c4c" height="0.2" width="2.6" x="20.080952380952375" y="33.30952380952381"/>
    <g transform="translate(17.895311734897277,32.609523809523814)">
        <rect fill="#4e4c4c" height="1.6" rx="0.3" ry="0.3" transform="skewX(-15)" width="1.8" x="0" y="0"/>
    </g>
    <text dominant-baseline="central" fill="white" font-family="Consolas" font-size="1.2" text-anchor="middle" x="18.58095238095238" y="33.40952380952381">8</text>
    <g transform="translate(14.295311734897277,32.609523809523814)">
        <rect fill="#800000" height="1.6" rx="0.3" ry="0.3" transform="skewX(-15)" width="3.4" x="0" y="0"/>
    </g>
    <text dominant-baseline="central" fill="white" font-family="Consolas" font-size="1.2" text-anchor="middle" x="15.780952380952378" y="33.40952380952381">PA30</text>
    <g transform="translate(10.695311734897276,32.609523809523814)">
        <rect fill="#dcd4ee" height="1.6" rx="0.3" ry="0.3" transform="skewX(-15)" width="3.4" x="0" y="0"/>
    </g>
    <text dominant-baseline="central" fill="#423F42" font-family="Consolas" font-size="1.2" text-anchor="middle" x="12.180952380952377" y="33.40952380952381">TX2</text>
    <g transform="translate(7.095311734897276,32.609523809523814)">
        <rect fill="#f95" height="1.6" rx="0.3" ry="0.3" transform="skewX(-15)" width="3.4" x="0" y="0"/>
    </g>
    <text dominant-baseline="central" fill="#423F42" font-family="Consolas" font-size="1.2" text-anchor="middle" x="8.580952380952377" y="33.40952380952381">SDA0</text>
    <g transform="translate(3.4953117348972764,32.609523809523814)">
        <rect fill="#afa35e" height="1.6" rx="0.3" ry="0.3" transform="skewX(-15)" width="3.4" x="0" y="0"/>
    </g>
    <text dominant-baseline="central" fill="#423F42" font-family="Consolas" font-size="1.2" text-anchor="middle" x="4.980952380952378" y="33.40952380952381">PWM4</text>
    <rect fill="#4e4c4c" height="0.2" width="2.6" x="20.080952380952375" y="31.30952380952381"/>
    <g transform="translate(17.895311734897277,30.60952380952381)">
        <rect fill="#4e4c4c" height="1.6" rx="0.3" ry="0.3" transform="skewX(-15)" width="1.8" x="0" y="0"/>
    </g>
    <text dominant-baseline="central" fill="white" font-family="Consolas" font-size="1.2" text-anchor="middle" x="18.58095238095238" y="31.40952380952381">10</text>
    <g transform="translate(14.295311734897277,30.60952380952381)">
        <rect fill="#800000" height="1.6" rx="0.3" ry="0.3" transform="skewX(-15)" width="3.4" x="0" y="0"/>
    </g>
    <text dominant-baseline="central" fill="white" font-family="Consolas" font-size="1.2" text-anchor="middle" x="15.780952380952378" y="31.40952380952381">PA29</text>
    <g transform="translate(10.695311734897276,30.60952380952381)">
        <rect fill="#dcd4ee" height="1.6" rx="0.3" ry="0.3" transform="skewX(-15)" width="3.4" x="0" y="0"/>
    </g>
    <text dominant-baseline="central" fill="#423F42" font-family="Consolas" font-size="1.2" text-anchor="middle" x="12.180952380952377" y="31.40952380952381">RX2</text>
    <g transform="translate(7.095311734897276,30.60952380952381)">
        <rect fill="#f95" height="1.6" rx="0.3" ry="0.3" transform="skewX(-15)" width="3.4" x="0" y="0"/>
    </g>
    <text dominant-baseline="central" fill="#423F42" font-family="Consolas" font-size="1.2" text-anchor="middle" x="8.580952380952377" y="31.40952380952381">SCL0</text>
    <g transform="translate(3.4953117348972764,30.60952380952381)">
        <rect fill="#afa35e" height="1.6" rx="0.3" ry="0.3" transform="skewX(-15)" width="3.4" x="0" y="0"/>
    </g>
    <text dominant-baseline="central" fill="#423F42" font-family="Consolas" font-size="1.2" text-anchor="middle" x="4.980952380952378" y="31.40952380952381">PWM4</text>
    <linearGradient gradientUnits="objectBoundingBox" id="id3" x1="1.0" x2="0.0" y1="0.0" y2="1.0">
        <stop offset="0%" stop-color="#4d4d4d"/>
        <stop offset="100%" stop-color="#0f0f0f"/>
    </linearGradient>
    <rect fill="url(#id3) none" height="17.799999999999997" stroke="#b5a739" stroke-width="0.1" width="14.9" x="63.89285714285714" y="11.45952380952381"/>
    <rect fill="#b5a739" height="0.1" width="1.6" x="63.84285714285714" y="25.75952380952381"/>
    <rect fill="#b5a739" height="3.45" width="0.1" x="65.44285714285714" y="25.75952380952381"/>
    <rect fill="#fff" height="3.55" width="1.7" x="63.74285714285714" y="25.859523809523807"/>
    <rect fill="#b5a739" height="0.1" width="1.6" x="77.14285714285714" y="25.75952380952381"/>
    <rect fill="#b5a739" height="3.45" width="0.1" x="77.14285714285714" y="25.75952380952381"/>
    <rect fill="#fff" height="3.55" width="1.7" x="77.24285714285715" y="25.859523809523807"/>
    <rect fill="#e5b472" height="2.5" id="r_pins_horz.pin1.pad" rx="0.2" ry="0.2" width="1.0" x="65.84285714285714" y="26.45952380952381"/>
    <rect fill="#e5b472" height="2.5" id="r_pins_horz.pin2.pad" rx="0.2" ry="0.2" width="1.0" x="67.84285714285714" y="26.45952380952381"/>
    <rect fill="#e5b472" height="2.5" id="r_pins_horz.pin3.pad" rx="0.2" ry="0.2" width="1.0" x="69.84285714285714" y="26.45952380952381"/>
    <rect fill="#e5b472" height="2.5" id="r_pins_horz.pin4.pad" rx="0.2" ry="0.2" width="1.0" x="71.84285714285714" y="26.45952380952381"/>
    <rect fill="#e5b472" height="2.5" id="r_pins_horz.pin5.pad" rx="0.2" ry="0.2" width="1.0" x="73.84285714285714" y="26.45952380952381"/>
    <rect fill="#e5b472" height="2.5" id="r_pins_horz.pin6.pad" rx="0.2" ry="0.2" width="1.0" x="75.84285714285714" y="26.45952380952381"/>
    <rect fill="#4e4c4c" height="2.0" width="0.2" x="66.24285714285715" y="29.509523809523806"/>
    <rect fill="#4e4c4c" height="0.2" width="0.2" x="66.04285714285714" y="31.30952380952381"/>
    <rect height="0.0" id="tuya2.back.pins.label1.anchor" width="0.0" x="130.3857142857143" y="42.81904761904762"/>
    <rect fill="#4e4c4c" height="4.0" width="0.2" x="68.24285714285715" y="29.509523809523806"/>
    <rect fill="#4e4c4c" height="0.2" width="2.2" x="66.04285714285714" y="33.30952380952381"/>
    <rect height="0.0" id="tuya2.back.pins.label2.anchor" width="0.0" x="130.3857142857143" y="44.81904761904762"/>
    <rect fill="#4e4c4c" height="6.0" width="0.2" x="70.24285714285715" y="29.509523809523806"/>
    <rect fill="#4e4c4c" height="0.2" width="4.2" x="66.04285714285714" y="35.30952380952381"/>
    <rect height="0.0" id="tuya2.back.pins.label3.anchor" width="0.0" x="130.3857142857143" y="46.81904761904762"/>
    <rect fill="#4e4c4c" height="6.0" width="0.2" x="72.24285714285715" y="29.509523809523806"/>
    <rect fill="#4e4c4c" height="0.2" width="4.2" x="72.34285714285714" y="35.30952380952381"/>
    <rect height="0.0" id="tuya2.back.pins.label4.anchor" width="0.0" x="139.8857142857143" y="46.81904761904762"/>
    <rect fill="#4e4c4c" height="4.0" width="0.2" x="74.24285714285715" y="29.509523809523806"/>
    <rect fill="#4e4c4c" height="0.2" width="2.2" x="74.34285714285714" y="33.30952380952381"/>
    <rect height="0.0" id="tuya2.back.pins.label5.anchor" width="0.0" x="139.8857142857143" y="44.81904761904762"/>
    <rect fill="#4e4c4c" height="2.0" width="0.2" x="76.24285714285715" y="29.509523809523806"/>
    <rect fill="#4e4c4c" height="0.2" width="0.2" x="76.34285714285714" y="31.30952380952381"/>
    <rect height="0.0" id="tuya2.back.pins.label6.anchor" width="0.0" x="139.8857142857143" y="42.81904761904762"/>
    <rect fill="#4e4c4c" height="0.2" width="2.6" x="63.44285714285714" y="31.30952380952381"/>
    <g transform="translate(61.257216496802045,30.60952380952381)">
        <rect fill="#4e4c4c" height="1.6" rx="0.3" ry="0.3" transform="skewX(-15)" width="1.8" x="0" y="0"/>
    </g>
    <text dominant-baseline="central" fill="white" font-family="Consolas" font-size="1.2" text-anchor="middle" x="61.94285714285714" y="31.40952380952381">1</text>
    <g transform="translate(57.65721649680204,30.60952380952381)">
        <rect fill="#cd3c24" height="1.6" rx="0.3" ry="0.3" transform="skewX(-15)" width="3.4" x="0" y="0"/>
    </g>
    <text dominant-baseline="central" fill="white" font-family="Consolas" font-size="1.2" text-anchor="middle" x="59.142857142857146" y="31.40952380952381">3V3</text>
    <rect fill="#4e4c4c" height="0.2" width="2.6" x="63.44285714285714" y="33.30952380952381"/>
    <g transform="translate(61.257216496802045,32.609523809523814)">
        <rect fill="#4e4c4c" height="1.6" rx="0.3" ry="0.3" transform="skewX(-15)" width="1.8" x="0" y="0"/>
    </g>
    <text dominant-baseline="central" fill="white" font-family="Consolas" font-size="1.2" text-anchor="middle" x="61.94285714285714" y="33.40952380952381">3</text>
    <g transform="translate(57.65721649680204,32.609523809523814)">
        <rect fill="#000" height="1.6" rx="0.3" ry="0.3" transform="skewX(-15)" width="3.4" x="0" y="0"/>
    </g>
    <text dominant-baseline="central" fill="white" font-family="Consolas" font-size="1.2" text-anchor="middle" x="59.142857142857146" y="33.40952380952381">GND</text>
    <rect fill="#4e4c4c" height="0.2" width="2.6" x="63.44285714285714" y="35.30952380952381"/>
    <g transform="translate(61.257216496802045,34.609523809523814)">
        <rect fill="#4e4c4c" height="1.6" rx="0.3" ry="0.3" transform="skewX(-15)" width="1.8" x="0" y="0"/>
    </g>
    <text dominant-baseline="central" fill="white" font-family="Consolas" font-size="1.2" text-anchor="middle" x="61.94285714285714" y="35.40952380952381">5</text>
    <g transform="translate(57.65721649680204,34.609523809523814)">
        <rect fill="#800000" height="1.6" rx="0.3" ry="0.3" transform="skewX(-15)" width="3.4" x="0" y="0"/>
    </g>
    <text dominant-baseline="central" fill="white" font-family="Consolas" font-size="1.2" text-anchor="middle" x="59.142857142857146" y="35.40952380952381">PA18</text>
    <g transform="translate(54.05721649680204,34.609523809523814)">
        <rect fill="#dcd4ee" height="1.6" rx="0.3" ry="0.3" transform="skewX(-15)" width="3.4" x="0" y="0"/>
    </g>
    <text dominant-baseline="central" fill="#423F42" font-family="Consolas" font-size="1.2" text-anchor="middle" x="55.542857142857144" y="35.40952380952381">RX0</text>
    <g transform="translate(50.45721649680204,34.609523809523814)">
        <rect fill="#f95" height="1.6" rx="0.3" ry="0.3" transform="skewX(-15)" width="3.4" x="0" y="0"/>
    </g>
    <text dominant-baseline="central" fill="#423F42" font-family="Consolas" font-size="1.2" text-anchor="middle" x="51.94285714285714" y="35.40952380952381">SCL1</text>
    <rect fill="#4e4c4c" height="0.2" width="2.6" x="76.54285714285714" y="35.30952380952381"/>
    <g transform="translate(79.95721649680203,34.609523809523814)">
        <rect fill="#4e4c4c" height="1.6" rx="0.3" ry="0.3" transform="skewX(-15)" width="1.8" x="0" y="0"/>
    </g>
    <text dominant-baseline="central" fill="white" font-family="Consolas" font-size="1.2" text-anchor="middle" x="80.64285714285714" y="35.40952380952381">7</text>
    <g transform="translate(81.95721649680203,34.609523809523814)">
        <rect fill="#800000" height="1.6" rx="0.3" ry="0.3" transform="skewX(-15)" width="3.4" x="0" y="0"/>
    </g>
    <text dominant-baseline="central" fill="white" font-family="Consolas" font-size="1.2" text-anchor="middle" x="83.44285714285714" y="35.40952380952381">PA23</text>
    <g transform="translate(85.55721649680203,34.609523809523814)">
        <rect fill="#dcd4ee" height="1.6" rx="0.3" ry="0.3" transform="skewX(-15)" width="3.4" x="0" y="0"/>
    </g>
    <text dominant-baseline="central" fill="#423F42" font-family="Consolas" font-size="1.2" text-anchor="middle" x="87.04285714285713" y="35.40952380952381">TX0</text>
    <g transform="translate(89.15721649680204,34.609523809523814)">
        <rect fill="#f95" height="1.6" rx="0.3" ry="0.3" transform="skewX(-15)" width="3.4" x="0" y="0"/>
    </g>
    <text dominant-baseline="central" fill="#423F42" font-family="Consolas" font-size="1.2" text-anchor="middle" x="90.64285714285714" y="35.40952380952381">SDA1</text>
    <g transform="translate(92.75721649680204,34.609523809523814)">
        <rect fill="#afa35e" height="1.6" rx="0.3" ry="0.3" transform="skewX(-15)" width="3.4" x="0" y="0"/>
    </g>
    <text dominant-baseline="central" fill="#423F42" font-family="Consolas" font-size="1.2" text-anchor="middle" x="94.24285714285715" y="35.40952380952381">PWM0</text>
    <rect fill="#4e4c4c" height="0.2" width="2.6" x="76.54285714285714" y="33.30952380952381"/>
    <g transform="translate(79.95721649680203,32.609523809523814)">
        <rect fill="#4e4c4c" height="1.6" rx="0.3" ry="0.3" transform="skewX(-15)" width="1.8" x="0" y="0"/>
    </g>
    <text dominant-baseline="central" fill="white" font-family="Consolas" font-size="1.2" text-anchor="middle" x="80.64285714285714" y="33.40952380952381">9</text>
    <g transform="translate(81.95721649680203,32.609523809523814)">
        <rect fill="#800000" height="1.6" rx="0.3" ry="0.3" transform="skewX(-15)" width="3.4" x="0" y="0"/>
    </g>
    <text dominant-baseline="central" fill="white" font-family="Consolas" font-size="1.2" text-anchor="middle" x="83.44285714285714" y="33.40952380952381">PA14</text>
    <g transform="translate(85.55721649680203,32.609523809523814)">
        <rect fill="#afa35e" height="1.6" rx="0.3" ry="0.3" transform="skewX(-15)" width="3.4" x="0" y="0"/>
    </g>
    <text dominant-baseline="central" fill="#423F42" font-family="Consolas" font-size="1.2" text-anchor="middle" x="87.04285714285713" y="33.40952380952381">PWM0</text>
    <g transform="translate(89.15721649680204,32.609523809523814)">
        <rect fill="#ffe680" height="1.6" rx="0.3" ry="0.3" transform="skewX(-15)" width="3.4" x="0" y="0"/>
    </g>
    <text dominant-baseline="central" fill="#423F42" font-family="Consolas" font-size="1.2" text-anchor="middle" x="90.64285714285714" y="33.40952380952381">SWCLK</text>
    <rect fill="#4e4c4c" height="0.2" width="2.6" x="76.54285714285714" y="31.30952380952381"/>
    <g transform="translate(79.95721649680203,30.60952380952381)">
        <rect fill="#4e4c4c" height="1.6" rx="0.3" ry="0.3" transform="skewX(-15)" width="1.8" x="0" y="0"/>
    </g>
    <text dominant-baseline="central" fill="white" font-family="Consolas" font-size="1.2" text-anchor="middle" x="80.64285714285714" y="31.40952380952381">11</text>
    <g transform="translate(81.95721649680203,30.60952380952381)">
        <rect fill="#800000" height="1.6" rx="0.3" ry="0.3" transform="skewX(-15)" width="3.4" x="0" y="0"/>
    </g>
    <text dominant-baseline="central" fill="white" font-family="Consolas" font-size="1.2" text-anchor="middle" x="83.44285714285714" y="31.40952380952381">PA15</text>
    <g transform="translate(85.55721649680203,30.60952380952381)">
        <rect fill="#afa35e" height="1.6" rx="0.3" ry="0.3" transform="skewX(-15)" width="3.4" x="0" y="0"/>
    </g>
    <text dominant-baseline="central" fill="#423F42" font-family="Consolas" font-size="1.2" text-anchor="middle" x="87.04285714285713" y="31.40952380952381">PWM1</text>
    <g transform="translate(89.15721649680204,30.60952380952381)">
        <rect fill="#ffe680" height="1.6" rx="0.3" ry="0.3" transform="skewX(-15)" width="3.4" x="0" y="0"/>
    </g>
    <text dominant-baseline="central" fill="#423F42" font-family="Consolas" font-size="1.2" text-anchor="middle" x="90.64285714285714" y="31.40952380952381">SWDIO</text>
</svg>
