<?xml version="1.0" encoding="utf-8" ?>
<svg xmlns="http://www.w3.org/2000/svg" xmlns:ev="http://www.w3.org/2001/xml-events" xmlns:xlink="http://www.w3.org/1999/xlink" baseProfile="full" height="500" version="1.1" viewBox="0,0,85.33333333333333,41.666666666666664" width="1024">
    <defs/>
    <rect fill="white" height="41.666666666666664" stroke="black" stroke-width="0.1" width="85.33333333333333" x="0" y="0"/>
    <linearGradient gradientUnits="objectBoundingBox" id="id1" x1="1.0" x2="0.0" y1="0.0" y2="1.0">
        <stop offset="0%" stop-color="#f9f9f9"/>
        <stop offset="100%" stop-color="#ededed"/>
    </linearGradient>
    <rect fill="url(#id1) none" height="23.9" stroke="#b5a739" stroke-width="0.1" width="15.9" x="36.46666666666666" y="8.883333333333333"/>
    <linearGradient gradientUnits="objectBoundingBox" id="id2" x1="1.0" x2="0.0" y1="0.0" y2="1.0">
        <stop offset="0%" stop-color="whitesmoke"/>
        <stop offset="100%" stop-color="#999"/>
    </linearGradient>
    <rect fill="url(#id2) none" height="16.8" rx="0.5" ry="0.5" width="12.0" x="38.416666666666664" y="15.783333333333331"/>
    <rect fill="#e5b472" height="1.2" id="esp12s.front.left.pin1.trace" width="1.7" x="36.416666666666664" y="16.733333333333334"/>
    <circle cx="36.416666666666664" cy="17.333333333333332" fill="#fff" id="esp12s.front.left.pin1.cast" r="0.35"/>
    <circle cx="37.46666666666666" cy="17.333333333333332" fill="#fff" id="esp12s.front.left.pin1.hole" r="0.35"/>
    <rect fill="#e5b472" height="1.2" id="esp12s.front.left.pin2.trace" width="1.7" x="36.416666666666664" y="18.733333333333334"/>
    <circle cx="36.416666666666664" cy="19.333333333333332" fill="#fff" id="esp12s.front.left.pin2.cast" r="0.35"/>
    <circle cx="37.46666666666666" cy="19.333333333333332" fill="#fff" id="esp12s.front.left.pin2.hole" r="0.35"/>
    <rect fill="#e5b472" height="1.2" id="esp12s.front.left.pin3.trace" width="1.7" x="36.416666666666664" y="20.733333333333334"/>
    <circle cx="36.416666666666664" cy="21.333333333333332" fill="#fff" id="esp12s.front.left.pin3.cast" r="0.35"/>
    <circle cx="37.46666666666666" cy="21.333333333333332" fill="#fff" id="esp12s.front.left.pin3.hole" r="0.35"/>
    <rect fill="#e5b472" height="1.2" id="esp12s.front.left.pin4.trace" width="1.7" x="36.416666666666664" y="22.733333333333334"/>
    <circle cx="36.416666666666664" cy="23.333333333333332" fill="#fff" id="esp12s.front.left.pin4.cast" r="0.35"/>
    <circle cx="37.46666666666666" cy="23.333333333333332" fill="#fff" id="esp12s.front.left.pin4.hole" r="0.35"/>
    <rect fill="#e5b472" height="1.2" id="esp12s.front.left.pin5.trace" width="1.7" x="36.416666666666664" y="24.733333333333334"/>
    <circle cx="36.416666666666664" cy="25.333333333333332" fill="#fff" id="esp12s.front.left.pin5.cast" r="0.35"/>
    <circle cx="37.46666666666666" cy="25.333333333333332" fill="#fff" id="esp12s.front.left.pin5.hole" r="0.35"/>
    <rect fill="#e5b472" height="1.2" id="esp12s.front.left.pin6.trace" width="1.7" x="36.416666666666664" y="26.73333333333333"/>
    <circle cx="36.416666666666664" cy="27.333333333333332" fill="#fff" id="esp12s.front.left.pin6.cast" r="0.35"/>
    <circle cx="37.46666666666666" cy="27.333333333333332" fill="#fff" id="esp12s.front.left.pin6.hole" r="0.35"/>
    <rect fill="#e5b472" height="1.2" id="esp12s.front.left.pin7.trace" width="1.7" x="36.416666666666664" y="28.73333333333333"/>
    <circle cx="36.416666666666664" cy="29.333333333333332" fill="#fff" id="esp12s.front.left.pin7.cast" r="0.35"/>
    <circle cx="37.46666666666666" cy="29.333333333333332" fill="#fff" id="esp12s.front.left.pin7.hole" r="0.35"/>
    <rect fill="#e5b472" height="1.2" id="esp12s.front.left.pin8.trace" width="1.7" x="36.416666666666664" y="30.73333333333333"/>
    <circle cx="36.416666666666664" cy="31.333333333333332" fill="#fff" id="esp12s.front.left.pin8.cast" r="0.35"/>
    <circle cx="37.46666666666666" cy="31.333333333333332" fill="#fff" id="esp12s.front.left.pin8.hole" r="0.35"/>
    <rect fill="#e5b472" height="1.2" id="esp12s.front.right.pin1.trace" width="1.7" x="50.71666666666667" y="16.733333333333334"/>
    <circle cx="52.416666666666664" cy="17.333333333333332" fill="#fff" id="esp12s.front.right.pin1.cast" r="0.35"/>
    <circle cx="51.36666666666666" cy="17.333333333333332" fill="#fff" id="esp12s.front.right.pin1.hole" r="0.35"/>
    <rect fill="#e5b472" height="1.2" id="esp12s.front.right.pin2.trace" width="1.7" x="50.71666666666667" y="18.733333333333334"/>
    <circle cx="52.416666666666664" cy="19.333333333333332" fill="#fff" id="esp12s.front.right.pin2.cast" r="0.35"/>
    <circle cx="51.36666666666666" cy="19.333333333333332" fill="#fff" id="esp12s.front.right.pin2.hole" r="0.35"/>
    <rect fill="#e5b472" height="1.2" id="esp12s.front.right.pin3.trace" width="1.7" x="50.71666666666667" y="20.733333333333334"/>
    <circle cx="52.416666666666664" cy="21.333333333333332" fill="#fff" id="esp12s.front.right.pin3.cast" r="0.35"/>
    <circle cx="51.36666666666666" cy="21.333333333333332" fill="#fff" id="esp12s.front.right.pin3.hole" r="0.35"/>
    <rect fill="#e5b472" height="1.2" id="esp12s.front.right.pin4.trace" width="1.7" x="50.71666666666667" y="22.733333333333334"/>
    <circle cx="52.416666666666664" cy="23.333333333333332" fill="#fff" id="esp12s.front.right.pin4.cast" r="0.35"/>
    <circle cx="51.36666666666666" cy="23.333333333333332" fill="#fff" id="esp12s.front.right.pin4.hole" r="0.35"/>
    <rect fill="#e5b472" height="1.2" id="esp12s.front.right.pin5.trace" width="1.7" x="50.71666666666667" y="24.733333333333334"/>
    <circle cx="52.416666666666664" cy="25.333333333333332" fill="#fff" id="esp12s.front.right.pin5.cast" r="0.35"/>
    <circle cx="51.36666666666666" cy="25.333333333333332" fill="#fff" id="esp12s.front.right.pin5.hole" r="0.35"/>
    <rect fill="#e5b472" height="1.2" id="esp12s.front.right.pin6.trace" width="1.7" x="50.71666666666667" y="26.73333333333333"/>
    <circle cx="52.416666666666664" cy="27.333333333333332" fill="#fff" id="esp12s.front.right.pin6.cast" r="0.35"/>
    <circle cx="51.36666666666666" cy="27.333333333333332" fill="#fff" id="esp12s.front.right.pin6.hole" r="0.35"/>
    <rect fill="#e5b472" height="1.2" id="esp12s.front.right.pin7.trace" width="1.7" x="50.71666666666667" y="28.73333333333333"/>
    <circle cx="52.416666666666664" cy="29.333333333333332" fill="#fff" id="esp12s.front.right.pin7.cast" r="0.35"/>
    <circle cx="51.36666666666666" cy="29.333333333333332" fill="#fff" id="esp12s.front.right.pin7.hole" r="0.35"/>
    <rect fill="#e5b472" height="1.2" id="esp12s.front.right.pin8.trace" width="1.7" x="50.71666666666667" y="30.73333333333333"/>
    <circle cx="52.416666666666664" cy="31.333333333333332" fill="#fff" id="esp12s.front.right.pin8.cast" r="0.35"/>
    <circle cx="51.36666666666666" cy="31.333333333333332" fill="#fff" id="esp12s.front.right.pin8.hole" r="0.35"/>
    <rect fill="#000" height="0.15" width="15.0" x="36.916666666666664" y="15.033333333333331"/>
    <text fill="#000" font-family="Consolas" font-size="1.0" x="43.416666666666664" y="14.333333333333332">CB3L</text>
    <rect fill="#e0e0e0" height="5.2" width="0.5" x="37.516666666666666" y="9.633333333333333"/>
    <rect fill="#e0e0e0" height="0.5" width="4.6" x="37.516666666666666" y="9.633333333333333"/>
    <rect fill="#e0e0e0" height="5.2" width="0.5" x="39.71666666666666" y="9.633333333333333"/>
    <rect fill="#e0e0e0" height="3.0" width="0.5" x="41.61666666666667" y="9.633333333333333"/>
    <rect fill="#e0e0e0" height="0.5" width="3.0" x="41.61666666666667" y="12.133333333333333"/>
    <rect fill="#e0e0e0" height="3.0" width="0.5" x="44.11666666666667" y="9.633333333333333"/>
    <rect fill="#e0e0e0" height="0.5" width="2.7" x="44.11666666666667" y="9.633333333333333"/>
    <rect fill="#e0e0e0" height="3.0" width="0.5" x="46.31666666666666" y="9.633333333333333"/>
    <rect fill="#e0e0e0" height="0.5" width="3.0" x="46.31666666666666" y="12.133333333333333"/>
    <rect fill="#e0e0e0" height="3.0" width="0.5" x="48.81666666666666" y="9.633333333333333"/>
    <rect fill="#e0e0e0" height="0.5" width="2.5" x="48.81666666666666" y="9.633333333333333"/>
    <rect fill="#e0e0e0" height="4.4" width="0.5" x="50.81666666666666" y="9.633333333333333"/>
    <rect fill="#4e4c4c" height="0.2" width="2.6" x="33.31666666666666" y="17.23333333333333"/>
    <g transform="translate(31.13102602061156,16.53333333333333)">
        <rect fill="#4e4c4c" height="1.6" rx="0.3" ry="0.3" transform="skewX(-15)" width="1.8" x="0" y="0"/>
    </g>
    <text dominant-baseline="central" fill="white" font-family="Consolas" font-size="1.2" text-anchor="middle" x="31.816666666666663" y="17.333333333333332">1</text>
    <g transform="translate(27.53102602061156,16.53333333333333)">
        <rect fill="#ed602e" height="1.6" rx="0.3" ry="0.3" transform="skewX(-15)" width="3.4" x="0" y="0"/>
    </g>
    <text dominant-baseline="central" fill="#423F42" font-family="Consolas" font-size="1.2" text-anchor="middle" x="29.016666666666662" y="17.333333333333332">CEN</text>
    <rect fill="#4e4c4c" height="0.2" width="2.6" x="33.31666666666666" y="19.23333333333333"/>
    <g transform="translate(31.13102602061156,18.53333333333333)">
        <rect fill="#4e4c4c" height="1.6" rx="0.3" ry="0.3" transform="skewX(-15)" width="1.8" x="0" y="0"/>
    </g>
    <text dominant-baseline="central" fill="white" font-family="Consolas" font-size="1.2" text-anchor="middle" x="31.816666666666663" y="19.333333333333332">2</text>
    <g transform="translate(27.53102602061156,18.53333333333333)">
        <rect fill="#800000" height="1.6" rx="0.3" ry="0.3" transform="skewX(-15)" width="3.4" x="0" y="0"/>
    </g>
    <text dominant-baseline="central" fill="white" font-family="Consolas" font-size="1.2" text-anchor="middle" x="29.016666666666662" y="19.333333333333332">P23</text>
    <g transform="translate(23.93102602061156,18.53333333333333)">
        <rect fill="#8ad039" height="1.6" rx="0.3" ry="0.3" transform="skewX(-15)" width="3.4" x="0" y="0"/>
    </g>
    <text dominant-baseline="central" fill="#423F42" font-family="Consolas" font-size="1.2" text-anchor="middle" x="25.416666666666664" y="19.333333333333332">ADC3</text>
    <rect fill="#4e4c4c" height="0.2" width="2.6" x="33.31666666666666" y="21.23333333333333"/>
    <g transform="translate(31.13102602061156,20.53333333333333)">
        <rect fill="#4e4c4c" height="1.6" rx="0.3" ry="0.3" transform="skewX(-15)" width="1.8" x="0" y="0"/>
    </g>
    <text dominant-baseline="central" fill="white" font-family="Consolas" font-size="1.2" text-anchor="middle" x="31.816666666666663" y="21.333333333333332">3</text>
    <g transform="translate(27.53102602061156,20.53333333333333)">
        <rect fill="#ed602e" height="1.6" rx="0.3" ry="0.3" transform="skewX(-15)" width="3.4" x="0" y="0"/>
    </g>
    <text dominant-baseline="central" fill="#423F42" font-family="Consolas" font-size="1.2" text-anchor="middle" x="29.016666666666662" y="21.333333333333332">CEN</text>
    <rect fill="#4e4c4c" height="0.2" width="2.6" x="33.31666666666666" y="23.23333333333333"/>
    <g transform="translate(31.13102602061156,22.53333333333333)">
        <rect fill="#4e4c4c" height="1.6" rx="0.3" ry="0.3" transform="skewX(-15)" width="1.8" x="0" y="0"/>
    </g>
    <text dominant-baseline="central" fill="white" font-family="Consolas" font-size="1.2" text-anchor="middle" x="31.816666666666663" y="23.333333333333332">4</text>
    <g transform="translate(27.53102602061156,22.53333333333333)">
        <rect fill="#800000" height="1.6" rx="0.3" ry="0.3" transform="skewX(-15)" width="3.4" x="0" y="0"/>
    </g>
    <text dominant-baseline="central" fill="white" font-family="Consolas" font-size="1.2" text-anchor="middle" x="29.016666666666662" y="23.333333333333332">P14</text>
    <rect fill="#4e4c4c" height="0.2" width="2.6" x="33.31666666666666" y="25.23333333333333"/>
    <g transform="translate(31.13102602061156,24.53333333333333)">
        <rect fill="#4e4c4c" height="1.6" rx="0.3" ry="0.3" transform="skewX(-15)" width="1.8" x="0" y="0"/>
    </g>
    <text dominant-baseline="central" fill="white" font-family="Consolas" font-size="1.2" text-anchor="middle" x="31.816666666666663" y="25.333333333333332">5</text>
    <g transform="translate(27.53102602061156,24.53333333333333)">
        <rect fill="#800000" height="1.6" rx="0.3" ry="0.3" transform="skewX(-15)" width="3.4" x="0" y="0"/>
    </g>
    <text dominant-baseline="central" fill="white" font-family="Consolas" font-size="1.2" text-anchor="middle" x="29.016666666666662" y="25.333333333333332">P26</text>
    <g transform="translate(23.93102602061156,24.53333333333333)">
        <rect fill="#aeafc1" height="1.6" rx="0.3" ry="0.3" transform="skewX(-15)" width="3.4" x="0" y="0"/>
    </g>
    <text dominant-baseline="central" fill="#423F42" font-family="Consolas" font-size="1.2" text-anchor="middle" x="25.416666666666664" y="25.333333333333332">IRDA</text>
    <g transform="translate(20.331026020611564,24.53333333333333)">
        <rect fill="#afa35e" height="1.6" rx="0.3" ry="0.3" transform="skewX(-15)" width="3.4" x="0" y="0"/>
    </g>
    <text dominant-baseline="central" fill="#423F42" font-family="Consolas" font-size="1.2" text-anchor="middle" x="21.816666666666666" y="25.333333333333332">PWM5</text>
    <rect fill="#4e4c4c" height="0.2" width="2.6" x="33.31666666666666" y="27.23333333333333"/>
    <g transform="translate(31.13102602061156,26.53333333333333)">
        <rect fill="#4e4c4c" height="1.6" rx="0.3" ry="0.3" transform="skewX(-15)" width="1.8" x="0" y="0"/>
    </g>
    <text dominant-baseline="central" fill="white" font-family="Consolas" font-size="1.2" text-anchor="middle" x="31.816666666666663" y="27.333333333333332">6</text>
    <g transform="translate(27.53102602061156,26.53333333333333)">
        <rect fill="#800000" height="1.6" rx="0.3" ry="0.3" transform="skewX(-15)" width="3.4" x="0" y="0"/>
    </g>
    <text dominant-baseline="central" fill="white" font-family="Consolas" font-size="1.2" text-anchor="middle" x="29.016666666666662" y="27.333333333333332">P24</text>
    <g transform="translate(23.93102602061156,26.53333333333333)">
        <rect fill="#afa35e" height="1.6" rx="0.3" ry="0.3" transform="skewX(-15)" width="3.4" x="0" y="0"/>
    </g>
    <text dominant-baseline="central" fill="#423F42" font-family="Consolas" font-size="1.2" text-anchor="middle" x="25.416666666666664" y="27.333333333333332">PWM4</text>
    <rect fill="#4e4c4c" height="0.2" width="2.6" x="33.31666666666666" y="29.23333333333333"/>
    <g transform="translate(31.13102602061156,28.53333333333333)">
        <rect fill="#4e4c4c" height="1.6" rx="0.3" ry="0.3" transform="skewX(-15)" width="1.8" x="0" y="0"/>
    </g>
    <text dominant-baseline="central" fill="white" font-family="Consolas" font-size="1.2" text-anchor="middle" x="31.816666666666663" y="29.333333333333332">7</text>
    <g transform="translate(27.53102602061156,28.53333333333333)">
        <rect fill="#800000" height="1.6" rx="0.3" ry="0.3" transform="skewX(-15)" width="3.4" x="0" y="0"/>
    </g>
    <text dominant-baseline="central" fill="white" font-family="Consolas" font-size="1.2" text-anchor="middle" x="29.016666666666662" y="29.333333333333332">P6</text>
    <g transform="translate(23.93102602061156,28.53333333333333)">
        <rect fill="#afa35e" height="1.6" rx="0.3" ry="0.3" transform="skewX(-15)" width="3.4" x="0" y="0"/>
    </g>
    <text dominant-baseline="central" fill="#423F42" font-family="Consolas" font-size="1.2" text-anchor="middle" x="25.416666666666664" y="29.333333333333332">PWM0</text>
    <rect fill="#4e4c4c" height="0.2" width="2.6" x="33.31666666666666" y="31.23333333333333"/>
    <g transform="translate(31.13102602061156,30.53333333333333)">
        <rect fill="#4e4c4c" height="1.6" rx="0.3" ry="0.3" transform="skewX(-15)" width="1.8" x="0" y="0"/>
    </g>
    <text dominant-baseline="central" fill="white" font-family="Consolas" font-size="1.2" text-anchor="middle" x="31.816666666666663" y="31.333333333333332">8</text>
    <g transform="translate(27.53102602061156,30.53333333333333)">
        <rect fill="#cd3c24" height="1.6" rx="0.3" ry="0.3" transform="skewX(-15)" width="3.4" x="0" y="0"/>
    </g>
    <text dominant-baseline="central" fill="white" font-family="Consolas" font-size="1.2" text-anchor="middle" x="29.016666666666662" y="31.333333333333332">3V3</text>
    <rect fill="#4e4c4c" height="0.2" width="2.6" x="52.916666666666664" y="31.23333333333333"/>
    <g transform="translate(56.33102602061157,30.53333333333333)">
        <rect fill="#4e4c4c" height="1.6" rx="0.3" ry="0.3" transform="skewX(-15)" width="1.8" x="0" y="0"/>
    </g>
    <text dominant-baseline="central" fill="white" font-family="Consolas" font-size="1.2" text-anchor="middle" x="57.016666666666666" y="31.333333333333332">9</text>
    <g transform="translate(58.33102602061157,30.53333333333333)">
        <rect fill="#000" height="1.6" rx="0.3" ry="0.3" transform="skewX(-15)" width="3.4" x="0" y="0"/>
    </g>
    <text dominant-baseline="central" fill="white" font-family="Consolas" font-size="1.2" text-anchor="middle" x="59.81666666666667" y="31.333333333333332">GND</text>
    <rect fill="#4e4c4c" height="0.2" width="2.6" x="52.916666666666664" y="29.23333333333333"/>
    <g transform="translate(56.33102602061157,28.53333333333333)">
        <rect fill="#4e4c4c" height="1.6" rx="0.3" ry="0.3" transform="skewX(-15)" width="1.8" x="0" y="0"/>
    </g>
    <text dominant-baseline="central" fill="white" font-family="Consolas" font-size="1.2" text-anchor="middle" x="57.016666666666666" y="29.333333333333332">10</text>
    <g transform="translate(58.33102602061157,28.53333333333333)">
        <rect fill="#800000" height="1.6" rx="0.3" ry="0.3" transform="skewX(-15)" width="3.4" x="0" y="0"/>
    </g>
    <text dominant-baseline="central" fill="white" font-family="Consolas" font-size="1.2" text-anchor="middle" x="59.81666666666667" y="29.333333333333332">P9</text>
    <g transform="translate(61.93102602061157,28.53333333333333)">
        <rect fill="#afa35e" height="1.6" rx="0.3" ry="0.3" transform="skewX(-15)" width="3.4" x="0" y="0"/>
    </g>
    <text dominant-baseline="central" fill="#423F42" font-family="Consolas" font-size="1.2" text-anchor="middle" x="63.41666666666667" y="29.333333333333332">PWM3</text>
    <rect fill="#4e4c4c" height="0.2" width="2.6" x="52.916666666666664" y="27.23333333333333"/>
    <g transform="translate(56.33102602061157,26.53333333333333)">
        <rect fill="#4e4c4c" height="1.6" rx="0.3" ry="0.3" transform="skewX(-15)" width="1.8" x="0" y="0"/>
    </g>
    <text dominant-baseline="central" fill="white" font-family="Consolas" font-size="1.2" text-anchor="middle" x="57.016666666666666" y="27.333333333333332">11</text>
    <g transform="translate(58.33102602061157,26.53333333333333)">
        <rect fill="#800000" height="1.6" rx="0.3" ry="0.3" transform="skewX(-15)" width="3.4" x="0" y="0"/>
    </g>
    <text dominant-baseline="central" fill="white" font-family="Consolas" font-size="1.2" text-anchor="middle" x="59.81666666666667" y="27.333333333333332">P0</text>
    <g transform="translate(61.93102602061157,26.53333333333333)">
        <rect fill="#dcd4ee" height="1.6" rx="0.3" ry="0.3" transform="skewX(-15)" width="3.4" x="0" y="0"/>
    </g>
    <text dominant-baseline="central" fill="#423F42" font-family="Consolas" font-size="1.2" text-anchor="middle" x="63.41666666666667" y="27.333333333333332">TX2</text>
    <rect fill="#4e4c4c" height="0.2" width="2.6" x="52.916666666666664" y="25.23333333333333"/>
    <g transform="translate(56.33102602061157,24.53333333333333)">
        <rect fill="#4e4c4c" height="1.6" rx="0.3" ry="0.3" transform="skewX(-15)" width="1.8" x="0" y="0"/>
    </g>
    <text dominant-baseline="central" fill="white" font-family="Consolas" font-size="1.2" text-anchor="middle" x="57.016666666666666" y="25.333333333333332">12</text>
    <g transform="translate(58.33102602061157,24.53333333333333)">
        <rect fill="#800000" height="1.6" rx="0.3" ry="0.3" transform="skewX(-15)" width="3.4" x="0" y="0"/>
    </g>
    <text dominant-baseline="central" fill="white" font-family="Consolas" font-size="1.2" text-anchor="middle" x="59.81666666666667" y="25.333333333333332">P21</text>
    <rect fill="#4e4c4c" height="0.2" width="2.6" x="52.916666666666664" y="23.23333333333333"/>
    <g transform="translate(56.33102602061157,22.53333333333333)">
        <rect fill="#4e4c4c" height="1.6" rx="0.3" ry="0.3" transform="skewX(-15)" width="1.8" x="0" y="0"/>
    </g>
    <text dominant-baseline="central" fill="white" font-family="Consolas" font-size="1.2" text-anchor="middle" x="57.016666666666666" y="23.333333333333332">13</text>
    <g transform="translate(58.33102602061157,22.53333333333333)">
        <rect fill="#800000" height="1.6" rx="0.3" ry="0.3" transform="skewX(-15)" width="3.4" x="0" y="0"/>
    </g>
    <text dominant-baseline="central" fill="white" font-family="Consolas" font-size="1.2" text-anchor="middle" x="59.81666666666667" y="23.333333333333332">P8</text>
    <g transform="translate(61.93102602061157,22.53333333333333)">
        <rect fill="#afa35e" height="1.6" rx="0.3" ry="0.3" transform="skewX(-15)" width="3.4" x="0" y="0"/>
    </g>
    <text dominant-baseline="central" fill="#423F42" font-family="Consolas" font-size="1.2" text-anchor="middle" x="63.41666666666667" y="23.333333333333332">PWM2</text>
    <rect fill="#4e4c4c" height="0.2" width="2.6" x="52.916666666666664" y="21.23333333333333"/>
    <g transform="translate(56.33102602061157,20.53333333333333)">
        <rect fill="#4e4c4c" height="1.6" rx="0.3" ry="0.3" transform="skewX(-15)" width="1.8" x="0" y="0"/>
    </g>
    <text dominant-baseline="central" fill="white" font-family="Consolas" font-size="1.2" text-anchor="middle" x="57.016666666666666" y="21.333333333333332">14</text>
    <g transform="translate(58.33102602061157,20.53333333333333)">
        <rect fill="#800000" height="1.6" rx="0.3" ry="0.3" transform="skewX(-15)" width="3.4" x="0" y="0"/>
    </g>
    <text dominant-baseline="central" fill="white" font-family="Consolas" font-size="1.2" text-anchor="middle" x="59.81666666666667" y="21.333333333333332">P7</text>
    <g transform="translate(61.93102602061157,20.53333333333333)">
        <rect fill="#afa35e" height="1.6" rx="0.3" ry="0.3" transform="skewX(-15)" width="3.4" x="0" y="0"/>
    </g>
    <text dominant-baseline="central" fill="#423F42" font-family="Consolas" font-size="1.2" text-anchor="middle" x="63.41666666666667" y="21.333333333333332">PWM1</text>
    <rect fill="#4e4c4c" height="0.2" width="2.6" x="52.916666666666664" y="19.23333333333333"/>
    <g transform="translate(56.33102602061157,18.53333333333333)">
        <rect fill="#4e4c4c" height="1.6" rx="0.3" ry="0.3" transform="skewX(-15)" width="1.8" x="0" y="0"/>
    </g>
    <text dominant-baseline="central" fill="white" font-family="Consolas" font-size="1.2" text-anchor="middle" x="57.016666666666666" y="19.333333333333332">15</text>
    <g transform="translate(58.33102602061157,18.53333333333333)">
        <rect fill="#800000" height="1.6" rx="0.3" ry="0.3" transform="skewX(-15)" width="3.4" x="0" y="0"/>
    </g>
    <text dominant-baseline="central" fill="white" font-family="Consolas" font-size="1.2" text-anchor="middle" x="59.81666666666667" y="19.333333333333332">P10</text>
    <g transform="translate(61.93102602061157,18.53333333333333)">
        <rect fill="#dcd4ee" height="1.6" rx="0.3" ry="0.3" transform="skewX(-15)" width="3.4" x="0" y="0"/>
    </g>
    <text dominant-baseline="central" fill="#423F42" font-family="Consolas" font-size="1.2" text-anchor="middle" x="63.41666666666667" y="19.333333333333332">RX1</text>
    <rect fill="#4e4c4c" height="0.2" width="2.6" x="52.916666666666664" y="17.23333333333333"/>
    <g transform="translate(56.33102602061157,16.53333333333333)">
        <rect fill="#4e4c4c" height="1.6" rx="0.3" ry="0.3" transform="skewX(-15)" width="1.8" x="0" y="0"/>
    </g>
    <text dominant-baseline="central" fill="white" font-family="Consolas" font-size="1.2" text-anchor="middle" x="57.016666666666666" y="17.333333333333332">16</text>
    <g transform="translate(58.33102602061157,16.53333333333333)">
        <rect fill="#800000" height="1.6" rx="0.3" ry="0.3" transform="skewX(-15)" width="3.4" x="0" y="0"/>
    </g>
    <text dominant-baseline="central" fill="white" font-family="Consolas" font-size="1.2" text-anchor="middle" x="59.81666666666667" y="17.333333333333332">P11</text>
    <g transform="translate(61.93102602061157,16.53333333333333)">
        <rect fill="#dcd4ee" height="1.6" rx="0.3" ry="0.3" transform="skewX(-15)" width="3.4" x="0" y="0"/>
    </g>
    <text dominant-baseline="central" fill="#423F42" font-family="Consolas" font-size="1.2" text-anchor="middle" x="63.41666666666667" y="17.333333333333332">TX1</text>
</svg>
